G04 #@! TF.GenerationSoftware,KiCad,Pcbnew,7.0.9-7.0.9~ubuntu20.04.1*
G04 #@! TF.CreationDate,2023-12-21T14:32:48-08:00*
G04 #@! TF.ProjectId,ros_sync_node,726f735f-7379-46e6-935f-6e6f64652e6b,rev?*
G04 #@! TF.SameCoordinates,Original*
G04 #@! TF.FileFunction,Legend,Top*
G04 #@! TF.FilePolarity,Positive*
%FSLAX46Y46*%
G04 Gerber Fmt 4.6, Leading zero omitted, Abs format (unit mm)*
G04 Created by KiCad (PCBNEW 7.0.9-7.0.9~ubuntu20.04.1) date 2023-12-21 14:32:48*
%MOMM*%
%LPD*%
G01*
G04 APERTURE LIST*
%ADD10C,0.150000*%
%ADD11C,0.100000*%
%ADD12C,0.120000*%
%ADD13C,3.200000*%
%ADD14R,1.700000X1.700000*%
%ADD15O,1.700000X1.700000*%
%ADD16C,1.524000*%
G04 APERTURE END LIST*
D10*
X156014736Y-70305728D02*
X156014736Y-69829538D01*
X156014736Y-69829538D02*
X155538546Y-69781919D01*
X155538546Y-69781919D02*
X155586165Y-69829538D01*
X155586165Y-69829538D02*
X155633784Y-69924776D01*
X155633784Y-69924776D02*
X155633784Y-70162871D01*
X155633784Y-70162871D02*
X155586165Y-70258109D01*
X155586165Y-70258109D02*
X155538546Y-70305728D01*
X155538546Y-70305728D02*
X155443308Y-70353347D01*
X155443308Y-70353347D02*
X155205213Y-70353347D01*
X155205213Y-70353347D02*
X155109975Y-70305728D01*
X155109975Y-70305728D02*
X155062356Y-70258109D01*
X155062356Y-70258109D02*
X155014736Y-70162871D01*
X155014736Y-70162871D02*
X155014736Y-69924776D01*
X155014736Y-69924776D02*
X155062356Y-69829538D01*
X155062356Y-69829538D02*
X155109975Y-69781919D01*
X156014736Y-70639062D02*
X155014736Y-70972395D01*
X155014736Y-70972395D02*
X156014736Y-71305728D01*
X155014736Y-72400967D02*
X156014736Y-72400967D01*
X155681403Y-72877157D02*
X155014736Y-72877157D01*
X155586165Y-72877157D02*
X155633784Y-72924776D01*
X155633784Y-72924776D02*
X155681403Y-73020014D01*
X155681403Y-73020014D02*
X155681403Y-73162871D01*
X155681403Y-73162871D02*
X155633784Y-73258109D01*
X155633784Y-73258109D02*
X155538546Y-73305728D01*
X155538546Y-73305728D02*
X155014736Y-73305728D01*
X156014736Y-76581838D02*
X156014736Y-77200885D01*
X156014736Y-77200885D02*
X155633784Y-76867552D01*
X155633784Y-76867552D02*
X155633784Y-77010409D01*
X155633784Y-77010409D02*
X155586165Y-77105647D01*
X155586165Y-77105647D02*
X155538546Y-77153266D01*
X155538546Y-77153266D02*
X155443308Y-77200885D01*
X155443308Y-77200885D02*
X155205213Y-77200885D01*
X155205213Y-77200885D02*
X155109975Y-77153266D01*
X155109975Y-77153266D02*
X155062356Y-77105647D01*
X155062356Y-77105647D02*
X155014736Y-77010409D01*
X155014736Y-77010409D02*
X155014736Y-76724695D01*
X155014736Y-76724695D02*
X155062356Y-76629457D01*
X155062356Y-76629457D02*
X155109975Y-76581838D01*
X156014736Y-77486600D02*
X155014736Y-77819933D01*
X155014736Y-77819933D02*
X156014736Y-78153266D01*
X156014736Y-78391362D02*
X156014736Y-79010409D01*
X156014736Y-79010409D02*
X155633784Y-78677076D01*
X155633784Y-78677076D02*
X155633784Y-78819933D01*
X155633784Y-78819933D02*
X155586165Y-78915171D01*
X155586165Y-78915171D02*
X155538546Y-78962790D01*
X155538546Y-78962790D02*
X155443308Y-79010409D01*
X155443308Y-79010409D02*
X155205213Y-79010409D01*
X155205213Y-79010409D02*
X155109975Y-78962790D01*
X155109975Y-78962790D02*
X155062356Y-78915171D01*
X155062356Y-78915171D02*
X155014736Y-78819933D01*
X155014736Y-78819933D02*
X155014736Y-78534219D01*
X155014736Y-78534219D02*
X155062356Y-78438981D01*
X155062356Y-78438981D02*
X155109975Y-78391362D01*
X156014736Y-80391362D02*
X156014736Y-80581838D01*
X156014736Y-80581838D02*
X155967117Y-80677076D01*
X155967117Y-80677076D02*
X155871879Y-80772314D01*
X155871879Y-80772314D02*
X155681403Y-80819933D01*
X155681403Y-80819933D02*
X155348070Y-80819933D01*
X155348070Y-80819933D02*
X155157594Y-80772314D01*
X155157594Y-80772314D02*
X155062356Y-80677076D01*
X155062356Y-80677076D02*
X155014736Y-80581838D01*
X155014736Y-80581838D02*
X155014736Y-80391362D01*
X155014736Y-80391362D02*
X155062356Y-80296124D01*
X155062356Y-80296124D02*
X155157594Y-80200886D01*
X155157594Y-80200886D02*
X155348070Y-80153267D01*
X155348070Y-80153267D02*
X155681403Y-80153267D01*
X155681403Y-80153267D02*
X155871879Y-80200886D01*
X155871879Y-80200886D02*
X155967117Y-80296124D01*
X155967117Y-80296124D02*
X156014736Y-80391362D01*
X155681403Y-81677076D02*
X155014736Y-81677076D01*
X155681403Y-81248505D02*
X155157594Y-81248505D01*
X155157594Y-81248505D02*
X155062356Y-81296124D01*
X155062356Y-81296124D02*
X155014736Y-81391362D01*
X155014736Y-81391362D02*
X155014736Y-81534219D01*
X155014736Y-81534219D02*
X155062356Y-81629457D01*
X155062356Y-81629457D02*
X155109975Y-81677076D01*
X155681403Y-82010410D02*
X155681403Y-82391362D01*
X156014736Y-82153267D02*
X155157594Y-82153267D01*
X155157594Y-82153267D02*
X155062356Y-82200886D01*
X155062356Y-82200886D02*
X155014736Y-82296124D01*
X155014736Y-82296124D02*
X155014736Y-82391362D01*
X154908761Y-86131987D02*
X154908761Y-85655797D01*
X154908761Y-85655797D02*
X155908761Y-85655797D01*
X155432571Y-86465321D02*
X155432571Y-86798654D01*
X154908761Y-86941511D02*
X154908761Y-86465321D01*
X154908761Y-86465321D02*
X155908761Y-86465321D01*
X155908761Y-86465321D02*
X155908761Y-86941511D01*
X154908761Y-87370083D02*
X155908761Y-87370083D01*
X155908761Y-87370083D02*
X155908761Y-87608178D01*
X155908761Y-87608178D02*
X155861142Y-87751035D01*
X155861142Y-87751035D02*
X155765904Y-87846273D01*
X155765904Y-87846273D02*
X155670666Y-87893892D01*
X155670666Y-87893892D02*
X155480190Y-87941511D01*
X155480190Y-87941511D02*
X155337333Y-87941511D01*
X155337333Y-87941511D02*
X155146857Y-87893892D01*
X155146857Y-87893892D02*
X155051619Y-87846273D01*
X155051619Y-87846273D02*
X154956381Y-87751035D01*
X154956381Y-87751035D02*
X154908761Y-87608178D01*
X154908761Y-87608178D02*
X154908761Y-87370083D01*
X155908761Y-89322464D02*
X155908761Y-89512940D01*
X155908761Y-89512940D02*
X155861142Y-89608178D01*
X155861142Y-89608178D02*
X155765904Y-89703416D01*
X155765904Y-89703416D02*
X155575428Y-89751035D01*
X155575428Y-89751035D02*
X155242095Y-89751035D01*
X155242095Y-89751035D02*
X155051619Y-89703416D01*
X155051619Y-89703416D02*
X154956381Y-89608178D01*
X154956381Y-89608178D02*
X154908761Y-89512940D01*
X154908761Y-89512940D02*
X154908761Y-89322464D01*
X154908761Y-89322464D02*
X154956381Y-89227226D01*
X154956381Y-89227226D02*
X155051619Y-89131988D01*
X155051619Y-89131988D02*
X155242095Y-89084369D01*
X155242095Y-89084369D02*
X155575428Y-89084369D01*
X155575428Y-89084369D02*
X155765904Y-89131988D01*
X155765904Y-89131988D02*
X155861142Y-89227226D01*
X155861142Y-89227226D02*
X155908761Y-89322464D01*
X155575428Y-90608178D02*
X154908761Y-90608178D01*
X155575428Y-90179607D02*
X155051619Y-90179607D01*
X155051619Y-90179607D02*
X154956381Y-90227226D01*
X154956381Y-90227226D02*
X154908761Y-90322464D01*
X154908761Y-90322464D02*
X154908761Y-90465321D01*
X154908761Y-90465321D02*
X154956381Y-90560559D01*
X154956381Y-90560559D02*
X155004000Y-90608178D01*
X155575428Y-90941512D02*
X155575428Y-91322464D01*
X155908761Y-91084369D02*
X155051619Y-91084369D01*
X155051619Y-91084369D02*
X154956381Y-91131988D01*
X154956381Y-91131988D02*
X154908761Y-91227226D01*
X154908761Y-91227226D02*
X154908761Y-91322464D01*
X174300000Y-93800000D02*
X174300000Y-92600000D01*
X158900000Y-93700000D02*
X158900000Y-92500000D01*
X151300000Y-93600000D02*
X151300000Y-92400000D01*
X166500000Y-92574000D02*
X166500000Y-93700000D01*
D11*
X169142857Y-93241764D02*
X169142857Y-92491764D01*
X169142857Y-92491764D02*
X169428571Y-92491764D01*
X169428571Y-92491764D02*
X169500000Y-92527478D01*
X169500000Y-92527478D02*
X169535714Y-92563192D01*
X169535714Y-92563192D02*
X169571428Y-92634621D01*
X169571428Y-92634621D02*
X169571428Y-92741764D01*
X169571428Y-92741764D02*
X169535714Y-92813192D01*
X169535714Y-92813192D02*
X169500000Y-92848907D01*
X169500000Y-92848907D02*
X169428571Y-92884621D01*
X169428571Y-92884621D02*
X169142857Y-92884621D01*
X169892857Y-93241764D02*
X169892857Y-92741764D01*
X169892857Y-92491764D02*
X169857143Y-92527478D01*
X169857143Y-92527478D02*
X169892857Y-92563192D01*
X169892857Y-92563192D02*
X169928571Y-92527478D01*
X169928571Y-92527478D02*
X169892857Y-92491764D01*
X169892857Y-92491764D02*
X169892857Y-92563192D01*
X170250000Y-92741764D02*
X170250000Y-93241764D01*
X170250000Y-92813192D02*
X170285714Y-92777478D01*
X170285714Y-92777478D02*
X170357143Y-92741764D01*
X170357143Y-92741764D02*
X170464286Y-92741764D01*
X170464286Y-92741764D02*
X170535714Y-92777478D01*
X170535714Y-92777478D02*
X170571429Y-92848907D01*
X170571429Y-92848907D02*
X170571429Y-93241764D01*
X171535714Y-93241764D02*
X171678571Y-93241764D01*
X171678571Y-93241764D02*
X171750000Y-93206050D01*
X171750000Y-93206050D02*
X171785714Y-93170335D01*
X171785714Y-93170335D02*
X171857143Y-93063192D01*
X171857143Y-93063192D02*
X171892857Y-92920335D01*
X171892857Y-92920335D02*
X171892857Y-92634621D01*
X171892857Y-92634621D02*
X171857143Y-92563192D01*
X171857143Y-92563192D02*
X171821429Y-92527478D01*
X171821429Y-92527478D02*
X171750000Y-92491764D01*
X171750000Y-92491764D02*
X171607143Y-92491764D01*
X171607143Y-92491764D02*
X171535714Y-92527478D01*
X171535714Y-92527478D02*
X171500000Y-92563192D01*
X171500000Y-92563192D02*
X171464286Y-92634621D01*
X171464286Y-92634621D02*
X171464286Y-92813192D01*
X171464286Y-92813192D02*
X171500000Y-92884621D01*
X171500000Y-92884621D02*
X171535714Y-92920335D01*
X171535714Y-92920335D02*
X171607143Y-92956050D01*
X171607143Y-92956050D02*
X171750000Y-92956050D01*
X171750000Y-92956050D02*
X171821429Y-92920335D01*
X171821429Y-92920335D02*
X171857143Y-92884621D01*
X171857143Y-92884621D02*
X171892857Y-92813192D01*
X161285714Y-93341764D02*
X161285714Y-92591764D01*
X161285714Y-92591764D02*
X161571428Y-92591764D01*
X161571428Y-92591764D02*
X161642857Y-92627478D01*
X161642857Y-92627478D02*
X161678571Y-92663192D01*
X161678571Y-92663192D02*
X161714285Y-92734621D01*
X161714285Y-92734621D02*
X161714285Y-92841764D01*
X161714285Y-92841764D02*
X161678571Y-92913192D01*
X161678571Y-92913192D02*
X161642857Y-92948907D01*
X161642857Y-92948907D02*
X161571428Y-92984621D01*
X161571428Y-92984621D02*
X161285714Y-92984621D01*
X162035714Y-93341764D02*
X162035714Y-92841764D01*
X162035714Y-92591764D02*
X162000000Y-92627478D01*
X162000000Y-92627478D02*
X162035714Y-92663192D01*
X162035714Y-92663192D02*
X162071428Y-92627478D01*
X162071428Y-92627478D02*
X162035714Y-92591764D01*
X162035714Y-92591764D02*
X162035714Y-92663192D01*
X162392857Y-92841764D02*
X162392857Y-93341764D01*
X162392857Y-92913192D02*
X162428571Y-92877478D01*
X162428571Y-92877478D02*
X162500000Y-92841764D01*
X162500000Y-92841764D02*
X162607143Y-92841764D01*
X162607143Y-92841764D02*
X162678571Y-92877478D01*
X162678571Y-92877478D02*
X162714286Y-92948907D01*
X162714286Y-92948907D02*
X162714286Y-93341764D01*
X164035714Y-93341764D02*
X163607143Y-93341764D01*
X163821428Y-93341764D02*
X163821428Y-92591764D01*
X163821428Y-92591764D02*
X163750000Y-92698907D01*
X163750000Y-92698907D02*
X163678571Y-92770335D01*
X163678571Y-92770335D02*
X163607143Y-92806050D01*
X164750000Y-93341764D02*
X164321429Y-93341764D01*
X164535714Y-93341764D02*
X164535714Y-92591764D01*
X164535714Y-92591764D02*
X164464286Y-92698907D01*
X164464286Y-92698907D02*
X164392857Y-92770335D01*
X164392857Y-92770335D02*
X164321429Y-92806050D01*
X153585714Y-93341764D02*
X153585714Y-92591764D01*
X153585714Y-92591764D02*
X153871428Y-92591764D01*
X153871428Y-92591764D02*
X153942857Y-92627478D01*
X153942857Y-92627478D02*
X153978571Y-92663192D01*
X153978571Y-92663192D02*
X154014285Y-92734621D01*
X154014285Y-92734621D02*
X154014285Y-92841764D01*
X154014285Y-92841764D02*
X153978571Y-92913192D01*
X153978571Y-92913192D02*
X153942857Y-92948907D01*
X153942857Y-92948907D02*
X153871428Y-92984621D01*
X153871428Y-92984621D02*
X153585714Y-92984621D01*
X154335714Y-93341764D02*
X154335714Y-92841764D01*
X154335714Y-92591764D02*
X154300000Y-92627478D01*
X154300000Y-92627478D02*
X154335714Y-92663192D01*
X154335714Y-92663192D02*
X154371428Y-92627478D01*
X154371428Y-92627478D02*
X154335714Y-92591764D01*
X154335714Y-92591764D02*
X154335714Y-92663192D01*
X154692857Y-92841764D02*
X154692857Y-93341764D01*
X154692857Y-92913192D02*
X154728571Y-92877478D01*
X154728571Y-92877478D02*
X154800000Y-92841764D01*
X154800000Y-92841764D02*
X154907143Y-92841764D01*
X154907143Y-92841764D02*
X154978571Y-92877478D01*
X154978571Y-92877478D02*
X155014286Y-92948907D01*
X155014286Y-92948907D02*
X155014286Y-93341764D01*
X156335714Y-93341764D02*
X155907143Y-93341764D01*
X156121428Y-93341764D02*
X156121428Y-92591764D01*
X156121428Y-92591764D02*
X156050000Y-92698907D01*
X156050000Y-92698907D02*
X155978571Y-92770335D01*
X155978571Y-92770335D02*
X155907143Y-92806050D01*
X156585714Y-92591764D02*
X157050000Y-92591764D01*
X157050000Y-92591764D02*
X156800000Y-92877478D01*
X156800000Y-92877478D02*
X156907143Y-92877478D01*
X156907143Y-92877478D02*
X156978572Y-92913192D01*
X156978572Y-92913192D02*
X157014286Y-92948907D01*
X157014286Y-92948907D02*
X157050000Y-93020335D01*
X157050000Y-93020335D02*
X157050000Y-93198907D01*
X157050000Y-93198907D02*
X157014286Y-93270335D01*
X157014286Y-93270335D02*
X156978572Y-93306050D01*
X156978572Y-93306050D02*
X156907143Y-93341764D01*
X156907143Y-93341764D02*
X156692857Y-93341764D01*
X156692857Y-93341764D02*
X156621429Y-93306050D01*
X156621429Y-93306050D02*
X156585714Y-93270335D01*
D10*
X164538095Y-79994820D02*
X164538095Y-80804343D01*
X164538095Y-80804343D02*
X164585714Y-80899581D01*
X164585714Y-80899581D02*
X164633333Y-80947201D01*
X164633333Y-80947201D02*
X164728571Y-80994820D01*
X164728571Y-80994820D02*
X164919047Y-80994820D01*
X164919047Y-80994820D02*
X165014285Y-80947201D01*
X165014285Y-80947201D02*
X165061904Y-80899581D01*
X165061904Y-80899581D02*
X165109523Y-80804343D01*
X165109523Y-80804343D02*
X165109523Y-79994820D01*
X166109523Y-80994820D02*
X165538095Y-80994820D01*
X165823809Y-80994820D02*
X165823809Y-79994820D01*
X165823809Y-79994820D02*
X165728571Y-80137677D01*
X165728571Y-80137677D02*
X165633333Y-80232915D01*
X165633333Y-80232915D02*
X165538095Y-80280534D01*
D12*
X161430000Y-93590000D02*
X162760000Y-93590000D01*
X161430000Y-94920000D02*
X161430000Y-93590000D01*
X161430000Y-96190000D02*
X161430000Y-101330000D01*
X161430000Y-96190000D02*
X164090000Y-96190000D01*
X161430000Y-101330000D02*
X164090000Y-101330000D01*
X164090000Y-96190000D02*
X164090000Y-101330000D01*
X151270000Y-93590000D02*
X152600000Y-93590000D01*
X151270000Y-94920000D02*
X151270000Y-93590000D01*
X151270000Y-96190000D02*
X151270000Y-101330000D01*
X151270000Y-96190000D02*
X153930000Y-96190000D01*
X151270000Y-101330000D02*
X153930000Y-101330000D01*
X153930000Y-96190000D02*
X153930000Y-101330000D01*
X156350000Y-93590000D02*
X157680000Y-93590000D01*
X156350000Y-94920000D02*
X156350000Y-93590000D01*
X156350000Y-96190000D02*
X156350000Y-101330000D01*
X156350000Y-96190000D02*
X159010000Y-96190000D01*
X156350000Y-101330000D02*
X159010000Y-101330000D01*
X159010000Y-96190000D02*
X159010000Y-101330000D01*
X153810000Y-93590000D02*
X155140000Y-93590000D01*
X153810000Y-94920000D02*
X153810000Y-93590000D01*
X153810000Y-96190000D02*
X153810000Y-101330000D01*
X153810000Y-96190000D02*
X156470000Y-96190000D01*
X153810000Y-101330000D02*
X156470000Y-101330000D01*
X156470000Y-96190000D02*
X156470000Y-101330000D01*
X171590000Y-93590000D02*
X172920000Y-93590000D01*
X171590000Y-94920000D02*
X171590000Y-93590000D01*
X171590000Y-96190000D02*
X171590000Y-101330000D01*
X171590000Y-96190000D02*
X174250000Y-96190000D01*
X171590000Y-101330000D02*
X174250000Y-101330000D01*
X174250000Y-96190000D02*
X174250000Y-101330000D01*
X158890000Y-93590000D02*
X160220000Y-93590000D01*
X158890000Y-94920000D02*
X158890000Y-93590000D01*
X158890000Y-96190000D02*
X158890000Y-101330000D01*
X158890000Y-96190000D02*
X161550000Y-96190000D01*
X158890000Y-101330000D02*
X161550000Y-101330000D01*
X161550000Y-96190000D02*
X161550000Y-101330000D01*
X169050000Y-93590000D02*
X170380000Y-93590000D01*
X169050000Y-94920000D02*
X169050000Y-93590000D01*
X169050000Y-96190000D02*
X169050000Y-101330000D01*
X169050000Y-96190000D02*
X171710000Y-96190000D01*
X169050000Y-101330000D02*
X171710000Y-101330000D01*
X171710000Y-96190000D02*
X171710000Y-101330000D01*
X166510000Y-93590000D02*
X167840000Y-93590000D01*
X166510000Y-94920000D02*
X166510000Y-93590000D01*
X166510000Y-96190000D02*
X166510000Y-101330000D01*
X166510000Y-96190000D02*
X169170000Y-96190000D01*
X166510000Y-101330000D02*
X169170000Y-101330000D01*
X169170000Y-96190000D02*
X169170000Y-101330000D01*
X163970000Y-93590000D02*
X165300000Y-93590000D01*
X163970000Y-94920000D02*
X163970000Y-93590000D01*
X163970000Y-96190000D02*
X163970000Y-101330000D01*
X163970000Y-96190000D02*
X166630000Y-96190000D01*
X163970000Y-101330000D02*
X166630000Y-101330000D01*
X166630000Y-96190000D02*
X166630000Y-101330000D01*
X151670000Y-75590000D02*
X153000000Y-75590000D01*
X151670000Y-76920000D02*
X151670000Y-75590000D01*
X151670000Y-78190000D02*
X151670000Y-83330000D01*
X151670000Y-78190000D02*
X154330000Y-78190000D01*
X151670000Y-83330000D02*
X154330000Y-83330000D01*
X154330000Y-78190000D02*
X154330000Y-83330000D01*
X156300000Y-68790001D02*
X174300000Y-68790001D01*
X156300000Y-92290001D02*
X156300000Y-68790001D01*
X156300000Y-92290001D02*
X174300000Y-92290001D01*
X160800000Y-68040001D02*
X169800000Y-68040001D01*
X160800000Y-68790001D02*
X160800000Y-68040001D01*
X169800000Y-68040001D02*
X169800000Y-68790001D01*
X174300000Y-92290001D02*
X174300000Y-68790001D01*
X151670000Y-66670000D02*
X153000000Y-66670000D01*
X151670000Y-68000000D02*
X151670000Y-66670000D01*
X151670000Y-69270000D02*
X151670000Y-74410000D01*
X151670000Y-69270000D02*
X154330000Y-69270000D01*
X151670000Y-74410000D02*
X154330000Y-74410000D01*
X154330000Y-69270000D02*
X154330000Y-74410000D01*
X151670000Y-84590000D02*
X153000000Y-84590000D01*
X151670000Y-85920000D02*
X151670000Y-84590000D01*
X151670000Y-87190000D02*
X151670000Y-92330000D01*
X151670000Y-87190000D02*
X154330000Y-87190000D01*
X151670000Y-92330000D02*
X154330000Y-92330000D01*
X154330000Y-87190000D02*
X154330000Y-92330000D01*
%LPC*%
D13*
X179000000Y-99500000D03*
X146500000Y-71000000D03*
X146500000Y-99500000D03*
X179000000Y-71000000D03*
D14*
X162760000Y-94920000D03*
D15*
X162760000Y-97460000D03*
X162760000Y-100000000D03*
D14*
X152600000Y-94920000D03*
D15*
X152600000Y-97460000D03*
X152600000Y-100000000D03*
D14*
X157680000Y-94920000D03*
D15*
X157680000Y-97460000D03*
X157680000Y-100000000D03*
D14*
X155140000Y-94920000D03*
D15*
X155140000Y-97460000D03*
X155140000Y-100000000D03*
D14*
X172920000Y-94920000D03*
D15*
X172920000Y-97460000D03*
X172920000Y-100000000D03*
D14*
X160220000Y-94920000D03*
D15*
X160220000Y-97460000D03*
X160220000Y-100000000D03*
D14*
X170380000Y-94920000D03*
D15*
X170380000Y-97460000D03*
X170380000Y-100000000D03*
D14*
X167840000Y-94920000D03*
D15*
X167840000Y-97460000D03*
X167840000Y-100000000D03*
D14*
X165300000Y-94920000D03*
D15*
X165300000Y-97460000D03*
X165300000Y-100000000D03*
D14*
X153000000Y-76920000D03*
D15*
X153000000Y-79460000D03*
X153000000Y-82000000D03*
D16*
X172920000Y-70380001D03*
X172920000Y-72920001D03*
X172920000Y-75460001D03*
X172920000Y-78000001D03*
X172920000Y-80540001D03*
X172920000Y-83080001D03*
X172920000Y-85620001D03*
X172920000Y-88160001D03*
X172920000Y-90700001D03*
X170380000Y-90700001D03*
X167840000Y-90700001D03*
X165300000Y-90700001D03*
X162760000Y-90700001D03*
X160220000Y-90700001D03*
X157680000Y-90700001D03*
X157680000Y-88160001D03*
X157680000Y-85620001D03*
X157680000Y-83080001D03*
X157680000Y-80540001D03*
X157680000Y-78000001D03*
X157680000Y-75460001D03*
X157680000Y-72920001D03*
X157680000Y-70380001D03*
D14*
X153000000Y-68000000D03*
D15*
X153000000Y-70540000D03*
X153000000Y-73080000D03*
D14*
X153000000Y-85920000D03*
D15*
X153000000Y-88460000D03*
X153000000Y-91000000D03*
%LPD*%
M02*
