M48
; DRILL file {KiCad (5.1.10)-1} date 02/22/22 13:09:24
; FORMAT={-:-/ absolute / metric / decimal}
; #@! TF.CreationDate,2022-02-22T13:09:24-08:00
; #@! TF.GenerationSoftware,Kicad,Pcbnew,(5.1.10)-1
; #@! TF.FileFunction,Plated,1,2,PTH
FMAT,2
METRIC
T1C0.762
T2C1.000
%
G90
G05
T1
X157.68Y-70.38
X157.68Y-72.92
X157.68Y-75.46
X157.68Y-78.0
X157.68Y-80.54
X157.68Y-83.08
X157.68Y-85.62
X157.68Y-88.16
X157.68Y-90.7
X160.22Y-90.7
X162.76Y-90.7
X165.3Y-90.7
X167.84Y-90.7
X170.38Y-90.7
X172.92Y-70.38
X172.92Y-72.92
X172.92Y-75.46
X172.92Y-78.0
X172.92Y-80.54
X172.92Y-83.08
X172.92Y-85.62
X172.92Y-88.16
X172.92Y-90.7
T2
X152.6Y-94.92
X152.6Y-97.46
X152.6Y-100.0
X153.0Y-70.52
X153.0Y-73.06
X153.0Y-75.6
X153.0Y-83.22
X153.0Y-85.76
X153.0Y-88.3
X155.14Y-94.92
X155.14Y-97.46
X155.14Y-100.0
X157.68Y-94.92
X157.68Y-97.46
X157.68Y-100.0
X160.22Y-94.92
X160.22Y-97.46
X160.22Y-100.0
X162.76Y-94.92
X162.76Y-97.46
X162.76Y-100.0
X165.3Y-94.92
X165.3Y-97.46
X165.3Y-100.0
X167.84Y-94.92
X167.84Y-97.46
X167.84Y-100.0
X170.38Y-94.92
X170.38Y-97.46
X170.38Y-100.0
X172.92Y-94.92
X172.92Y-97.46
X172.92Y-100.0
T0
M30
