G04 #@! TF.GenerationSoftware,KiCad,Pcbnew,(5.1.10)-1*
G04 #@! TF.CreationDate,2022-02-22T13:09:22-08:00*
G04 #@! TF.ProjectId,ros_sync_node,726f735f-7379-46e6-935f-6e6f64652e6b,rev?*
G04 #@! TF.SameCoordinates,Original*
G04 #@! TF.FileFunction,Copper,L1,Top*
G04 #@! TF.FilePolarity,Positive*
%FSLAX46Y46*%
G04 Gerber Fmt 4.6, Leading zero omitted, Abs format (unit mm)*
G04 Created by KiCad (PCBNEW (5.1.10)-1) date 2022-02-22 13:09:22*
%MOMM*%
%LPD*%
G01*
G04 APERTURE LIST*
G04 #@! TA.AperFunction,ComponentPad*
%ADD10O,1.700000X1.700000*%
G04 #@! TD*
G04 #@! TA.AperFunction,ComponentPad*
%ADD11R,1.700000X1.700000*%
G04 #@! TD*
G04 #@! TA.AperFunction,ComponentPad*
%ADD12C,1.524000*%
G04 #@! TD*
G04 #@! TA.AperFunction,Conductor*
%ADD13C,0.250000*%
G04 #@! TD*
G04 #@! TA.AperFunction,Conductor*
%ADD14C,0.500000*%
G04 #@! TD*
G04 #@! TA.AperFunction,Conductor*
%ADD15C,0.254000*%
G04 #@! TD*
G04 #@! TA.AperFunction,Conductor*
%ADD16C,0.100000*%
G04 #@! TD*
G04 APERTURE END LIST*
D10*
X153000000Y-88300000D03*
X153000000Y-85760000D03*
D11*
X153000000Y-83220000D03*
D10*
X153000000Y-75600000D03*
X153000000Y-73060000D03*
D11*
X153000000Y-70520000D03*
D12*
X172920000Y-75460001D03*
X172920000Y-78000001D03*
X172920000Y-80540001D03*
X172920000Y-83080001D03*
X172920000Y-85620001D03*
X172920000Y-88160001D03*
X172920000Y-90700001D03*
X170380000Y-90700001D03*
X172920000Y-70380001D03*
X172920000Y-72920001D03*
X167840000Y-90700001D03*
X165300000Y-90700001D03*
X162760000Y-90700001D03*
X160220000Y-90700001D03*
X157680000Y-90700001D03*
X157680000Y-88160001D03*
X157680000Y-85620001D03*
X157680000Y-83080001D03*
X157680000Y-80540001D03*
X157680000Y-78000001D03*
X157680000Y-75460001D03*
X157680000Y-72920001D03*
X157680000Y-70380001D03*
D10*
X167840000Y-100000000D03*
X167840000Y-97460000D03*
D11*
X167840000Y-94920000D03*
D10*
X162760000Y-100000000D03*
X162760000Y-97460000D03*
D11*
X162760000Y-94920000D03*
D10*
X157680000Y-100000000D03*
X157680000Y-97460000D03*
D11*
X157680000Y-94920000D03*
D10*
X170380000Y-100000000D03*
X170380000Y-97460000D03*
D11*
X170380000Y-94920000D03*
D10*
X160220000Y-100000000D03*
X160220000Y-97460000D03*
D11*
X160220000Y-94920000D03*
D10*
X155140000Y-100000000D03*
X155140000Y-97460000D03*
D11*
X155140000Y-94920000D03*
D10*
X172920000Y-100000000D03*
X172920000Y-97460000D03*
D11*
X172920000Y-94920000D03*
D10*
X165300000Y-100000000D03*
X165300000Y-97460000D03*
D11*
X165300000Y-94920000D03*
D10*
X152600000Y-100000000D03*
X152600000Y-97460000D03*
D11*
X152600000Y-94920000D03*
D13*
X158855001Y-96284999D02*
X157680000Y-97460000D01*
X158855001Y-92065000D02*
X158855001Y-96284999D01*
X160220000Y-90700001D02*
X158855001Y-92065000D01*
X152600000Y-97460000D02*
X157680000Y-97460000D01*
X160220000Y-97460000D02*
X165300000Y-97460000D01*
X166475001Y-91875002D02*
X165300000Y-90700001D01*
X166475001Y-96284999D02*
X166475001Y-91875002D01*
X165300000Y-97460000D02*
X166475001Y-96284999D01*
X172920000Y-97460000D02*
X170380000Y-97460000D01*
X167840000Y-97460000D02*
X169100000Y-96200000D01*
X170360000Y-97460000D02*
X170380000Y-97460000D01*
X169100000Y-96200000D02*
X170360000Y-97460000D01*
X169100000Y-91980001D02*
X170380000Y-90700001D01*
X169100000Y-96200000D02*
X169100000Y-91980001D01*
D14*
X152600000Y-85760000D02*
X154040000Y-85760000D01*
X154040000Y-85760000D02*
X155200000Y-84600000D01*
X156139999Y-75460001D02*
X157680000Y-75460001D01*
X155200000Y-76400000D02*
X156139999Y-75460001D01*
X155200000Y-84600000D02*
X155200000Y-76400000D01*
X155000001Y-73060000D02*
X157680000Y-70380001D01*
X152600000Y-73060000D02*
X155000001Y-73060000D01*
D15*
X152727000Y-99873000D02*
X155013000Y-99873000D01*
X155013000Y-99853000D01*
X155267000Y-99853000D01*
X155267000Y-99873000D01*
X157553000Y-99873000D01*
X157553000Y-99853000D01*
X157807000Y-99853000D01*
X157807000Y-99873000D01*
X160093000Y-99873000D01*
X160093000Y-99853000D01*
X160347000Y-99853000D01*
X160347000Y-99873000D01*
X162633000Y-99873000D01*
X162633000Y-99853000D01*
X162887000Y-99853000D01*
X162887000Y-99873000D01*
X165173000Y-99873000D01*
X165173000Y-99853000D01*
X165427000Y-99853000D01*
X165427000Y-99873000D01*
X167713000Y-99873000D01*
X167713000Y-99853000D01*
X167967000Y-99853000D01*
X167967000Y-99873000D01*
X170253000Y-99873000D01*
X170253000Y-99853000D01*
X170507000Y-99853000D01*
X170507000Y-99873000D01*
X172793000Y-99873000D01*
X172793000Y-99853000D01*
X173047000Y-99853000D01*
X173047000Y-99873000D01*
X173067000Y-99873000D01*
X173067000Y-100127000D01*
X173047000Y-100127000D01*
X173047000Y-101320814D01*
X173276891Y-101441481D01*
X173551252Y-101344157D01*
X173801355Y-101195178D01*
X174017588Y-101000269D01*
X174191641Y-100766920D01*
X174316825Y-100504099D01*
X174361476Y-100356890D01*
X174240156Y-100127002D01*
X174373000Y-100127002D01*
X174373000Y-103790000D01*
X151127000Y-103790000D01*
X151127000Y-100127002D01*
X151279844Y-100127002D01*
X151158524Y-100356890D01*
X151203175Y-100504099D01*
X151328359Y-100766920D01*
X151502412Y-101000269D01*
X151718645Y-101195178D01*
X151968748Y-101344157D01*
X152243109Y-101441481D01*
X152473000Y-101320814D01*
X152473000Y-100127000D01*
X152727000Y-100127000D01*
X152727000Y-101320814D01*
X152956891Y-101441481D01*
X153231252Y-101344157D01*
X153481355Y-101195178D01*
X153697588Y-101000269D01*
X153870000Y-100769120D01*
X154042412Y-101000269D01*
X154258645Y-101195178D01*
X154508748Y-101344157D01*
X154783109Y-101441481D01*
X155013000Y-101320814D01*
X155013000Y-100127000D01*
X155267000Y-100127000D01*
X155267000Y-101320814D01*
X155496891Y-101441481D01*
X155771252Y-101344157D01*
X156021355Y-101195178D01*
X156237588Y-101000269D01*
X156410000Y-100769120D01*
X156582412Y-101000269D01*
X156798645Y-101195178D01*
X157048748Y-101344157D01*
X157323109Y-101441481D01*
X157553000Y-101320814D01*
X157553000Y-100127000D01*
X157807000Y-100127000D01*
X157807000Y-101320814D01*
X158036891Y-101441481D01*
X158311252Y-101344157D01*
X158561355Y-101195178D01*
X158777588Y-101000269D01*
X158950000Y-100769120D01*
X159122412Y-101000269D01*
X159338645Y-101195178D01*
X159588748Y-101344157D01*
X159863109Y-101441481D01*
X160093000Y-101320814D01*
X160093000Y-100127000D01*
X160347000Y-100127000D01*
X160347000Y-101320814D01*
X160576891Y-101441481D01*
X160851252Y-101344157D01*
X161101355Y-101195178D01*
X161317588Y-101000269D01*
X161490000Y-100769120D01*
X161662412Y-101000269D01*
X161878645Y-101195178D01*
X162128748Y-101344157D01*
X162403109Y-101441481D01*
X162633000Y-101320814D01*
X162633000Y-100127000D01*
X162887000Y-100127000D01*
X162887000Y-101320814D01*
X163116891Y-101441481D01*
X163391252Y-101344157D01*
X163641355Y-101195178D01*
X163857588Y-101000269D01*
X164030000Y-100769120D01*
X164202412Y-101000269D01*
X164418645Y-101195178D01*
X164668748Y-101344157D01*
X164943109Y-101441481D01*
X165173000Y-101320814D01*
X165173000Y-100127000D01*
X165427000Y-100127000D01*
X165427000Y-101320814D01*
X165656891Y-101441481D01*
X165931252Y-101344157D01*
X166181355Y-101195178D01*
X166397588Y-101000269D01*
X166570000Y-100769120D01*
X166742412Y-101000269D01*
X166958645Y-101195178D01*
X167208748Y-101344157D01*
X167483109Y-101441481D01*
X167713000Y-101320814D01*
X167713000Y-100127000D01*
X167967000Y-100127000D01*
X167967000Y-101320814D01*
X168196891Y-101441481D01*
X168471252Y-101344157D01*
X168721355Y-101195178D01*
X168937588Y-101000269D01*
X169110000Y-100769120D01*
X169282412Y-101000269D01*
X169498645Y-101195178D01*
X169748748Y-101344157D01*
X170023109Y-101441481D01*
X170253000Y-101320814D01*
X170253000Y-100127000D01*
X170507000Y-100127000D01*
X170507000Y-101320814D01*
X170736891Y-101441481D01*
X171011252Y-101344157D01*
X171261355Y-101195178D01*
X171477588Y-101000269D01*
X171650000Y-100769120D01*
X171822412Y-101000269D01*
X172038645Y-101195178D01*
X172288748Y-101344157D01*
X172563109Y-101441481D01*
X172793000Y-101320814D01*
X172793000Y-100127000D01*
X170507000Y-100127000D01*
X170253000Y-100127000D01*
X167967000Y-100127000D01*
X167713000Y-100127000D01*
X165427000Y-100127000D01*
X165173000Y-100127000D01*
X162887000Y-100127000D01*
X162633000Y-100127000D01*
X160347000Y-100127000D01*
X160093000Y-100127000D01*
X157807000Y-100127000D01*
X157553000Y-100127000D01*
X155267000Y-100127000D01*
X155013000Y-100127000D01*
X152727000Y-100127000D01*
X152473000Y-100127000D01*
X152453000Y-100127000D01*
X152453000Y-99873000D01*
X152473000Y-99873000D01*
X152473000Y-99853000D01*
X152727000Y-99853000D01*
X152727000Y-99873000D01*
G04 #@! TA.AperFunction,Conductor*
D16*
G36*
X152727000Y-99873000D02*
G01*
X155013000Y-99873000D01*
X155013000Y-99853000D01*
X155267000Y-99853000D01*
X155267000Y-99873000D01*
X157553000Y-99873000D01*
X157553000Y-99853000D01*
X157807000Y-99853000D01*
X157807000Y-99873000D01*
X160093000Y-99873000D01*
X160093000Y-99853000D01*
X160347000Y-99853000D01*
X160347000Y-99873000D01*
X162633000Y-99873000D01*
X162633000Y-99853000D01*
X162887000Y-99853000D01*
X162887000Y-99873000D01*
X165173000Y-99873000D01*
X165173000Y-99853000D01*
X165427000Y-99853000D01*
X165427000Y-99873000D01*
X167713000Y-99873000D01*
X167713000Y-99853000D01*
X167967000Y-99853000D01*
X167967000Y-99873000D01*
X170253000Y-99873000D01*
X170253000Y-99853000D01*
X170507000Y-99853000D01*
X170507000Y-99873000D01*
X172793000Y-99873000D01*
X172793000Y-99853000D01*
X173047000Y-99853000D01*
X173047000Y-99873000D01*
X173067000Y-99873000D01*
X173067000Y-100127000D01*
X173047000Y-100127000D01*
X173047000Y-101320814D01*
X173276891Y-101441481D01*
X173551252Y-101344157D01*
X173801355Y-101195178D01*
X174017588Y-101000269D01*
X174191641Y-100766920D01*
X174316825Y-100504099D01*
X174361476Y-100356890D01*
X174240156Y-100127002D01*
X174373000Y-100127002D01*
X174373000Y-103790000D01*
X151127000Y-103790000D01*
X151127000Y-100127002D01*
X151279844Y-100127002D01*
X151158524Y-100356890D01*
X151203175Y-100504099D01*
X151328359Y-100766920D01*
X151502412Y-101000269D01*
X151718645Y-101195178D01*
X151968748Y-101344157D01*
X152243109Y-101441481D01*
X152473000Y-101320814D01*
X152473000Y-100127000D01*
X152727000Y-100127000D01*
X152727000Y-101320814D01*
X152956891Y-101441481D01*
X153231252Y-101344157D01*
X153481355Y-101195178D01*
X153697588Y-101000269D01*
X153870000Y-100769120D01*
X154042412Y-101000269D01*
X154258645Y-101195178D01*
X154508748Y-101344157D01*
X154783109Y-101441481D01*
X155013000Y-101320814D01*
X155013000Y-100127000D01*
X155267000Y-100127000D01*
X155267000Y-101320814D01*
X155496891Y-101441481D01*
X155771252Y-101344157D01*
X156021355Y-101195178D01*
X156237588Y-101000269D01*
X156410000Y-100769120D01*
X156582412Y-101000269D01*
X156798645Y-101195178D01*
X157048748Y-101344157D01*
X157323109Y-101441481D01*
X157553000Y-101320814D01*
X157553000Y-100127000D01*
X157807000Y-100127000D01*
X157807000Y-101320814D01*
X158036891Y-101441481D01*
X158311252Y-101344157D01*
X158561355Y-101195178D01*
X158777588Y-101000269D01*
X158950000Y-100769120D01*
X159122412Y-101000269D01*
X159338645Y-101195178D01*
X159588748Y-101344157D01*
X159863109Y-101441481D01*
X160093000Y-101320814D01*
X160093000Y-100127000D01*
X160347000Y-100127000D01*
X160347000Y-101320814D01*
X160576891Y-101441481D01*
X160851252Y-101344157D01*
X161101355Y-101195178D01*
X161317588Y-101000269D01*
X161490000Y-100769120D01*
X161662412Y-101000269D01*
X161878645Y-101195178D01*
X162128748Y-101344157D01*
X162403109Y-101441481D01*
X162633000Y-101320814D01*
X162633000Y-100127000D01*
X162887000Y-100127000D01*
X162887000Y-101320814D01*
X163116891Y-101441481D01*
X163391252Y-101344157D01*
X163641355Y-101195178D01*
X163857588Y-101000269D01*
X164030000Y-100769120D01*
X164202412Y-101000269D01*
X164418645Y-101195178D01*
X164668748Y-101344157D01*
X164943109Y-101441481D01*
X165173000Y-101320814D01*
X165173000Y-100127000D01*
X165427000Y-100127000D01*
X165427000Y-101320814D01*
X165656891Y-101441481D01*
X165931252Y-101344157D01*
X166181355Y-101195178D01*
X166397588Y-101000269D01*
X166570000Y-100769120D01*
X166742412Y-101000269D01*
X166958645Y-101195178D01*
X167208748Y-101344157D01*
X167483109Y-101441481D01*
X167713000Y-101320814D01*
X167713000Y-100127000D01*
X167967000Y-100127000D01*
X167967000Y-101320814D01*
X168196891Y-101441481D01*
X168471252Y-101344157D01*
X168721355Y-101195178D01*
X168937588Y-101000269D01*
X169110000Y-100769120D01*
X169282412Y-101000269D01*
X169498645Y-101195178D01*
X169748748Y-101344157D01*
X170023109Y-101441481D01*
X170253000Y-101320814D01*
X170253000Y-100127000D01*
X170507000Y-100127000D01*
X170507000Y-101320814D01*
X170736891Y-101441481D01*
X171011252Y-101344157D01*
X171261355Y-101195178D01*
X171477588Y-101000269D01*
X171650000Y-100769120D01*
X171822412Y-101000269D01*
X172038645Y-101195178D01*
X172288748Y-101344157D01*
X172563109Y-101441481D01*
X172793000Y-101320814D01*
X172793000Y-100127000D01*
X170507000Y-100127000D01*
X170253000Y-100127000D01*
X167967000Y-100127000D01*
X167713000Y-100127000D01*
X165427000Y-100127000D01*
X165173000Y-100127000D01*
X162887000Y-100127000D01*
X162633000Y-100127000D01*
X160347000Y-100127000D01*
X160093000Y-100127000D01*
X157807000Y-100127000D01*
X157553000Y-100127000D01*
X155267000Y-100127000D01*
X155013000Y-100127000D01*
X152727000Y-100127000D01*
X152473000Y-100127000D01*
X152453000Y-100127000D01*
X152453000Y-99873000D01*
X152473000Y-99873000D01*
X152473000Y-99853000D01*
X152727000Y-99853000D01*
X152727000Y-99873000D01*
G37*
G04 #@! TD.AperFunction*
D15*
X174373000Y-93870317D02*
X174359502Y-93825820D01*
X174300537Y-93715506D01*
X174221185Y-93618815D01*
X174124494Y-93539463D01*
X174014180Y-93480498D01*
X173894482Y-93444188D01*
X173770000Y-93431928D01*
X173205750Y-93435000D01*
X173047000Y-93593750D01*
X173047000Y-94793000D01*
X173067000Y-94793000D01*
X173067000Y-95047000D01*
X173047000Y-95047000D01*
X173047000Y-95067000D01*
X172793000Y-95067000D01*
X172793000Y-95047000D01*
X170507000Y-95047000D01*
X170507000Y-95067000D01*
X170253000Y-95067000D01*
X170253000Y-95047000D01*
X170233000Y-95047000D01*
X170233000Y-94793000D01*
X170253000Y-94793000D01*
X170253000Y-93593750D01*
X170507000Y-93593750D01*
X170507000Y-94793000D01*
X172793000Y-94793000D01*
X172793000Y-93593750D01*
X172634250Y-93435000D01*
X172070000Y-93431928D01*
X171945518Y-93444188D01*
X171825820Y-93480498D01*
X171715506Y-93539463D01*
X171650000Y-93593222D01*
X171584494Y-93539463D01*
X171474180Y-93480498D01*
X171354482Y-93444188D01*
X171230000Y-93431928D01*
X170665750Y-93435000D01*
X170507000Y-93593750D01*
X170253000Y-93593750D01*
X170094250Y-93435000D01*
X169860000Y-93433725D01*
X169860000Y-92294802D01*
X170088430Y-92066373D01*
X170242408Y-92097001D01*
X170517592Y-92097001D01*
X170787490Y-92043315D01*
X171041727Y-91938006D01*
X171270535Y-91785121D01*
X171465120Y-91590536D01*
X171618005Y-91361728D01*
X171650000Y-91284486D01*
X171681995Y-91361728D01*
X171834880Y-91590536D01*
X172029465Y-91785121D01*
X172258273Y-91938006D01*
X172512510Y-92043315D01*
X172782408Y-92097001D01*
X173057592Y-92097001D01*
X173327490Y-92043315D01*
X173581727Y-91938006D01*
X173810535Y-91785121D01*
X174005120Y-91590536D01*
X174158005Y-91361728D01*
X174263314Y-91107491D01*
X174317000Y-90837593D01*
X174317000Y-90562409D01*
X174263314Y-90292511D01*
X174158005Y-90038274D01*
X174005120Y-89809466D01*
X173810535Y-89614881D01*
X173581727Y-89461996D01*
X173504485Y-89430001D01*
X173581727Y-89398006D01*
X173810535Y-89245121D01*
X174005120Y-89050536D01*
X174158005Y-88821728D01*
X174263314Y-88567491D01*
X174317000Y-88297593D01*
X174317000Y-88022409D01*
X174263314Y-87752511D01*
X174158005Y-87498274D01*
X174005120Y-87269466D01*
X173810535Y-87074881D01*
X173581727Y-86921996D01*
X173504485Y-86890001D01*
X173581727Y-86858006D01*
X173810535Y-86705121D01*
X174005120Y-86510536D01*
X174158005Y-86281728D01*
X174263314Y-86027491D01*
X174317000Y-85757593D01*
X174317000Y-85482409D01*
X174263314Y-85212511D01*
X174158005Y-84958274D01*
X174005120Y-84729466D01*
X173810535Y-84534881D01*
X173581727Y-84381996D01*
X173504485Y-84350001D01*
X173581727Y-84318006D01*
X173810535Y-84165121D01*
X174005120Y-83970536D01*
X174158005Y-83741728D01*
X174263314Y-83487491D01*
X174317000Y-83217593D01*
X174317000Y-82942409D01*
X174263314Y-82672511D01*
X174158005Y-82418274D01*
X174005120Y-82189466D01*
X173810535Y-81994881D01*
X173581727Y-81841996D01*
X173504485Y-81810001D01*
X173581727Y-81778006D01*
X173810535Y-81625121D01*
X174005120Y-81430536D01*
X174158005Y-81201728D01*
X174263314Y-80947491D01*
X174317000Y-80677593D01*
X174317000Y-80402409D01*
X174263314Y-80132511D01*
X174158005Y-79878274D01*
X174005120Y-79649466D01*
X173810535Y-79454881D01*
X173581727Y-79301996D01*
X173504485Y-79270001D01*
X173581727Y-79238006D01*
X173810535Y-79085121D01*
X174005120Y-78890536D01*
X174158005Y-78661728D01*
X174263314Y-78407491D01*
X174317000Y-78137593D01*
X174317000Y-77862409D01*
X174263314Y-77592511D01*
X174158005Y-77338274D01*
X174005120Y-77109466D01*
X173810535Y-76914881D01*
X173581727Y-76761996D01*
X173504485Y-76730001D01*
X173581727Y-76698006D01*
X173810535Y-76545121D01*
X174005120Y-76350536D01*
X174158005Y-76121728D01*
X174263314Y-75867491D01*
X174317000Y-75597593D01*
X174317000Y-75322409D01*
X174263314Y-75052511D01*
X174158005Y-74798274D01*
X174005120Y-74569466D01*
X173810535Y-74374881D01*
X173581727Y-74221996D01*
X173504485Y-74190001D01*
X173581727Y-74158006D01*
X173810535Y-74005121D01*
X174005120Y-73810536D01*
X174158005Y-73581728D01*
X174263314Y-73327491D01*
X174317000Y-73057593D01*
X174317000Y-72782409D01*
X174263314Y-72512511D01*
X174158005Y-72258274D01*
X174005120Y-72029466D01*
X173810535Y-71834881D01*
X173581727Y-71681996D01*
X173504485Y-71650001D01*
X173581727Y-71618006D01*
X173810535Y-71465121D01*
X174005120Y-71270536D01*
X174158005Y-71041728D01*
X174263314Y-70787491D01*
X174317000Y-70517593D01*
X174317000Y-70242409D01*
X174263314Y-69972511D01*
X174158005Y-69718274D01*
X174005120Y-69489466D01*
X173810535Y-69294881D01*
X173581727Y-69141996D01*
X173327490Y-69036687D01*
X173057592Y-68983001D01*
X172782408Y-68983001D01*
X172512510Y-69036687D01*
X172258273Y-69141996D01*
X172029465Y-69294881D01*
X171834880Y-69489466D01*
X171681995Y-69718274D01*
X171576686Y-69972511D01*
X171523000Y-70242409D01*
X171523000Y-70517593D01*
X171576686Y-70787491D01*
X171681995Y-71041728D01*
X171834880Y-71270536D01*
X172029465Y-71465121D01*
X172258273Y-71618006D01*
X172335515Y-71650001D01*
X172258273Y-71681996D01*
X172029465Y-71834881D01*
X171834880Y-72029466D01*
X171681995Y-72258274D01*
X171576686Y-72512511D01*
X171523000Y-72782409D01*
X171523000Y-73057593D01*
X171576686Y-73327491D01*
X171681995Y-73581728D01*
X171834880Y-73810536D01*
X172029465Y-74005121D01*
X172258273Y-74158006D01*
X172335515Y-74190001D01*
X172258273Y-74221996D01*
X172029465Y-74374881D01*
X171834880Y-74569466D01*
X171681995Y-74798274D01*
X171576686Y-75052511D01*
X171523000Y-75322409D01*
X171523000Y-75597593D01*
X171576686Y-75867491D01*
X171681995Y-76121728D01*
X171834880Y-76350536D01*
X172029465Y-76545121D01*
X172258273Y-76698006D01*
X172335515Y-76730001D01*
X172258273Y-76761996D01*
X172029465Y-76914881D01*
X171834880Y-77109466D01*
X171681995Y-77338274D01*
X171576686Y-77592511D01*
X171523000Y-77862409D01*
X171523000Y-78137593D01*
X171576686Y-78407491D01*
X171681995Y-78661728D01*
X171834880Y-78890536D01*
X172029465Y-79085121D01*
X172258273Y-79238006D01*
X172335515Y-79270001D01*
X172258273Y-79301996D01*
X172029465Y-79454881D01*
X171834880Y-79649466D01*
X171681995Y-79878274D01*
X171576686Y-80132511D01*
X171523000Y-80402409D01*
X171523000Y-80677593D01*
X171576686Y-80947491D01*
X171681995Y-81201728D01*
X171834880Y-81430536D01*
X172029465Y-81625121D01*
X172258273Y-81778006D01*
X172335515Y-81810001D01*
X172258273Y-81841996D01*
X172029465Y-81994881D01*
X171834880Y-82189466D01*
X171681995Y-82418274D01*
X171576686Y-82672511D01*
X171523000Y-82942409D01*
X171523000Y-83217593D01*
X171576686Y-83487491D01*
X171681995Y-83741728D01*
X171834880Y-83970536D01*
X172029465Y-84165121D01*
X172258273Y-84318006D01*
X172335515Y-84350001D01*
X172258273Y-84381996D01*
X172029465Y-84534881D01*
X171834880Y-84729466D01*
X171681995Y-84958274D01*
X171576686Y-85212511D01*
X171523000Y-85482409D01*
X171523000Y-85757593D01*
X171576686Y-86027491D01*
X171681995Y-86281728D01*
X171834880Y-86510536D01*
X172029465Y-86705121D01*
X172258273Y-86858006D01*
X172335515Y-86890001D01*
X172258273Y-86921996D01*
X172029465Y-87074881D01*
X171834880Y-87269466D01*
X171681995Y-87498274D01*
X171576686Y-87752511D01*
X171523000Y-88022409D01*
X171523000Y-88297593D01*
X171576686Y-88567491D01*
X171681995Y-88821728D01*
X171834880Y-89050536D01*
X172029465Y-89245121D01*
X172258273Y-89398006D01*
X172335515Y-89430001D01*
X172258273Y-89461996D01*
X172029465Y-89614881D01*
X171834880Y-89809466D01*
X171681995Y-90038274D01*
X171650000Y-90115516D01*
X171618005Y-90038274D01*
X171465120Y-89809466D01*
X171270535Y-89614881D01*
X171041727Y-89461996D01*
X170787490Y-89356687D01*
X170517592Y-89303001D01*
X170242408Y-89303001D01*
X169972510Y-89356687D01*
X169718273Y-89461996D01*
X169489465Y-89614881D01*
X169294880Y-89809466D01*
X169141995Y-90038274D01*
X169110000Y-90115516D01*
X169078005Y-90038274D01*
X168925120Y-89809466D01*
X168730535Y-89614881D01*
X168501727Y-89461996D01*
X168247490Y-89356687D01*
X167977592Y-89303001D01*
X167702408Y-89303001D01*
X167432510Y-89356687D01*
X167178273Y-89461996D01*
X166949465Y-89614881D01*
X166754880Y-89809466D01*
X166601995Y-90038274D01*
X166570000Y-90115516D01*
X166538005Y-90038274D01*
X166385120Y-89809466D01*
X166190535Y-89614881D01*
X165961727Y-89461996D01*
X165707490Y-89356687D01*
X165437592Y-89303001D01*
X165162408Y-89303001D01*
X164892510Y-89356687D01*
X164638273Y-89461996D01*
X164409465Y-89614881D01*
X164214880Y-89809466D01*
X164061995Y-90038274D01*
X164030000Y-90115516D01*
X163998005Y-90038274D01*
X163845120Y-89809466D01*
X163650535Y-89614881D01*
X163421727Y-89461996D01*
X163167490Y-89356687D01*
X162897592Y-89303001D01*
X162622408Y-89303001D01*
X162352510Y-89356687D01*
X162098273Y-89461996D01*
X161869465Y-89614881D01*
X161674880Y-89809466D01*
X161521995Y-90038274D01*
X161490000Y-90115516D01*
X161458005Y-90038274D01*
X161305120Y-89809466D01*
X161110535Y-89614881D01*
X160881727Y-89461996D01*
X160627490Y-89356687D01*
X160357592Y-89303001D01*
X160082408Y-89303001D01*
X159812510Y-89356687D01*
X159558273Y-89461996D01*
X159329465Y-89614881D01*
X159134880Y-89809466D01*
X158981995Y-90038274D01*
X158950000Y-90115516D01*
X158918005Y-90038274D01*
X158765120Y-89809466D01*
X158570535Y-89614881D01*
X158341727Y-89461996D01*
X158264485Y-89430001D01*
X158341727Y-89398006D01*
X158570535Y-89245121D01*
X158765120Y-89050536D01*
X158918005Y-88821728D01*
X159023314Y-88567491D01*
X159077000Y-88297593D01*
X159077000Y-88022409D01*
X159023314Y-87752511D01*
X158918005Y-87498274D01*
X158765120Y-87269466D01*
X158570535Y-87074881D01*
X158341727Y-86921996D01*
X158264485Y-86890001D01*
X158341727Y-86858006D01*
X158570535Y-86705121D01*
X158765120Y-86510536D01*
X158918005Y-86281728D01*
X159023314Y-86027491D01*
X159077000Y-85757593D01*
X159077000Y-85482409D01*
X159023314Y-85212511D01*
X158918005Y-84958274D01*
X158765120Y-84729466D01*
X158570535Y-84534881D01*
X158341727Y-84381996D01*
X158264485Y-84350001D01*
X158341727Y-84318006D01*
X158570535Y-84165121D01*
X158765120Y-83970536D01*
X158918005Y-83741728D01*
X159023314Y-83487491D01*
X159077000Y-83217593D01*
X159077000Y-82942409D01*
X159023314Y-82672511D01*
X158918005Y-82418274D01*
X158765120Y-82189466D01*
X158570535Y-81994881D01*
X158341727Y-81841996D01*
X158264485Y-81810001D01*
X158341727Y-81778006D01*
X158570535Y-81625121D01*
X158765120Y-81430536D01*
X158918005Y-81201728D01*
X159023314Y-80947491D01*
X159077000Y-80677593D01*
X159077000Y-80402409D01*
X159023314Y-80132511D01*
X158918005Y-79878274D01*
X158765120Y-79649466D01*
X158570535Y-79454881D01*
X158341727Y-79301996D01*
X158264485Y-79270001D01*
X158341727Y-79238006D01*
X158570535Y-79085121D01*
X158765120Y-78890536D01*
X158918005Y-78661728D01*
X159023314Y-78407491D01*
X159077000Y-78137593D01*
X159077000Y-77862409D01*
X159023314Y-77592511D01*
X158918005Y-77338274D01*
X158765120Y-77109466D01*
X158570535Y-76914881D01*
X158341727Y-76761996D01*
X158264485Y-76730001D01*
X158341727Y-76698006D01*
X158570535Y-76545121D01*
X158765120Y-76350536D01*
X158918005Y-76121728D01*
X159023314Y-75867491D01*
X159077000Y-75597593D01*
X159077000Y-75322409D01*
X159023314Y-75052511D01*
X158918005Y-74798274D01*
X158765120Y-74569466D01*
X158570535Y-74374881D01*
X158341727Y-74221996D01*
X158270057Y-74192309D01*
X158283023Y-74187637D01*
X158398980Y-74125657D01*
X158465960Y-73885566D01*
X157680000Y-73099606D01*
X156894040Y-73885566D01*
X156961020Y-74125657D01*
X157096760Y-74189486D01*
X157018273Y-74221996D01*
X156789465Y-74374881D01*
X156594880Y-74569466D01*
X156591182Y-74575001D01*
X156183464Y-74575001D01*
X156139998Y-74570720D01*
X156096532Y-74575001D01*
X156096522Y-74575001D01*
X155966509Y-74587806D01*
X155799686Y-74638412D01*
X155645940Y-74720590D01*
X155645938Y-74720591D01*
X155645939Y-74720591D01*
X155544952Y-74803469D01*
X155544950Y-74803471D01*
X155511182Y-74831184D01*
X155483469Y-74864952D01*
X154604951Y-75743471D01*
X154571184Y-75771183D01*
X154543471Y-75804951D01*
X154543468Y-75804954D01*
X154460590Y-75905941D01*
X154437443Y-75949247D01*
X154320155Y-75727000D01*
X153127000Y-75727000D01*
X153127000Y-76920814D01*
X153356891Y-77041481D01*
X153631252Y-76944157D01*
X153881355Y-76795178D01*
X154097588Y-76600269D01*
X154271641Y-76366920D01*
X154325012Y-76254868D01*
X154310719Y-76400000D01*
X154315001Y-76443479D01*
X154315000Y-81935649D01*
X154301185Y-81918815D01*
X154204494Y-81839463D01*
X154094180Y-81780498D01*
X153974482Y-81744188D01*
X153850000Y-81731928D01*
X153285750Y-81735000D01*
X153127000Y-81893750D01*
X153127000Y-83093000D01*
X153147000Y-83093000D01*
X153147000Y-83347000D01*
X153127000Y-83347000D01*
X153127000Y-83367000D01*
X152873000Y-83367000D01*
X152873000Y-83347000D01*
X151673750Y-83347000D01*
X151515000Y-83505750D01*
X151511928Y-84070000D01*
X151524188Y-84194482D01*
X151560498Y-84314180D01*
X151619463Y-84424494D01*
X151698815Y-84521185D01*
X151795506Y-84600537D01*
X151905820Y-84659502D01*
X151978380Y-84681513D01*
X151846525Y-84813368D01*
X151684010Y-85056589D01*
X151572068Y-85326842D01*
X151515000Y-85613740D01*
X151515000Y-85906260D01*
X151572068Y-86193158D01*
X151684010Y-86463411D01*
X151846525Y-86706632D01*
X152053368Y-86913475D01*
X152235534Y-87035195D01*
X152118645Y-87104822D01*
X151902412Y-87299731D01*
X151728359Y-87533080D01*
X151603175Y-87795901D01*
X151558524Y-87943110D01*
X151679845Y-88173000D01*
X152873000Y-88173000D01*
X152873000Y-88153000D01*
X153127000Y-88153000D01*
X153127000Y-88173000D01*
X154320155Y-88173000D01*
X154441476Y-87943110D01*
X154396825Y-87795901D01*
X154271641Y-87533080D01*
X154097588Y-87299731D01*
X153881355Y-87104822D01*
X153764466Y-87035195D01*
X153946632Y-86913475D01*
X154153475Y-86706632D01*
X154202488Y-86633279D01*
X154213490Y-86632195D01*
X154380313Y-86581589D01*
X154534059Y-86499411D01*
X154668817Y-86388817D01*
X154696534Y-86355044D01*
X155795050Y-85256529D01*
X155828817Y-85228817D01*
X155881229Y-85164954D01*
X155939411Y-85094059D01*
X155978681Y-85020589D01*
X156021589Y-84940313D01*
X156072195Y-84773490D01*
X156085000Y-84643477D01*
X156085000Y-84643469D01*
X156089281Y-84600000D01*
X156085000Y-84556531D01*
X156085000Y-76766578D01*
X156506578Y-76345001D01*
X156591182Y-76345001D01*
X156594880Y-76350536D01*
X156789465Y-76545121D01*
X157018273Y-76698006D01*
X157095515Y-76730001D01*
X157018273Y-76761996D01*
X156789465Y-76914881D01*
X156594880Y-77109466D01*
X156441995Y-77338274D01*
X156336686Y-77592511D01*
X156283000Y-77862409D01*
X156283000Y-78137593D01*
X156336686Y-78407491D01*
X156441995Y-78661728D01*
X156594880Y-78890536D01*
X156789465Y-79085121D01*
X157018273Y-79238006D01*
X157095515Y-79270001D01*
X157018273Y-79301996D01*
X156789465Y-79454881D01*
X156594880Y-79649466D01*
X156441995Y-79878274D01*
X156336686Y-80132511D01*
X156283000Y-80402409D01*
X156283000Y-80677593D01*
X156336686Y-80947491D01*
X156441995Y-81201728D01*
X156594880Y-81430536D01*
X156789465Y-81625121D01*
X157018273Y-81778006D01*
X157095515Y-81810001D01*
X157018273Y-81841996D01*
X156789465Y-81994881D01*
X156594880Y-82189466D01*
X156441995Y-82418274D01*
X156336686Y-82672511D01*
X156283000Y-82942409D01*
X156283000Y-83217593D01*
X156336686Y-83487491D01*
X156441995Y-83741728D01*
X156594880Y-83970536D01*
X156789465Y-84165121D01*
X157018273Y-84318006D01*
X157095515Y-84350001D01*
X157018273Y-84381996D01*
X156789465Y-84534881D01*
X156594880Y-84729466D01*
X156441995Y-84958274D01*
X156336686Y-85212511D01*
X156283000Y-85482409D01*
X156283000Y-85757593D01*
X156336686Y-86027491D01*
X156441995Y-86281728D01*
X156594880Y-86510536D01*
X156789465Y-86705121D01*
X157018273Y-86858006D01*
X157095515Y-86890001D01*
X157018273Y-86921996D01*
X156789465Y-87074881D01*
X156594880Y-87269466D01*
X156441995Y-87498274D01*
X156336686Y-87752511D01*
X156283000Y-88022409D01*
X156283000Y-88297593D01*
X156336686Y-88567491D01*
X156441995Y-88821728D01*
X156594880Y-89050536D01*
X156789465Y-89245121D01*
X157018273Y-89398006D01*
X157095515Y-89430001D01*
X157018273Y-89461996D01*
X156789465Y-89614881D01*
X156594880Y-89809466D01*
X156441995Y-90038274D01*
X156336686Y-90292511D01*
X156283000Y-90562409D01*
X156283000Y-90837593D01*
X156336686Y-91107491D01*
X156441995Y-91361728D01*
X156594880Y-91590536D01*
X156789465Y-91785121D01*
X157018273Y-91938006D01*
X157272510Y-92043315D01*
X157542408Y-92097001D01*
X157817592Y-92097001D01*
X158087490Y-92043315D01*
X158093715Y-92040737D01*
X158091325Y-92065000D01*
X158095001Y-92102323D01*
X158095001Y-93434296D01*
X157965750Y-93435000D01*
X157807000Y-93593750D01*
X157807000Y-94793000D01*
X157827000Y-94793000D01*
X157827000Y-95047000D01*
X157807000Y-95047000D01*
X157807000Y-95067000D01*
X157553000Y-95067000D01*
X157553000Y-95047000D01*
X155267000Y-95047000D01*
X155267000Y-95067000D01*
X155013000Y-95067000D01*
X155013000Y-95047000D01*
X152727000Y-95047000D01*
X152727000Y-95067000D01*
X152473000Y-95067000D01*
X152473000Y-95047000D01*
X152453000Y-95047000D01*
X152453000Y-94793000D01*
X152473000Y-94793000D01*
X152473000Y-93593750D01*
X152727000Y-93593750D01*
X152727000Y-94793000D01*
X155013000Y-94793000D01*
X155013000Y-93593750D01*
X155267000Y-93593750D01*
X155267000Y-94793000D01*
X157553000Y-94793000D01*
X157553000Y-93593750D01*
X157394250Y-93435000D01*
X156830000Y-93431928D01*
X156705518Y-93444188D01*
X156585820Y-93480498D01*
X156475506Y-93539463D01*
X156410000Y-93593222D01*
X156344494Y-93539463D01*
X156234180Y-93480498D01*
X156114482Y-93444188D01*
X155990000Y-93431928D01*
X155425750Y-93435000D01*
X155267000Y-93593750D01*
X155013000Y-93593750D01*
X154854250Y-93435000D01*
X154290000Y-93431928D01*
X154165518Y-93444188D01*
X154045820Y-93480498D01*
X153935506Y-93539463D01*
X153870000Y-93593222D01*
X153804494Y-93539463D01*
X153694180Y-93480498D01*
X153574482Y-93444188D01*
X153450000Y-93431928D01*
X152885750Y-93435000D01*
X152727000Y-93593750D01*
X152473000Y-93593750D01*
X152314250Y-93435000D01*
X151750000Y-93431928D01*
X151625518Y-93444188D01*
X151505820Y-93480498D01*
X151395506Y-93539463D01*
X151298815Y-93618815D01*
X151219463Y-93715506D01*
X151160498Y-93825820D01*
X151127000Y-93936248D01*
X151127000Y-88656890D01*
X151558524Y-88656890D01*
X151603175Y-88804099D01*
X151728359Y-89066920D01*
X151902412Y-89300269D01*
X152118645Y-89495178D01*
X152368748Y-89644157D01*
X152643109Y-89741481D01*
X152873000Y-89620814D01*
X152873000Y-88427000D01*
X153127000Y-88427000D01*
X153127000Y-89620814D01*
X153356891Y-89741481D01*
X153631252Y-89644157D01*
X153881355Y-89495178D01*
X154097588Y-89300269D01*
X154271641Y-89066920D01*
X154396825Y-88804099D01*
X154441476Y-88656890D01*
X154320155Y-88427000D01*
X153127000Y-88427000D01*
X152873000Y-88427000D01*
X151679845Y-88427000D01*
X151558524Y-88656890D01*
X151127000Y-88656890D01*
X151127000Y-82370000D01*
X151511928Y-82370000D01*
X151515000Y-82934250D01*
X151673750Y-83093000D01*
X152873000Y-83093000D01*
X152873000Y-81893750D01*
X152714250Y-81735000D01*
X152150000Y-81731928D01*
X152025518Y-81744188D01*
X151905820Y-81780498D01*
X151795506Y-81839463D01*
X151698815Y-81918815D01*
X151619463Y-82015506D01*
X151560498Y-82125820D01*
X151524188Y-82245518D01*
X151511928Y-82370000D01*
X151127000Y-82370000D01*
X151127000Y-75956890D01*
X151558524Y-75956890D01*
X151603175Y-76104099D01*
X151728359Y-76366920D01*
X151902412Y-76600269D01*
X152118645Y-76795178D01*
X152368748Y-76944157D01*
X152643109Y-77041481D01*
X152873000Y-76920814D01*
X152873000Y-75727000D01*
X151679845Y-75727000D01*
X151558524Y-75956890D01*
X151127000Y-75956890D01*
X151127000Y-71370000D01*
X151511928Y-71370000D01*
X151524188Y-71494482D01*
X151560498Y-71614180D01*
X151619463Y-71724494D01*
X151698815Y-71821185D01*
X151795506Y-71900537D01*
X151905820Y-71959502D01*
X151978380Y-71981513D01*
X151846525Y-72113368D01*
X151684010Y-72356589D01*
X151572068Y-72626842D01*
X151515000Y-72913740D01*
X151515000Y-73206260D01*
X151572068Y-73493158D01*
X151684010Y-73763411D01*
X151846525Y-74006632D01*
X152053368Y-74213475D01*
X152235534Y-74335195D01*
X152118645Y-74404822D01*
X151902412Y-74599731D01*
X151728359Y-74833080D01*
X151603175Y-75095901D01*
X151558524Y-75243110D01*
X151679845Y-75473000D01*
X152873000Y-75473000D01*
X152873000Y-75453000D01*
X153127000Y-75453000D01*
X153127000Y-75473000D01*
X154320155Y-75473000D01*
X154441476Y-75243110D01*
X154396825Y-75095901D01*
X154271641Y-74833080D01*
X154097588Y-74599731D01*
X153881355Y-74404822D01*
X153764466Y-74335195D01*
X153946632Y-74213475D01*
X154153475Y-74006632D01*
X154194656Y-73945000D01*
X154956532Y-73945000D01*
X155000001Y-73949281D01*
X155043470Y-73945000D01*
X155043478Y-73945000D01*
X155173491Y-73932195D01*
X155340314Y-73881589D01*
X155494060Y-73799411D01*
X155628818Y-73688817D01*
X155656535Y-73655044D01*
X156283519Y-73028060D01*
X156319078Y-73264134D01*
X156412364Y-73523024D01*
X156474344Y-73638981D01*
X156714435Y-73705961D01*
X157500395Y-72920001D01*
X157859605Y-72920001D01*
X158645565Y-73705961D01*
X158885656Y-73638981D01*
X159002756Y-73389953D01*
X159069023Y-73122866D01*
X159081910Y-72847984D01*
X159040922Y-72575868D01*
X158947636Y-72316978D01*
X158885656Y-72201021D01*
X158645565Y-72134041D01*
X157859605Y-72920001D01*
X157500395Y-72920001D01*
X157486253Y-72905859D01*
X157665858Y-72726254D01*
X157680000Y-72740396D01*
X158465960Y-71954436D01*
X158398980Y-71714345D01*
X158263240Y-71650516D01*
X158341727Y-71618006D01*
X158570535Y-71465121D01*
X158765120Y-71270536D01*
X158918005Y-71041728D01*
X159023314Y-70787491D01*
X159077000Y-70517593D01*
X159077000Y-70242409D01*
X159023314Y-69972511D01*
X158918005Y-69718274D01*
X158765120Y-69489466D01*
X158570535Y-69294881D01*
X158341727Y-69141996D01*
X158087490Y-69036687D01*
X157817592Y-68983001D01*
X157542408Y-68983001D01*
X157272510Y-69036687D01*
X157018273Y-69141996D01*
X156789465Y-69294881D01*
X156594880Y-69489466D01*
X156441995Y-69718274D01*
X156336686Y-69972511D01*
X156283000Y-70242409D01*
X156283000Y-70517593D01*
X156284299Y-70524123D01*
X154633423Y-72175000D01*
X154194656Y-72175000D01*
X154153475Y-72113368D01*
X154021620Y-71981513D01*
X154094180Y-71959502D01*
X154204494Y-71900537D01*
X154301185Y-71821185D01*
X154380537Y-71724494D01*
X154439502Y-71614180D01*
X154475812Y-71494482D01*
X154488072Y-71370000D01*
X154485000Y-70805750D01*
X154326250Y-70647000D01*
X153127000Y-70647000D01*
X153127000Y-70667000D01*
X152873000Y-70667000D01*
X152873000Y-70647000D01*
X151673750Y-70647000D01*
X151515000Y-70805750D01*
X151511928Y-71370000D01*
X151127000Y-71370000D01*
X151127000Y-69670000D01*
X151511928Y-69670000D01*
X151515000Y-70234250D01*
X151673750Y-70393000D01*
X152873000Y-70393000D01*
X152873000Y-69193750D01*
X153127000Y-69193750D01*
X153127000Y-70393000D01*
X154326250Y-70393000D01*
X154485000Y-70234250D01*
X154488072Y-69670000D01*
X154475812Y-69545518D01*
X154439502Y-69425820D01*
X154380537Y-69315506D01*
X154301185Y-69218815D01*
X154204494Y-69139463D01*
X154094180Y-69080498D01*
X153974482Y-69044188D01*
X153850000Y-69031928D01*
X153285750Y-69035000D01*
X153127000Y-69193750D01*
X152873000Y-69193750D01*
X152714250Y-69035000D01*
X152150000Y-69031928D01*
X152025518Y-69044188D01*
X151905820Y-69080498D01*
X151795506Y-69139463D01*
X151698815Y-69218815D01*
X151619463Y-69315506D01*
X151560498Y-69425820D01*
X151524188Y-69545518D01*
X151511928Y-69670000D01*
X151127000Y-69670000D01*
X151127000Y-66710000D01*
X174373000Y-66710000D01*
X174373000Y-93870317D01*
G04 #@! TA.AperFunction,Conductor*
D16*
G36*
X174373000Y-93870317D02*
G01*
X174359502Y-93825820D01*
X174300537Y-93715506D01*
X174221185Y-93618815D01*
X174124494Y-93539463D01*
X174014180Y-93480498D01*
X173894482Y-93444188D01*
X173770000Y-93431928D01*
X173205750Y-93435000D01*
X173047000Y-93593750D01*
X173047000Y-94793000D01*
X173067000Y-94793000D01*
X173067000Y-95047000D01*
X173047000Y-95047000D01*
X173047000Y-95067000D01*
X172793000Y-95067000D01*
X172793000Y-95047000D01*
X170507000Y-95047000D01*
X170507000Y-95067000D01*
X170253000Y-95067000D01*
X170253000Y-95047000D01*
X170233000Y-95047000D01*
X170233000Y-94793000D01*
X170253000Y-94793000D01*
X170253000Y-93593750D01*
X170507000Y-93593750D01*
X170507000Y-94793000D01*
X172793000Y-94793000D01*
X172793000Y-93593750D01*
X172634250Y-93435000D01*
X172070000Y-93431928D01*
X171945518Y-93444188D01*
X171825820Y-93480498D01*
X171715506Y-93539463D01*
X171650000Y-93593222D01*
X171584494Y-93539463D01*
X171474180Y-93480498D01*
X171354482Y-93444188D01*
X171230000Y-93431928D01*
X170665750Y-93435000D01*
X170507000Y-93593750D01*
X170253000Y-93593750D01*
X170094250Y-93435000D01*
X169860000Y-93433725D01*
X169860000Y-92294802D01*
X170088430Y-92066373D01*
X170242408Y-92097001D01*
X170517592Y-92097001D01*
X170787490Y-92043315D01*
X171041727Y-91938006D01*
X171270535Y-91785121D01*
X171465120Y-91590536D01*
X171618005Y-91361728D01*
X171650000Y-91284486D01*
X171681995Y-91361728D01*
X171834880Y-91590536D01*
X172029465Y-91785121D01*
X172258273Y-91938006D01*
X172512510Y-92043315D01*
X172782408Y-92097001D01*
X173057592Y-92097001D01*
X173327490Y-92043315D01*
X173581727Y-91938006D01*
X173810535Y-91785121D01*
X174005120Y-91590536D01*
X174158005Y-91361728D01*
X174263314Y-91107491D01*
X174317000Y-90837593D01*
X174317000Y-90562409D01*
X174263314Y-90292511D01*
X174158005Y-90038274D01*
X174005120Y-89809466D01*
X173810535Y-89614881D01*
X173581727Y-89461996D01*
X173504485Y-89430001D01*
X173581727Y-89398006D01*
X173810535Y-89245121D01*
X174005120Y-89050536D01*
X174158005Y-88821728D01*
X174263314Y-88567491D01*
X174317000Y-88297593D01*
X174317000Y-88022409D01*
X174263314Y-87752511D01*
X174158005Y-87498274D01*
X174005120Y-87269466D01*
X173810535Y-87074881D01*
X173581727Y-86921996D01*
X173504485Y-86890001D01*
X173581727Y-86858006D01*
X173810535Y-86705121D01*
X174005120Y-86510536D01*
X174158005Y-86281728D01*
X174263314Y-86027491D01*
X174317000Y-85757593D01*
X174317000Y-85482409D01*
X174263314Y-85212511D01*
X174158005Y-84958274D01*
X174005120Y-84729466D01*
X173810535Y-84534881D01*
X173581727Y-84381996D01*
X173504485Y-84350001D01*
X173581727Y-84318006D01*
X173810535Y-84165121D01*
X174005120Y-83970536D01*
X174158005Y-83741728D01*
X174263314Y-83487491D01*
X174317000Y-83217593D01*
X174317000Y-82942409D01*
X174263314Y-82672511D01*
X174158005Y-82418274D01*
X174005120Y-82189466D01*
X173810535Y-81994881D01*
X173581727Y-81841996D01*
X173504485Y-81810001D01*
X173581727Y-81778006D01*
X173810535Y-81625121D01*
X174005120Y-81430536D01*
X174158005Y-81201728D01*
X174263314Y-80947491D01*
X174317000Y-80677593D01*
X174317000Y-80402409D01*
X174263314Y-80132511D01*
X174158005Y-79878274D01*
X174005120Y-79649466D01*
X173810535Y-79454881D01*
X173581727Y-79301996D01*
X173504485Y-79270001D01*
X173581727Y-79238006D01*
X173810535Y-79085121D01*
X174005120Y-78890536D01*
X174158005Y-78661728D01*
X174263314Y-78407491D01*
X174317000Y-78137593D01*
X174317000Y-77862409D01*
X174263314Y-77592511D01*
X174158005Y-77338274D01*
X174005120Y-77109466D01*
X173810535Y-76914881D01*
X173581727Y-76761996D01*
X173504485Y-76730001D01*
X173581727Y-76698006D01*
X173810535Y-76545121D01*
X174005120Y-76350536D01*
X174158005Y-76121728D01*
X174263314Y-75867491D01*
X174317000Y-75597593D01*
X174317000Y-75322409D01*
X174263314Y-75052511D01*
X174158005Y-74798274D01*
X174005120Y-74569466D01*
X173810535Y-74374881D01*
X173581727Y-74221996D01*
X173504485Y-74190001D01*
X173581727Y-74158006D01*
X173810535Y-74005121D01*
X174005120Y-73810536D01*
X174158005Y-73581728D01*
X174263314Y-73327491D01*
X174317000Y-73057593D01*
X174317000Y-72782409D01*
X174263314Y-72512511D01*
X174158005Y-72258274D01*
X174005120Y-72029466D01*
X173810535Y-71834881D01*
X173581727Y-71681996D01*
X173504485Y-71650001D01*
X173581727Y-71618006D01*
X173810535Y-71465121D01*
X174005120Y-71270536D01*
X174158005Y-71041728D01*
X174263314Y-70787491D01*
X174317000Y-70517593D01*
X174317000Y-70242409D01*
X174263314Y-69972511D01*
X174158005Y-69718274D01*
X174005120Y-69489466D01*
X173810535Y-69294881D01*
X173581727Y-69141996D01*
X173327490Y-69036687D01*
X173057592Y-68983001D01*
X172782408Y-68983001D01*
X172512510Y-69036687D01*
X172258273Y-69141996D01*
X172029465Y-69294881D01*
X171834880Y-69489466D01*
X171681995Y-69718274D01*
X171576686Y-69972511D01*
X171523000Y-70242409D01*
X171523000Y-70517593D01*
X171576686Y-70787491D01*
X171681995Y-71041728D01*
X171834880Y-71270536D01*
X172029465Y-71465121D01*
X172258273Y-71618006D01*
X172335515Y-71650001D01*
X172258273Y-71681996D01*
X172029465Y-71834881D01*
X171834880Y-72029466D01*
X171681995Y-72258274D01*
X171576686Y-72512511D01*
X171523000Y-72782409D01*
X171523000Y-73057593D01*
X171576686Y-73327491D01*
X171681995Y-73581728D01*
X171834880Y-73810536D01*
X172029465Y-74005121D01*
X172258273Y-74158006D01*
X172335515Y-74190001D01*
X172258273Y-74221996D01*
X172029465Y-74374881D01*
X171834880Y-74569466D01*
X171681995Y-74798274D01*
X171576686Y-75052511D01*
X171523000Y-75322409D01*
X171523000Y-75597593D01*
X171576686Y-75867491D01*
X171681995Y-76121728D01*
X171834880Y-76350536D01*
X172029465Y-76545121D01*
X172258273Y-76698006D01*
X172335515Y-76730001D01*
X172258273Y-76761996D01*
X172029465Y-76914881D01*
X171834880Y-77109466D01*
X171681995Y-77338274D01*
X171576686Y-77592511D01*
X171523000Y-77862409D01*
X171523000Y-78137593D01*
X171576686Y-78407491D01*
X171681995Y-78661728D01*
X171834880Y-78890536D01*
X172029465Y-79085121D01*
X172258273Y-79238006D01*
X172335515Y-79270001D01*
X172258273Y-79301996D01*
X172029465Y-79454881D01*
X171834880Y-79649466D01*
X171681995Y-79878274D01*
X171576686Y-80132511D01*
X171523000Y-80402409D01*
X171523000Y-80677593D01*
X171576686Y-80947491D01*
X171681995Y-81201728D01*
X171834880Y-81430536D01*
X172029465Y-81625121D01*
X172258273Y-81778006D01*
X172335515Y-81810001D01*
X172258273Y-81841996D01*
X172029465Y-81994881D01*
X171834880Y-82189466D01*
X171681995Y-82418274D01*
X171576686Y-82672511D01*
X171523000Y-82942409D01*
X171523000Y-83217593D01*
X171576686Y-83487491D01*
X171681995Y-83741728D01*
X171834880Y-83970536D01*
X172029465Y-84165121D01*
X172258273Y-84318006D01*
X172335515Y-84350001D01*
X172258273Y-84381996D01*
X172029465Y-84534881D01*
X171834880Y-84729466D01*
X171681995Y-84958274D01*
X171576686Y-85212511D01*
X171523000Y-85482409D01*
X171523000Y-85757593D01*
X171576686Y-86027491D01*
X171681995Y-86281728D01*
X171834880Y-86510536D01*
X172029465Y-86705121D01*
X172258273Y-86858006D01*
X172335515Y-86890001D01*
X172258273Y-86921996D01*
X172029465Y-87074881D01*
X171834880Y-87269466D01*
X171681995Y-87498274D01*
X171576686Y-87752511D01*
X171523000Y-88022409D01*
X171523000Y-88297593D01*
X171576686Y-88567491D01*
X171681995Y-88821728D01*
X171834880Y-89050536D01*
X172029465Y-89245121D01*
X172258273Y-89398006D01*
X172335515Y-89430001D01*
X172258273Y-89461996D01*
X172029465Y-89614881D01*
X171834880Y-89809466D01*
X171681995Y-90038274D01*
X171650000Y-90115516D01*
X171618005Y-90038274D01*
X171465120Y-89809466D01*
X171270535Y-89614881D01*
X171041727Y-89461996D01*
X170787490Y-89356687D01*
X170517592Y-89303001D01*
X170242408Y-89303001D01*
X169972510Y-89356687D01*
X169718273Y-89461996D01*
X169489465Y-89614881D01*
X169294880Y-89809466D01*
X169141995Y-90038274D01*
X169110000Y-90115516D01*
X169078005Y-90038274D01*
X168925120Y-89809466D01*
X168730535Y-89614881D01*
X168501727Y-89461996D01*
X168247490Y-89356687D01*
X167977592Y-89303001D01*
X167702408Y-89303001D01*
X167432510Y-89356687D01*
X167178273Y-89461996D01*
X166949465Y-89614881D01*
X166754880Y-89809466D01*
X166601995Y-90038274D01*
X166570000Y-90115516D01*
X166538005Y-90038274D01*
X166385120Y-89809466D01*
X166190535Y-89614881D01*
X165961727Y-89461996D01*
X165707490Y-89356687D01*
X165437592Y-89303001D01*
X165162408Y-89303001D01*
X164892510Y-89356687D01*
X164638273Y-89461996D01*
X164409465Y-89614881D01*
X164214880Y-89809466D01*
X164061995Y-90038274D01*
X164030000Y-90115516D01*
X163998005Y-90038274D01*
X163845120Y-89809466D01*
X163650535Y-89614881D01*
X163421727Y-89461996D01*
X163167490Y-89356687D01*
X162897592Y-89303001D01*
X162622408Y-89303001D01*
X162352510Y-89356687D01*
X162098273Y-89461996D01*
X161869465Y-89614881D01*
X161674880Y-89809466D01*
X161521995Y-90038274D01*
X161490000Y-90115516D01*
X161458005Y-90038274D01*
X161305120Y-89809466D01*
X161110535Y-89614881D01*
X160881727Y-89461996D01*
X160627490Y-89356687D01*
X160357592Y-89303001D01*
X160082408Y-89303001D01*
X159812510Y-89356687D01*
X159558273Y-89461996D01*
X159329465Y-89614881D01*
X159134880Y-89809466D01*
X158981995Y-90038274D01*
X158950000Y-90115516D01*
X158918005Y-90038274D01*
X158765120Y-89809466D01*
X158570535Y-89614881D01*
X158341727Y-89461996D01*
X158264485Y-89430001D01*
X158341727Y-89398006D01*
X158570535Y-89245121D01*
X158765120Y-89050536D01*
X158918005Y-88821728D01*
X159023314Y-88567491D01*
X159077000Y-88297593D01*
X159077000Y-88022409D01*
X159023314Y-87752511D01*
X158918005Y-87498274D01*
X158765120Y-87269466D01*
X158570535Y-87074881D01*
X158341727Y-86921996D01*
X158264485Y-86890001D01*
X158341727Y-86858006D01*
X158570535Y-86705121D01*
X158765120Y-86510536D01*
X158918005Y-86281728D01*
X159023314Y-86027491D01*
X159077000Y-85757593D01*
X159077000Y-85482409D01*
X159023314Y-85212511D01*
X158918005Y-84958274D01*
X158765120Y-84729466D01*
X158570535Y-84534881D01*
X158341727Y-84381996D01*
X158264485Y-84350001D01*
X158341727Y-84318006D01*
X158570535Y-84165121D01*
X158765120Y-83970536D01*
X158918005Y-83741728D01*
X159023314Y-83487491D01*
X159077000Y-83217593D01*
X159077000Y-82942409D01*
X159023314Y-82672511D01*
X158918005Y-82418274D01*
X158765120Y-82189466D01*
X158570535Y-81994881D01*
X158341727Y-81841996D01*
X158264485Y-81810001D01*
X158341727Y-81778006D01*
X158570535Y-81625121D01*
X158765120Y-81430536D01*
X158918005Y-81201728D01*
X159023314Y-80947491D01*
X159077000Y-80677593D01*
X159077000Y-80402409D01*
X159023314Y-80132511D01*
X158918005Y-79878274D01*
X158765120Y-79649466D01*
X158570535Y-79454881D01*
X158341727Y-79301996D01*
X158264485Y-79270001D01*
X158341727Y-79238006D01*
X158570535Y-79085121D01*
X158765120Y-78890536D01*
X158918005Y-78661728D01*
X159023314Y-78407491D01*
X159077000Y-78137593D01*
X159077000Y-77862409D01*
X159023314Y-77592511D01*
X158918005Y-77338274D01*
X158765120Y-77109466D01*
X158570535Y-76914881D01*
X158341727Y-76761996D01*
X158264485Y-76730001D01*
X158341727Y-76698006D01*
X158570535Y-76545121D01*
X158765120Y-76350536D01*
X158918005Y-76121728D01*
X159023314Y-75867491D01*
X159077000Y-75597593D01*
X159077000Y-75322409D01*
X159023314Y-75052511D01*
X158918005Y-74798274D01*
X158765120Y-74569466D01*
X158570535Y-74374881D01*
X158341727Y-74221996D01*
X158270057Y-74192309D01*
X158283023Y-74187637D01*
X158398980Y-74125657D01*
X158465960Y-73885566D01*
X157680000Y-73099606D01*
X156894040Y-73885566D01*
X156961020Y-74125657D01*
X157096760Y-74189486D01*
X157018273Y-74221996D01*
X156789465Y-74374881D01*
X156594880Y-74569466D01*
X156591182Y-74575001D01*
X156183464Y-74575001D01*
X156139998Y-74570720D01*
X156096532Y-74575001D01*
X156096522Y-74575001D01*
X155966509Y-74587806D01*
X155799686Y-74638412D01*
X155645940Y-74720590D01*
X155645938Y-74720591D01*
X155645939Y-74720591D01*
X155544952Y-74803469D01*
X155544950Y-74803471D01*
X155511182Y-74831184D01*
X155483469Y-74864952D01*
X154604951Y-75743471D01*
X154571184Y-75771183D01*
X154543471Y-75804951D01*
X154543468Y-75804954D01*
X154460590Y-75905941D01*
X154437443Y-75949247D01*
X154320155Y-75727000D01*
X153127000Y-75727000D01*
X153127000Y-76920814D01*
X153356891Y-77041481D01*
X153631252Y-76944157D01*
X153881355Y-76795178D01*
X154097588Y-76600269D01*
X154271641Y-76366920D01*
X154325012Y-76254868D01*
X154310719Y-76400000D01*
X154315001Y-76443479D01*
X154315000Y-81935649D01*
X154301185Y-81918815D01*
X154204494Y-81839463D01*
X154094180Y-81780498D01*
X153974482Y-81744188D01*
X153850000Y-81731928D01*
X153285750Y-81735000D01*
X153127000Y-81893750D01*
X153127000Y-83093000D01*
X153147000Y-83093000D01*
X153147000Y-83347000D01*
X153127000Y-83347000D01*
X153127000Y-83367000D01*
X152873000Y-83367000D01*
X152873000Y-83347000D01*
X151673750Y-83347000D01*
X151515000Y-83505750D01*
X151511928Y-84070000D01*
X151524188Y-84194482D01*
X151560498Y-84314180D01*
X151619463Y-84424494D01*
X151698815Y-84521185D01*
X151795506Y-84600537D01*
X151905820Y-84659502D01*
X151978380Y-84681513D01*
X151846525Y-84813368D01*
X151684010Y-85056589D01*
X151572068Y-85326842D01*
X151515000Y-85613740D01*
X151515000Y-85906260D01*
X151572068Y-86193158D01*
X151684010Y-86463411D01*
X151846525Y-86706632D01*
X152053368Y-86913475D01*
X152235534Y-87035195D01*
X152118645Y-87104822D01*
X151902412Y-87299731D01*
X151728359Y-87533080D01*
X151603175Y-87795901D01*
X151558524Y-87943110D01*
X151679845Y-88173000D01*
X152873000Y-88173000D01*
X152873000Y-88153000D01*
X153127000Y-88153000D01*
X153127000Y-88173000D01*
X154320155Y-88173000D01*
X154441476Y-87943110D01*
X154396825Y-87795901D01*
X154271641Y-87533080D01*
X154097588Y-87299731D01*
X153881355Y-87104822D01*
X153764466Y-87035195D01*
X153946632Y-86913475D01*
X154153475Y-86706632D01*
X154202488Y-86633279D01*
X154213490Y-86632195D01*
X154380313Y-86581589D01*
X154534059Y-86499411D01*
X154668817Y-86388817D01*
X154696534Y-86355044D01*
X155795050Y-85256529D01*
X155828817Y-85228817D01*
X155881229Y-85164954D01*
X155939411Y-85094059D01*
X155978681Y-85020589D01*
X156021589Y-84940313D01*
X156072195Y-84773490D01*
X156085000Y-84643477D01*
X156085000Y-84643469D01*
X156089281Y-84600000D01*
X156085000Y-84556531D01*
X156085000Y-76766578D01*
X156506578Y-76345001D01*
X156591182Y-76345001D01*
X156594880Y-76350536D01*
X156789465Y-76545121D01*
X157018273Y-76698006D01*
X157095515Y-76730001D01*
X157018273Y-76761996D01*
X156789465Y-76914881D01*
X156594880Y-77109466D01*
X156441995Y-77338274D01*
X156336686Y-77592511D01*
X156283000Y-77862409D01*
X156283000Y-78137593D01*
X156336686Y-78407491D01*
X156441995Y-78661728D01*
X156594880Y-78890536D01*
X156789465Y-79085121D01*
X157018273Y-79238006D01*
X157095515Y-79270001D01*
X157018273Y-79301996D01*
X156789465Y-79454881D01*
X156594880Y-79649466D01*
X156441995Y-79878274D01*
X156336686Y-80132511D01*
X156283000Y-80402409D01*
X156283000Y-80677593D01*
X156336686Y-80947491D01*
X156441995Y-81201728D01*
X156594880Y-81430536D01*
X156789465Y-81625121D01*
X157018273Y-81778006D01*
X157095515Y-81810001D01*
X157018273Y-81841996D01*
X156789465Y-81994881D01*
X156594880Y-82189466D01*
X156441995Y-82418274D01*
X156336686Y-82672511D01*
X156283000Y-82942409D01*
X156283000Y-83217593D01*
X156336686Y-83487491D01*
X156441995Y-83741728D01*
X156594880Y-83970536D01*
X156789465Y-84165121D01*
X157018273Y-84318006D01*
X157095515Y-84350001D01*
X157018273Y-84381996D01*
X156789465Y-84534881D01*
X156594880Y-84729466D01*
X156441995Y-84958274D01*
X156336686Y-85212511D01*
X156283000Y-85482409D01*
X156283000Y-85757593D01*
X156336686Y-86027491D01*
X156441995Y-86281728D01*
X156594880Y-86510536D01*
X156789465Y-86705121D01*
X157018273Y-86858006D01*
X157095515Y-86890001D01*
X157018273Y-86921996D01*
X156789465Y-87074881D01*
X156594880Y-87269466D01*
X156441995Y-87498274D01*
X156336686Y-87752511D01*
X156283000Y-88022409D01*
X156283000Y-88297593D01*
X156336686Y-88567491D01*
X156441995Y-88821728D01*
X156594880Y-89050536D01*
X156789465Y-89245121D01*
X157018273Y-89398006D01*
X157095515Y-89430001D01*
X157018273Y-89461996D01*
X156789465Y-89614881D01*
X156594880Y-89809466D01*
X156441995Y-90038274D01*
X156336686Y-90292511D01*
X156283000Y-90562409D01*
X156283000Y-90837593D01*
X156336686Y-91107491D01*
X156441995Y-91361728D01*
X156594880Y-91590536D01*
X156789465Y-91785121D01*
X157018273Y-91938006D01*
X157272510Y-92043315D01*
X157542408Y-92097001D01*
X157817592Y-92097001D01*
X158087490Y-92043315D01*
X158093715Y-92040737D01*
X158091325Y-92065000D01*
X158095001Y-92102323D01*
X158095001Y-93434296D01*
X157965750Y-93435000D01*
X157807000Y-93593750D01*
X157807000Y-94793000D01*
X157827000Y-94793000D01*
X157827000Y-95047000D01*
X157807000Y-95047000D01*
X157807000Y-95067000D01*
X157553000Y-95067000D01*
X157553000Y-95047000D01*
X155267000Y-95047000D01*
X155267000Y-95067000D01*
X155013000Y-95067000D01*
X155013000Y-95047000D01*
X152727000Y-95047000D01*
X152727000Y-95067000D01*
X152473000Y-95067000D01*
X152473000Y-95047000D01*
X152453000Y-95047000D01*
X152453000Y-94793000D01*
X152473000Y-94793000D01*
X152473000Y-93593750D01*
X152727000Y-93593750D01*
X152727000Y-94793000D01*
X155013000Y-94793000D01*
X155013000Y-93593750D01*
X155267000Y-93593750D01*
X155267000Y-94793000D01*
X157553000Y-94793000D01*
X157553000Y-93593750D01*
X157394250Y-93435000D01*
X156830000Y-93431928D01*
X156705518Y-93444188D01*
X156585820Y-93480498D01*
X156475506Y-93539463D01*
X156410000Y-93593222D01*
X156344494Y-93539463D01*
X156234180Y-93480498D01*
X156114482Y-93444188D01*
X155990000Y-93431928D01*
X155425750Y-93435000D01*
X155267000Y-93593750D01*
X155013000Y-93593750D01*
X154854250Y-93435000D01*
X154290000Y-93431928D01*
X154165518Y-93444188D01*
X154045820Y-93480498D01*
X153935506Y-93539463D01*
X153870000Y-93593222D01*
X153804494Y-93539463D01*
X153694180Y-93480498D01*
X153574482Y-93444188D01*
X153450000Y-93431928D01*
X152885750Y-93435000D01*
X152727000Y-93593750D01*
X152473000Y-93593750D01*
X152314250Y-93435000D01*
X151750000Y-93431928D01*
X151625518Y-93444188D01*
X151505820Y-93480498D01*
X151395506Y-93539463D01*
X151298815Y-93618815D01*
X151219463Y-93715506D01*
X151160498Y-93825820D01*
X151127000Y-93936248D01*
X151127000Y-88656890D01*
X151558524Y-88656890D01*
X151603175Y-88804099D01*
X151728359Y-89066920D01*
X151902412Y-89300269D01*
X152118645Y-89495178D01*
X152368748Y-89644157D01*
X152643109Y-89741481D01*
X152873000Y-89620814D01*
X152873000Y-88427000D01*
X153127000Y-88427000D01*
X153127000Y-89620814D01*
X153356891Y-89741481D01*
X153631252Y-89644157D01*
X153881355Y-89495178D01*
X154097588Y-89300269D01*
X154271641Y-89066920D01*
X154396825Y-88804099D01*
X154441476Y-88656890D01*
X154320155Y-88427000D01*
X153127000Y-88427000D01*
X152873000Y-88427000D01*
X151679845Y-88427000D01*
X151558524Y-88656890D01*
X151127000Y-88656890D01*
X151127000Y-82370000D01*
X151511928Y-82370000D01*
X151515000Y-82934250D01*
X151673750Y-83093000D01*
X152873000Y-83093000D01*
X152873000Y-81893750D01*
X152714250Y-81735000D01*
X152150000Y-81731928D01*
X152025518Y-81744188D01*
X151905820Y-81780498D01*
X151795506Y-81839463D01*
X151698815Y-81918815D01*
X151619463Y-82015506D01*
X151560498Y-82125820D01*
X151524188Y-82245518D01*
X151511928Y-82370000D01*
X151127000Y-82370000D01*
X151127000Y-75956890D01*
X151558524Y-75956890D01*
X151603175Y-76104099D01*
X151728359Y-76366920D01*
X151902412Y-76600269D01*
X152118645Y-76795178D01*
X152368748Y-76944157D01*
X152643109Y-77041481D01*
X152873000Y-76920814D01*
X152873000Y-75727000D01*
X151679845Y-75727000D01*
X151558524Y-75956890D01*
X151127000Y-75956890D01*
X151127000Y-71370000D01*
X151511928Y-71370000D01*
X151524188Y-71494482D01*
X151560498Y-71614180D01*
X151619463Y-71724494D01*
X151698815Y-71821185D01*
X151795506Y-71900537D01*
X151905820Y-71959502D01*
X151978380Y-71981513D01*
X151846525Y-72113368D01*
X151684010Y-72356589D01*
X151572068Y-72626842D01*
X151515000Y-72913740D01*
X151515000Y-73206260D01*
X151572068Y-73493158D01*
X151684010Y-73763411D01*
X151846525Y-74006632D01*
X152053368Y-74213475D01*
X152235534Y-74335195D01*
X152118645Y-74404822D01*
X151902412Y-74599731D01*
X151728359Y-74833080D01*
X151603175Y-75095901D01*
X151558524Y-75243110D01*
X151679845Y-75473000D01*
X152873000Y-75473000D01*
X152873000Y-75453000D01*
X153127000Y-75453000D01*
X153127000Y-75473000D01*
X154320155Y-75473000D01*
X154441476Y-75243110D01*
X154396825Y-75095901D01*
X154271641Y-74833080D01*
X154097588Y-74599731D01*
X153881355Y-74404822D01*
X153764466Y-74335195D01*
X153946632Y-74213475D01*
X154153475Y-74006632D01*
X154194656Y-73945000D01*
X154956532Y-73945000D01*
X155000001Y-73949281D01*
X155043470Y-73945000D01*
X155043478Y-73945000D01*
X155173491Y-73932195D01*
X155340314Y-73881589D01*
X155494060Y-73799411D01*
X155628818Y-73688817D01*
X155656535Y-73655044D01*
X156283519Y-73028060D01*
X156319078Y-73264134D01*
X156412364Y-73523024D01*
X156474344Y-73638981D01*
X156714435Y-73705961D01*
X157500395Y-72920001D01*
X157859605Y-72920001D01*
X158645565Y-73705961D01*
X158885656Y-73638981D01*
X159002756Y-73389953D01*
X159069023Y-73122866D01*
X159081910Y-72847984D01*
X159040922Y-72575868D01*
X158947636Y-72316978D01*
X158885656Y-72201021D01*
X158645565Y-72134041D01*
X157859605Y-72920001D01*
X157500395Y-72920001D01*
X157486253Y-72905859D01*
X157665858Y-72726254D01*
X157680000Y-72740396D01*
X158465960Y-71954436D01*
X158398980Y-71714345D01*
X158263240Y-71650516D01*
X158341727Y-71618006D01*
X158570535Y-71465121D01*
X158765120Y-71270536D01*
X158918005Y-71041728D01*
X159023314Y-70787491D01*
X159077000Y-70517593D01*
X159077000Y-70242409D01*
X159023314Y-69972511D01*
X158918005Y-69718274D01*
X158765120Y-69489466D01*
X158570535Y-69294881D01*
X158341727Y-69141996D01*
X158087490Y-69036687D01*
X157817592Y-68983001D01*
X157542408Y-68983001D01*
X157272510Y-69036687D01*
X157018273Y-69141996D01*
X156789465Y-69294881D01*
X156594880Y-69489466D01*
X156441995Y-69718274D01*
X156336686Y-69972511D01*
X156283000Y-70242409D01*
X156283000Y-70517593D01*
X156284299Y-70524123D01*
X154633423Y-72175000D01*
X154194656Y-72175000D01*
X154153475Y-72113368D01*
X154021620Y-71981513D01*
X154094180Y-71959502D01*
X154204494Y-71900537D01*
X154301185Y-71821185D01*
X154380537Y-71724494D01*
X154439502Y-71614180D01*
X154475812Y-71494482D01*
X154488072Y-71370000D01*
X154485000Y-70805750D01*
X154326250Y-70647000D01*
X153127000Y-70647000D01*
X153127000Y-70667000D01*
X152873000Y-70667000D01*
X152873000Y-70647000D01*
X151673750Y-70647000D01*
X151515000Y-70805750D01*
X151511928Y-71370000D01*
X151127000Y-71370000D01*
X151127000Y-69670000D01*
X151511928Y-69670000D01*
X151515000Y-70234250D01*
X151673750Y-70393000D01*
X152873000Y-70393000D01*
X152873000Y-69193750D01*
X153127000Y-69193750D01*
X153127000Y-70393000D01*
X154326250Y-70393000D01*
X154485000Y-70234250D01*
X154488072Y-69670000D01*
X154475812Y-69545518D01*
X154439502Y-69425820D01*
X154380537Y-69315506D01*
X154301185Y-69218815D01*
X154204494Y-69139463D01*
X154094180Y-69080498D01*
X153974482Y-69044188D01*
X153850000Y-69031928D01*
X153285750Y-69035000D01*
X153127000Y-69193750D01*
X152873000Y-69193750D01*
X152714250Y-69035000D01*
X152150000Y-69031928D01*
X152025518Y-69044188D01*
X151905820Y-69080498D01*
X151795506Y-69139463D01*
X151698815Y-69218815D01*
X151619463Y-69315506D01*
X151560498Y-69425820D01*
X151524188Y-69545518D01*
X151511928Y-69670000D01*
X151127000Y-69670000D01*
X151127000Y-66710000D01*
X174373000Y-66710000D01*
X174373000Y-93870317D01*
G37*
G04 #@! TD.AperFunction*
D15*
X167432510Y-92043315D02*
X167702408Y-92097001D01*
X167977592Y-92097001D01*
X168247490Y-92043315D01*
X168338833Y-92005479D01*
X168340001Y-92017333D01*
X168340001Y-93433834D01*
X168125750Y-93435000D01*
X167967000Y-93593750D01*
X167967000Y-94793000D01*
X167987000Y-94793000D01*
X167987000Y-95047000D01*
X167967000Y-95047000D01*
X167967000Y-95067000D01*
X167713000Y-95067000D01*
X167713000Y-95047000D01*
X167693000Y-95047000D01*
X167693000Y-94793000D01*
X167713000Y-94793000D01*
X167713000Y-93593750D01*
X167554250Y-93435000D01*
X167235001Y-93433262D01*
X167235001Y-91961504D01*
X167432510Y-92043315D01*
G04 #@! TA.AperFunction,Conductor*
D16*
G36*
X167432510Y-92043315D02*
G01*
X167702408Y-92097001D01*
X167977592Y-92097001D01*
X168247490Y-92043315D01*
X168338833Y-92005479D01*
X168340001Y-92017333D01*
X168340001Y-93433834D01*
X168125750Y-93435000D01*
X167967000Y-93593750D01*
X167967000Y-94793000D01*
X167987000Y-94793000D01*
X167987000Y-95047000D01*
X167967000Y-95047000D01*
X167967000Y-95067000D01*
X167713000Y-95067000D01*
X167713000Y-95047000D01*
X167693000Y-95047000D01*
X167693000Y-94793000D01*
X167713000Y-94793000D01*
X167713000Y-93593750D01*
X167554250Y-93435000D01*
X167235001Y-93433262D01*
X167235001Y-91961504D01*
X167432510Y-92043315D01*
G37*
G04 #@! TD.AperFunction*
D15*
X164061995Y-91361728D02*
X164214880Y-91590536D01*
X164409465Y-91785121D01*
X164638273Y-91938006D01*
X164892510Y-92043315D01*
X165162408Y-92097001D01*
X165437592Y-92097001D01*
X165591570Y-92066373D01*
X165715002Y-92189805D01*
X165715002Y-93434296D01*
X165585750Y-93435000D01*
X165427000Y-93593750D01*
X165427000Y-94793000D01*
X165447000Y-94793000D01*
X165447000Y-95047000D01*
X165427000Y-95047000D01*
X165427000Y-95067000D01*
X165173000Y-95067000D01*
X165173000Y-95047000D01*
X162887000Y-95047000D01*
X162887000Y-95067000D01*
X162633000Y-95067000D01*
X162633000Y-95047000D01*
X160347000Y-95047000D01*
X160347000Y-95067000D01*
X160093000Y-95067000D01*
X160093000Y-95047000D01*
X160073000Y-95047000D01*
X160073000Y-94793000D01*
X160093000Y-94793000D01*
X160093000Y-93593750D01*
X160347000Y-93593750D01*
X160347000Y-94793000D01*
X162633000Y-94793000D01*
X162633000Y-93593750D01*
X162887000Y-93593750D01*
X162887000Y-94793000D01*
X165173000Y-94793000D01*
X165173000Y-93593750D01*
X165014250Y-93435000D01*
X164450000Y-93431928D01*
X164325518Y-93444188D01*
X164205820Y-93480498D01*
X164095506Y-93539463D01*
X164030000Y-93593222D01*
X163964494Y-93539463D01*
X163854180Y-93480498D01*
X163734482Y-93444188D01*
X163610000Y-93431928D01*
X163045750Y-93435000D01*
X162887000Y-93593750D01*
X162633000Y-93593750D01*
X162474250Y-93435000D01*
X161910000Y-93431928D01*
X161785518Y-93444188D01*
X161665820Y-93480498D01*
X161555506Y-93539463D01*
X161490000Y-93593222D01*
X161424494Y-93539463D01*
X161314180Y-93480498D01*
X161194482Y-93444188D01*
X161070000Y-93431928D01*
X160505750Y-93435000D01*
X160347000Y-93593750D01*
X160093000Y-93593750D01*
X159934250Y-93435000D01*
X159615001Y-93433262D01*
X159615001Y-92379801D01*
X159928430Y-92066373D01*
X160082408Y-92097001D01*
X160357592Y-92097001D01*
X160627490Y-92043315D01*
X160881727Y-91938006D01*
X161110535Y-91785121D01*
X161305120Y-91590536D01*
X161458005Y-91361728D01*
X161490000Y-91284486D01*
X161521995Y-91361728D01*
X161674880Y-91590536D01*
X161869465Y-91785121D01*
X162098273Y-91938006D01*
X162352510Y-92043315D01*
X162622408Y-92097001D01*
X162897592Y-92097001D01*
X163167490Y-92043315D01*
X163421727Y-91938006D01*
X163650535Y-91785121D01*
X163845120Y-91590536D01*
X163998005Y-91361728D01*
X164030000Y-91284486D01*
X164061995Y-91361728D01*
G04 #@! TA.AperFunction,Conductor*
D16*
G36*
X164061995Y-91361728D02*
G01*
X164214880Y-91590536D01*
X164409465Y-91785121D01*
X164638273Y-91938006D01*
X164892510Y-92043315D01*
X165162408Y-92097001D01*
X165437592Y-92097001D01*
X165591570Y-92066373D01*
X165715002Y-92189805D01*
X165715002Y-93434296D01*
X165585750Y-93435000D01*
X165427000Y-93593750D01*
X165427000Y-94793000D01*
X165447000Y-94793000D01*
X165447000Y-95047000D01*
X165427000Y-95047000D01*
X165427000Y-95067000D01*
X165173000Y-95067000D01*
X165173000Y-95047000D01*
X162887000Y-95047000D01*
X162887000Y-95067000D01*
X162633000Y-95067000D01*
X162633000Y-95047000D01*
X160347000Y-95047000D01*
X160347000Y-95067000D01*
X160093000Y-95067000D01*
X160093000Y-95047000D01*
X160073000Y-95047000D01*
X160073000Y-94793000D01*
X160093000Y-94793000D01*
X160093000Y-93593750D01*
X160347000Y-93593750D01*
X160347000Y-94793000D01*
X162633000Y-94793000D01*
X162633000Y-93593750D01*
X162887000Y-93593750D01*
X162887000Y-94793000D01*
X165173000Y-94793000D01*
X165173000Y-93593750D01*
X165014250Y-93435000D01*
X164450000Y-93431928D01*
X164325518Y-93444188D01*
X164205820Y-93480498D01*
X164095506Y-93539463D01*
X164030000Y-93593222D01*
X163964494Y-93539463D01*
X163854180Y-93480498D01*
X163734482Y-93444188D01*
X163610000Y-93431928D01*
X163045750Y-93435000D01*
X162887000Y-93593750D01*
X162633000Y-93593750D01*
X162474250Y-93435000D01*
X161910000Y-93431928D01*
X161785518Y-93444188D01*
X161665820Y-93480498D01*
X161555506Y-93539463D01*
X161490000Y-93593222D01*
X161424494Y-93539463D01*
X161314180Y-93480498D01*
X161194482Y-93444188D01*
X161070000Y-93431928D01*
X160505750Y-93435000D01*
X160347000Y-93593750D01*
X160093000Y-93593750D01*
X159934250Y-93435000D01*
X159615001Y-93433262D01*
X159615001Y-92379801D01*
X159928430Y-92066373D01*
X160082408Y-92097001D01*
X160357592Y-92097001D01*
X160627490Y-92043315D01*
X160881727Y-91938006D01*
X161110535Y-91785121D01*
X161305120Y-91590536D01*
X161458005Y-91361728D01*
X161490000Y-91284486D01*
X161521995Y-91361728D01*
X161674880Y-91590536D01*
X161869465Y-91785121D01*
X162098273Y-91938006D01*
X162352510Y-92043315D01*
X162622408Y-92097001D01*
X162897592Y-92097001D01*
X163167490Y-92043315D01*
X163421727Y-91938006D01*
X163650535Y-91785121D01*
X163845120Y-91590536D01*
X163998005Y-91361728D01*
X164030000Y-91284486D01*
X164061995Y-91361728D01*
G37*
G04 #@! TD.AperFunction*
M02*
