G04 #@! TF.GenerationSoftware,KiCad,Pcbnew,7.0.9-7.0.9~ubuntu20.04.1*
G04 #@! TF.CreationDate,2023-12-21T12:58:47-08:00*
G04 #@! TF.ProjectId,ros_sync_node,726f735f-7379-46e6-935f-6e6f64652e6b,rev?*
G04 #@! TF.SameCoordinates,Original*
G04 #@! TF.FileFunction,Legend,Top*
G04 #@! TF.FilePolarity,Positive*
%FSLAX46Y46*%
G04 Gerber Fmt 4.6, Leading zero omitted, Abs format (unit mm)*
G04 Created by KiCad (PCBNEW 7.0.9-7.0.9~ubuntu20.04.1) date 2023-12-21 12:58:47*
%MOMM*%
%LPD*%
G01*
G04 APERTURE LIST*
%ADD10C,0.150000*%
%ADD11C,0.100000*%
%ADD12C,0.120000*%
%ADD13O,1.700000X1.700000*%
%ADD14R,1.700000X1.700000*%
%ADD15C,3.200000*%
%ADD16C,1.524000*%
G04 APERTURE END LIST*
D10*
X174300000Y-93800000D02*
X174300000Y-92600000D01*
X151300000Y-93600000D02*
X151300000Y-92400000D01*
D11*
X169142857Y-93241764D02*
X169142857Y-92491764D01*
X169142857Y-92491764D02*
X169428571Y-92491764D01*
X169428571Y-92491764D02*
X169500000Y-92527478D01*
X169500000Y-92527478D02*
X169535714Y-92563192D01*
X169535714Y-92563192D02*
X169571428Y-92634621D01*
X169571428Y-92634621D02*
X169571428Y-92741764D01*
X169571428Y-92741764D02*
X169535714Y-92813192D01*
X169535714Y-92813192D02*
X169500000Y-92848907D01*
X169500000Y-92848907D02*
X169428571Y-92884621D01*
X169428571Y-92884621D02*
X169142857Y-92884621D01*
X169892857Y-93241764D02*
X169892857Y-92741764D01*
X169892857Y-92491764D02*
X169857143Y-92527478D01*
X169857143Y-92527478D02*
X169892857Y-92563192D01*
X169892857Y-92563192D02*
X169928571Y-92527478D01*
X169928571Y-92527478D02*
X169892857Y-92491764D01*
X169892857Y-92491764D02*
X169892857Y-92563192D01*
X170250000Y-92741764D02*
X170250000Y-93241764D01*
X170250000Y-92813192D02*
X170285714Y-92777478D01*
X170285714Y-92777478D02*
X170357143Y-92741764D01*
X170357143Y-92741764D02*
X170464286Y-92741764D01*
X170464286Y-92741764D02*
X170535714Y-92777478D01*
X170535714Y-92777478D02*
X170571429Y-92848907D01*
X170571429Y-92848907D02*
X170571429Y-93241764D01*
X171535714Y-93241764D02*
X171678571Y-93241764D01*
X171678571Y-93241764D02*
X171750000Y-93206050D01*
X171750000Y-93206050D02*
X171785714Y-93170335D01*
X171785714Y-93170335D02*
X171857143Y-93063192D01*
X171857143Y-93063192D02*
X171892857Y-92920335D01*
X171892857Y-92920335D02*
X171892857Y-92634621D01*
X171892857Y-92634621D02*
X171857143Y-92563192D01*
X171857143Y-92563192D02*
X171821429Y-92527478D01*
X171821429Y-92527478D02*
X171750000Y-92491764D01*
X171750000Y-92491764D02*
X171607143Y-92491764D01*
X171607143Y-92491764D02*
X171535714Y-92527478D01*
X171535714Y-92527478D02*
X171500000Y-92563192D01*
X171500000Y-92563192D02*
X171464286Y-92634621D01*
X171464286Y-92634621D02*
X171464286Y-92813192D01*
X171464286Y-92813192D02*
X171500000Y-92884621D01*
X171500000Y-92884621D02*
X171535714Y-92920335D01*
X171535714Y-92920335D02*
X171607143Y-92956050D01*
X171607143Y-92956050D02*
X171750000Y-92956050D01*
X171750000Y-92956050D02*
X171821429Y-92920335D01*
X171821429Y-92920335D02*
X171857143Y-92884621D01*
X171857143Y-92884621D02*
X171892857Y-92813192D01*
X161285714Y-93341764D02*
X161285714Y-92591764D01*
X161285714Y-92591764D02*
X161571428Y-92591764D01*
X161571428Y-92591764D02*
X161642857Y-92627478D01*
X161642857Y-92627478D02*
X161678571Y-92663192D01*
X161678571Y-92663192D02*
X161714285Y-92734621D01*
X161714285Y-92734621D02*
X161714285Y-92841764D01*
X161714285Y-92841764D02*
X161678571Y-92913192D01*
X161678571Y-92913192D02*
X161642857Y-92948907D01*
X161642857Y-92948907D02*
X161571428Y-92984621D01*
X161571428Y-92984621D02*
X161285714Y-92984621D01*
X162035714Y-93341764D02*
X162035714Y-92841764D01*
X162035714Y-92591764D02*
X162000000Y-92627478D01*
X162000000Y-92627478D02*
X162035714Y-92663192D01*
X162035714Y-92663192D02*
X162071428Y-92627478D01*
X162071428Y-92627478D02*
X162035714Y-92591764D01*
X162035714Y-92591764D02*
X162035714Y-92663192D01*
X162392857Y-92841764D02*
X162392857Y-93341764D01*
X162392857Y-92913192D02*
X162428571Y-92877478D01*
X162428571Y-92877478D02*
X162500000Y-92841764D01*
X162500000Y-92841764D02*
X162607143Y-92841764D01*
X162607143Y-92841764D02*
X162678571Y-92877478D01*
X162678571Y-92877478D02*
X162714286Y-92948907D01*
X162714286Y-92948907D02*
X162714286Y-93341764D01*
X164035714Y-93341764D02*
X163607143Y-93341764D01*
X163821428Y-93341764D02*
X163821428Y-92591764D01*
X163821428Y-92591764D02*
X163750000Y-92698907D01*
X163750000Y-92698907D02*
X163678571Y-92770335D01*
X163678571Y-92770335D02*
X163607143Y-92806050D01*
X164750000Y-93341764D02*
X164321429Y-93341764D01*
X164535714Y-93341764D02*
X164535714Y-92591764D01*
X164535714Y-92591764D02*
X164464286Y-92698907D01*
X164464286Y-92698907D02*
X164392857Y-92770335D01*
X164392857Y-92770335D02*
X164321429Y-92806050D01*
X153585714Y-93341764D02*
X153585714Y-92591764D01*
X153585714Y-92591764D02*
X153871428Y-92591764D01*
X153871428Y-92591764D02*
X153942857Y-92627478D01*
X153942857Y-92627478D02*
X153978571Y-92663192D01*
X153978571Y-92663192D02*
X154014285Y-92734621D01*
X154014285Y-92734621D02*
X154014285Y-92841764D01*
X154014285Y-92841764D02*
X153978571Y-92913192D01*
X153978571Y-92913192D02*
X153942857Y-92948907D01*
X153942857Y-92948907D02*
X153871428Y-92984621D01*
X153871428Y-92984621D02*
X153585714Y-92984621D01*
X154335714Y-93341764D02*
X154335714Y-92841764D01*
X154335714Y-92591764D02*
X154300000Y-92627478D01*
X154300000Y-92627478D02*
X154335714Y-92663192D01*
X154335714Y-92663192D02*
X154371428Y-92627478D01*
X154371428Y-92627478D02*
X154335714Y-92591764D01*
X154335714Y-92591764D02*
X154335714Y-92663192D01*
X154692857Y-92841764D02*
X154692857Y-93341764D01*
X154692857Y-92913192D02*
X154728571Y-92877478D01*
X154728571Y-92877478D02*
X154800000Y-92841764D01*
X154800000Y-92841764D02*
X154907143Y-92841764D01*
X154907143Y-92841764D02*
X154978571Y-92877478D01*
X154978571Y-92877478D02*
X155014286Y-92948907D01*
X155014286Y-92948907D02*
X155014286Y-93341764D01*
X156335714Y-93341764D02*
X155907143Y-93341764D01*
X156121428Y-93341764D02*
X156121428Y-92591764D01*
X156121428Y-92591764D02*
X156050000Y-92698907D01*
X156050000Y-92698907D02*
X155978571Y-92770335D01*
X155978571Y-92770335D02*
X155907143Y-92806050D01*
X156585714Y-92591764D02*
X157050000Y-92591764D01*
X157050000Y-92591764D02*
X156800000Y-92877478D01*
X156800000Y-92877478D02*
X156907143Y-92877478D01*
X156907143Y-92877478D02*
X156978572Y-92913192D01*
X156978572Y-92913192D02*
X157014286Y-92948907D01*
X157014286Y-92948907D02*
X157050000Y-93020335D01*
X157050000Y-93020335D02*
X157050000Y-93198907D01*
X157050000Y-93198907D02*
X157014286Y-93270335D01*
X157014286Y-93270335D02*
X156978572Y-93306050D01*
X156978572Y-93306050D02*
X156907143Y-93341764D01*
X156907143Y-93341764D02*
X156692857Y-93341764D01*
X156692857Y-93341764D02*
X156621429Y-93306050D01*
X156621429Y-93306050D02*
X156585714Y-93270335D01*
D10*
X166500000Y-92574000D02*
X166500000Y-93700000D01*
X158900000Y-93700000D02*
X158900000Y-92500000D01*
X164538095Y-79994820D02*
X164538095Y-80804343D01*
X164538095Y-80804343D02*
X164585714Y-80899581D01*
X164585714Y-80899581D02*
X164633333Y-80947201D01*
X164633333Y-80947201D02*
X164728571Y-80994820D01*
X164728571Y-80994820D02*
X164919047Y-80994820D01*
X164919047Y-80994820D02*
X165014285Y-80947201D01*
X165014285Y-80947201D02*
X165061904Y-80899581D01*
X165061904Y-80899581D02*
X165109523Y-80804343D01*
X165109523Y-80804343D02*
X165109523Y-79994820D01*
X166109523Y-80994820D02*
X165538095Y-80994820D01*
X165823809Y-80994820D02*
X165823809Y-79994820D01*
X165823809Y-79994820D02*
X165728571Y-80137677D01*
X165728571Y-80137677D02*
X165633333Y-80232915D01*
X165633333Y-80232915D02*
X165538095Y-80280534D01*
D12*
X151670000Y-87190000D02*
X154330000Y-87190000D01*
X151670000Y-84590000D02*
X153000000Y-84590000D01*
X154330000Y-87190000D02*
X154330000Y-92330000D01*
X151670000Y-85920000D02*
X151670000Y-84590000D01*
X151670000Y-87190000D02*
X151670000Y-92330000D01*
X151670000Y-92330000D02*
X154330000Y-92330000D01*
X151670000Y-83330000D02*
X154330000Y-83330000D01*
X151670000Y-78190000D02*
X151670000Y-83330000D01*
X154330000Y-78190000D02*
X154330000Y-83330000D01*
X151670000Y-78190000D02*
X154330000Y-78190000D01*
X151670000Y-76920000D02*
X151670000Y-75590000D01*
X151670000Y-75590000D02*
X153000000Y-75590000D01*
X151670000Y-74410000D02*
X154330000Y-74410000D01*
X151670000Y-69270000D02*
X151670000Y-74410000D01*
X154330000Y-69270000D02*
X154330000Y-74410000D01*
X151670000Y-69270000D02*
X154330000Y-69270000D01*
X151670000Y-68000000D02*
X151670000Y-66670000D01*
X151670000Y-66670000D02*
X153000000Y-66670000D01*
X156300000Y-92290001D02*
X156300000Y-68790001D01*
X156300000Y-68790001D02*
X174300000Y-68790001D01*
X174300000Y-92290001D02*
X174300000Y-68790001D01*
X156300000Y-92290001D02*
X174300000Y-92290001D01*
X160800000Y-68790001D02*
X160800000Y-68040001D01*
X169800000Y-68040001D02*
X169800000Y-68790001D01*
X160800000Y-68040001D02*
X169800000Y-68040001D01*
X166510000Y-101330000D02*
X169170000Y-101330000D01*
X166510000Y-96190000D02*
X166510000Y-101330000D01*
X169170000Y-96190000D02*
X169170000Y-101330000D01*
X166510000Y-96190000D02*
X169170000Y-96190000D01*
X166510000Y-94920000D02*
X166510000Y-93590000D01*
X166510000Y-93590000D02*
X167840000Y-93590000D01*
X161430000Y-101330000D02*
X164090000Y-101330000D01*
X161430000Y-96190000D02*
X161430000Y-101330000D01*
X164090000Y-96190000D02*
X164090000Y-101330000D01*
X161430000Y-96190000D02*
X164090000Y-96190000D01*
X161430000Y-94920000D02*
X161430000Y-93590000D01*
X161430000Y-93590000D02*
X162760000Y-93590000D01*
X156350000Y-101330000D02*
X159010000Y-101330000D01*
X156350000Y-96190000D02*
X156350000Y-101330000D01*
X159010000Y-96190000D02*
X159010000Y-101330000D01*
X156350000Y-96190000D02*
X159010000Y-96190000D01*
X156350000Y-94920000D02*
X156350000Y-93590000D01*
X156350000Y-93590000D02*
X157680000Y-93590000D01*
X169050000Y-101330000D02*
X171710000Y-101330000D01*
X169050000Y-96190000D02*
X169050000Y-101330000D01*
X171710000Y-96190000D02*
X171710000Y-101330000D01*
X169050000Y-96190000D02*
X171710000Y-96190000D01*
X169050000Y-94920000D02*
X169050000Y-93590000D01*
X169050000Y-93590000D02*
X170380000Y-93590000D01*
X158890000Y-101330000D02*
X161550000Y-101330000D01*
X158890000Y-96190000D02*
X158890000Y-101330000D01*
X161550000Y-96190000D02*
X161550000Y-101330000D01*
X158890000Y-96190000D02*
X161550000Y-96190000D01*
X158890000Y-94920000D02*
X158890000Y-93590000D01*
X158890000Y-93590000D02*
X160220000Y-93590000D01*
X153810000Y-101330000D02*
X156470000Y-101330000D01*
X153810000Y-96190000D02*
X153810000Y-101330000D01*
X156470000Y-96190000D02*
X156470000Y-101330000D01*
X153810000Y-96190000D02*
X156470000Y-96190000D01*
X153810000Y-94920000D02*
X153810000Y-93590000D01*
X153810000Y-93590000D02*
X155140000Y-93590000D01*
X171590000Y-101330000D02*
X174250000Y-101330000D01*
X171590000Y-96190000D02*
X171590000Y-101330000D01*
X174250000Y-96190000D02*
X174250000Y-101330000D01*
X171590000Y-96190000D02*
X174250000Y-96190000D01*
X171590000Y-94920000D02*
X171590000Y-93590000D01*
X171590000Y-93590000D02*
X172920000Y-93590000D01*
X163970000Y-101330000D02*
X166630000Y-101330000D01*
X163970000Y-96190000D02*
X163970000Y-101330000D01*
X166630000Y-96190000D02*
X166630000Y-101330000D01*
X163970000Y-96190000D02*
X166630000Y-96190000D01*
X163970000Y-94920000D02*
X163970000Y-93590000D01*
X163970000Y-93590000D02*
X165300000Y-93590000D01*
X151270000Y-101330000D02*
X153930000Y-101330000D01*
X151270000Y-96190000D02*
X151270000Y-101330000D01*
X153930000Y-96190000D02*
X153930000Y-101330000D01*
X151270000Y-96190000D02*
X153930000Y-96190000D01*
X151270000Y-94920000D02*
X151270000Y-93590000D01*
X151270000Y-93590000D02*
X152600000Y-93590000D01*
%LPC*%
D13*
X153000000Y-91000000D03*
X153000000Y-88460000D03*
D14*
X153000000Y-85920000D03*
D13*
X153000000Y-82000000D03*
X153000000Y-79460000D03*
D14*
X153000000Y-76920000D03*
D15*
X146500000Y-99500000D03*
X146500000Y-71000000D03*
X179000000Y-99500000D03*
X179000000Y-71000000D03*
D13*
X153000000Y-73080000D03*
X153000000Y-70540000D03*
D14*
X153000000Y-68000000D03*
D16*
X172920000Y-75460001D03*
X172920000Y-78000001D03*
X172920000Y-80540001D03*
X172920000Y-83080001D03*
X172920000Y-85620001D03*
X172920000Y-88160001D03*
X172920000Y-90700001D03*
X170380000Y-90700001D03*
X172920000Y-70380001D03*
X172920000Y-72920001D03*
X167840000Y-90700001D03*
X165300000Y-90700001D03*
X162760000Y-90700001D03*
X160220000Y-90700001D03*
X157680000Y-90700001D03*
X157680000Y-88160001D03*
X157680000Y-85620001D03*
X157680000Y-83080001D03*
X157680000Y-80540001D03*
X157680000Y-78000001D03*
X157680000Y-75460001D03*
X157680000Y-72920001D03*
X157680000Y-70380001D03*
D13*
X167840000Y-100000000D03*
X167840000Y-97460000D03*
D14*
X167840000Y-94920000D03*
D13*
X162760000Y-100000000D03*
X162760000Y-97460000D03*
D14*
X162760000Y-94920000D03*
D13*
X157680000Y-100000000D03*
X157680000Y-97460000D03*
D14*
X157680000Y-94920000D03*
D13*
X170380000Y-100000000D03*
X170380000Y-97460000D03*
D14*
X170380000Y-94920000D03*
D13*
X160220000Y-100000000D03*
X160220000Y-97460000D03*
D14*
X160220000Y-94920000D03*
D13*
X155140000Y-100000000D03*
X155140000Y-97460000D03*
D14*
X155140000Y-94920000D03*
D13*
X172920000Y-100000000D03*
X172920000Y-97460000D03*
D14*
X172920000Y-94920000D03*
D13*
X165300000Y-100000000D03*
X165300000Y-97460000D03*
D14*
X165300000Y-94920000D03*
D13*
X152600000Y-100000000D03*
X152600000Y-97460000D03*
D14*
X152600000Y-94920000D03*
%LPD*%
M02*
