G04 #@! TF.GenerationSoftware,KiCad,Pcbnew,(5.1.10)-1*
G04 #@! TF.CreationDate,2022-02-22T13:09:22-08:00*
G04 #@! TF.ProjectId,ros_sync_node,726f735f-7379-46e6-935f-6e6f64652e6b,rev?*
G04 #@! TF.SameCoordinates,Original*
G04 #@! TF.FileFunction,Legend,Top*
G04 #@! TF.FilePolarity,Positive*
%FSLAX46Y46*%
G04 Gerber Fmt 4.6, Leading zero omitted, Abs format (unit mm)*
G04 Created by KiCad (PCBNEW (5.1.10)-1) date 2022-02-22 13:09:22*
%MOMM*%
%LPD*%
G01*
G04 APERTURE LIST*
%ADD10C,0.150000*%
%ADD11C,0.100000*%
%ADD12C,0.120000*%
%ADD13C,3.200000*%
%ADD14O,1.700000X1.700000*%
%ADD15R,1.700000X1.700000*%
%ADD16C,1.524000*%
G04 APERTURE END LIST*
D10*
X174300000Y-93800000D02*
X174300000Y-92600000D01*
X151300000Y-93600000D02*
X151300000Y-92400000D01*
D11*
X169142857Y-93239285D02*
X169142857Y-92489285D01*
X169428571Y-92489285D01*
X169500000Y-92525000D01*
X169535714Y-92560714D01*
X169571428Y-92632142D01*
X169571428Y-92739285D01*
X169535714Y-92810714D01*
X169500000Y-92846428D01*
X169428571Y-92882142D01*
X169142857Y-92882142D01*
X169892857Y-93239285D02*
X169892857Y-92739285D01*
X169892857Y-92489285D02*
X169857142Y-92525000D01*
X169892857Y-92560714D01*
X169928571Y-92525000D01*
X169892857Y-92489285D01*
X169892857Y-92560714D01*
X170250000Y-92739285D02*
X170250000Y-93239285D01*
X170250000Y-92810714D02*
X170285714Y-92775000D01*
X170357142Y-92739285D01*
X170464285Y-92739285D01*
X170535714Y-92775000D01*
X170571428Y-92846428D01*
X170571428Y-93239285D01*
X171535714Y-93239285D02*
X171678571Y-93239285D01*
X171750000Y-93203571D01*
X171785714Y-93167857D01*
X171857142Y-93060714D01*
X171892857Y-92917857D01*
X171892857Y-92632142D01*
X171857142Y-92560714D01*
X171821428Y-92525000D01*
X171750000Y-92489285D01*
X171607142Y-92489285D01*
X171535714Y-92525000D01*
X171500000Y-92560714D01*
X171464285Y-92632142D01*
X171464285Y-92810714D01*
X171500000Y-92882142D01*
X171535714Y-92917857D01*
X171607142Y-92953571D01*
X171750000Y-92953571D01*
X171821428Y-92917857D01*
X171857142Y-92882142D01*
X171892857Y-92810714D01*
X161285714Y-93339285D02*
X161285714Y-92589285D01*
X161571428Y-92589285D01*
X161642857Y-92625000D01*
X161678571Y-92660714D01*
X161714285Y-92732142D01*
X161714285Y-92839285D01*
X161678571Y-92910714D01*
X161642857Y-92946428D01*
X161571428Y-92982142D01*
X161285714Y-92982142D01*
X162035714Y-93339285D02*
X162035714Y-92839285D01*
X162035714Y-92589285D02*
X162000000Y-92625000D01*
X162035714Y-92660714D01*
X162071428Y-92625000D01*
X162035714Y-92589285D01*
X162035714Y-92660714D01*
X162392857Y-92839285D02*
X162392857Y-93339285D01*
X162392857Y-92910714D02*
X162428571Y-92875000D01*
X162500000Y-92839285D01*
X162607142Y-92839285D01*
X162678571Y-92875000D01*
X162714285Y-92946428D01*
X162714285Y-93339285D01*
X164035714Y-93339285D02*
X163607142Y-93339285D01*
X163821428Y-93339285D02*
X163821428Y-92589285D01*
X163750000Y-92696428D01*
X163678571Y-92767857D01*
X163607142Y-92803571D01*
X164750000Y-93339285D02*
X164321428Y-93339285D01*
X164535714Y-93339285D02*
X164535714Y-92589285D01*
X164464285Y-92696428D01*
X164392857Y-92767857D01*
X164321428Y-92803571D01*
X153585714Y-93339285D02*
X153585714Y-92589285D01*
X153871428Y-92589285D01*
X153942857Y-92625000D01*
X153978571Y-92660714D01*
X154014285Y-92732142D01*
X154014285Y-92839285D01*
X153978571Y-92910714D01*
X153942857Y-92946428D01*
X153871428Y-92982142D01*
X153585714Y-92982142D01*
X154335714Y-93339285D02*
X154335714Y-92839285D01*
X154335714Y-92589285D02*
X154300000Y-92625000D01*
X154335714Y-92660714D01*
X154371428Y-92625000D01*
X154335714Y-92589285D01*
X154335714Y-92660714D01*
X154692857Y-92839285D02*
X154692857Y-93339285D01*
X154692857Y-92910714D02*
X154728571Y-92875000D01*
X154800000Y-92839285D01*
X154907142Y-92839285D01*
X154978571Y-92875000D01*
X155014285Y-92946428D01*
X155014285Y-93339285D01*
X156335714Y-93339285D02*
X155907142Y-93339285D01*
X156121428Y-93339285D02*
X156121428Y-92589285D01*
X156050000Y-92696428D01*
X155978571Y-92767857D01*
X155907142Y-92803571D01*
X156585714Y-92589285D02*
X157050000Y-92589285D01*
X156800000Y-92875000D01*
X156907142Y-92875000D01*
X156978571Y-92910714D01*
X157014285Y-92946428D01*
X157050000Y-93017857D01*
X157050000Y-93196428D01*
X157014285Y-93267857D01*
X156978571Y-93303571D01*
X156907142Y-93339285D01*
X156692857Y-93339285D01*
X156621428Y-93303571D01*
X156585714Y-93267857D01*
D10*
X166500000Y-92574000D02*
X166500000Y-93700000D01*
X158900000Y-93700000D02*
X158900000Y-92500000D01*
D12*
X151670000Y-81890000D02*
X153000000Y-81890000D01*
X151670000Y-83220000D02*
X151670000Y-81890000D01*
X151670000Y-84490000D02*
X154330000Y-84490000D01*
X154330000Y-84490000D02*
X154330000Y-89630000D01*
X151670000Y-84490000D02*
X151670000Y-89630000D01*
X151670000Y-89630000D02*
X154330000Y-89630000D01*
X151670000Y-69190000D02*
X153000000Y-69190000D01*
X151670000Y-70520000D02*
X151670000Y-69190000D01*
X151670000Y-71790000D02*
X154330000Y-71790000D01*
X154330000Y-71790000D02*
X154330000Y-76930000D01*
X151670000Y-71790000D02*
X151670000Y-76930000D01*
X151670000Y-76930000D02*
X154330000Y-76930000D01*
X160800000Y-68040001D02*
X169800000Y-68040001D01*
X169800000Y-68040001D02*
X169800000Y-68790001D01*
X160800000Y-68790001D02*
X160800000Y-68040001D01*
X156300000Y-92290001D02*
X174300000Y-92290001D01*
X174300000Y-92290001D02*
X174300000Y-68790001D01*
X156300000Y-68790001D02*
X174300000Y-68790001D01*
X156300000Y-92290001D02*
X156300000Y-68790001D01*
X166510000Y-93590000D02*
X167840000Y-93590000D01*
X166510000Y-94920000D02*
X166510000Y-93590000D01*
X166510000Y-96190000D02*
X169170000Y-96190000D01*
X169170000Y-96190000D02*
X169170000Y-101330000D01*
X166510000Y-96190000D02*
X166510000Y-101330000D01*
X166510000Y-101330000D02*
X169170000Y-101330000D01*
X161430000Y-93590000D02*
X162760000Y-93590000D01*
X161430000Y-94920000D02*
X161430000Y-93590000D01*
X161430000Y-96190000D02*
X164090000Y-96190000D01*
X164090000Y-96190000D02*
X164090000Y-101330000D01*
X161430000Y-96190000D02*
X161430000Y-101330000D01*
X161430000Y-101330000D02*
X164090000Y-101330000D01*
X156350000Y-93590000D02*
X157680000Y-93590000D01*
X156350000Y-94920000D02*
X156350000Y-93590000D01*
X156350000Y-96190000D02*
X159010000Y-96190000D01*
X159010000Y-96190000D02*
X159010000Y-101330000D01*
X156350000Y-96190000D02*
X156350000Y-101330000D01*
X156350000Y-101330000D02*
X159010000Y-101330000D01*
X169050000Y-93590000D02*
X170380000Y-93590000D01*
X169050000Y-94920000D02*
X169050000Y-93590000D01*
X169050000Y-96190000D02*
X171710000Y-96190000D01*
X171710000Y-96190000D02*
X171710000Y-101330000D01*
X169050000Y-96190000D02*
X169050000Y-101330000D01*
X169050000Y-101330000D02*
X171710000Y-101330000D01*
X158890000Y-93590000D02*
X160220000Y-93590000D01*
X158890000Y-94920000D02*
X158890000Y-93590000D01*
X158890000Y-96190000D02*
X161550000Y-96190000D01*
X161550000Y-96190000D02*
X161550000Y-101330000D01*
X158890000Y-96190000D02*
X158890000Y-101330000D01*
X158890000Y-101330000D02*
X161550000Y-101330000D01*
X153810000Y-93590000D02*
X155140000Y-93590000D01*
X153810000Y-94920000D02*
X153810000Y-93590000D01*
X153810000Y-96190000D02*
X156470000Y-96190000D01*
X156470000Y-96190000D02*
X156470000Y-101330000D01*
X153810000Y-96190000D02*
X153810000Y-101330000D01*
X153810000Y-101330000D02*
X156470000Y-101330000D01*
X171590000Y-93590000D02*
X172920000Y-93590000D01*
X171590000Y-94920000D02*
X171590000Y-93590000D01*
X171590000Y-96190000D02*
X174250000Y-96190000D01*
X174250000Y-96190000D02*
X174250000Y-101330000D01*
X171590000Y-96190000D02*
X171590000Y-101330000D01*
X171590000Y-101330000D02*
X174250000Y-101330000D01*
X163970000Y-93590000D02*
X165300000Y-93590000D01*
X163970000Y-94920000D02*
X163970000Y-93590000D01*
X163970000Y-96190000D02*
X166630000Y-96190000D01*
X166630000Y-96190000D02*
X166630000Y-101330000D01*
X163970000Y-96190000D02*
X163970000Y-101330000D01*
X163970000Y-101330000D02*
X166630000Y-101330000D01*
X151270000Y-93590000D02*
X152600000Y-93590000D01*
X151270000Y-94920000D02*
X151270000Y-93590000D01*
X151270000Y-96190000D02*
X153930000Y-96190000D01*
X153930000Y-96190000D02*
X153930000Y-101330000D01*
X151270000Y-96190000D02*
X151270000Y-101330000D01*
X151270000Y-101330000D02*
X153930000Y-101330000D01*
D10*
X164538095Y-79992381D02*
X164538095Y-80801905D01*
X164585714Y-80897143D01*
X164633333Y-80944762D01*
X164728571Y-80992381D01*
X164919047Y-80992381D01*
X165014285Y-80944762D01*
X165061904Y-80897143D01*
X165109523Y-80801905D01*
X165109523Y-79992381D01*
X166109523Y-80992381D02*
X165538095Y-80992381D01*
X165823809Y-80992381D02*
X165823809Y-79992381D01*
X165728571Y-80135239D01*
X165633333Y-80230477D01*
X165538095Y-80278096D01*
%LPC*%
D13*
X146500000Y-99500000D03*
X146500000Y-71000000D03*
X179000000Y-99500000D03*
X179000000Y-71000000D03*
D14*
X153000000Y-88300000D03*
X153000000Y-85760000D03*
D15*
X153000000Y-83220000D03*
D14*
X153000000Y-75600000D03*
X153000000Y-73060000D03*
D15*
X153000000Y-70520000D03*
D16*
X172920000Y-75460001D03*
X172920000Y-78000001D03*
X172920000Y-80540001D03*
X172920000Y-83080001D03*
X172920000Y-85620001D03*
X172920000Y-88160001D03*
X172920000Y-90700001D03*
X170380000Y-90700001D03*
X172920000Y-70380001D03*
X172920000Y-72920001D03*
X167840000Y-90700001D03*
X165300000Y-90700001D03*
X162760000Y-90700001D03*
X160220000Y-90700001D03*
X157680000Y-90700001D03*
X157680000Y-88160001D03*
X157680000Y-85620001D03*
X157680000Y-83080001D03*
X157680000Y-80540001D03*
X157680000Y-78000001D03*
X157680000Y-75460001D03*
X157680000Y-72920001D03*
X157680000Y-70380001D03*
D14*
X167840000Y-100000000D03*
X167840000Y-97460000D03*
D15*
X167840000Y-94920000D03*
D14*
X162760000Y-100000000D03*
X162760000Y-97460000D03*
D15*
X162760000Y-94920000D03*
D14*
X157680000Y-100000000D03*
X157680000Y-97460000D03*
D15*
X157680000Y-94920000D03*
D14*
X170380000Y-100000000D03*
X170380000Y-97460000D03*
D15*
X170380000Y-94920000D03*
D14*
X160220000Y-100000000D03*
X160220000Y-97460000D03*
D15*
X160220000Y-94920000D03*
D14*
X155140000Y-100000000D03*
X155140000Y-97460000D03*
D15*
X155140000Y-94920000D03*
D14*
X172920000Y-100000000D03*
X172920000Y-97460000D03*
D15*
X172920000Y-94920000D03*
D14*
X165300000Y-100000000D03*
X165300000Y-97460000D03*
D15*
X165300000Y-94920000D03*
D14*
X152600000Y-100000000D03*
X152600000Y-97460000D03*
D15*
X152600000Y-94920000D03*
M02*
