M48
; DRILL file {KiCad (5.1.10)-1} date 02/22/22 13:09:24
; FORMAT={-:-/ absolute / metric / decimal}
; #@! TF.CreationDate,2022-02-22T13:09:24-08:00
; #@! TF.GenerationSoftware,Kicad,Pcbnew,(5.1.10)-1
; #@! TF.FileFunction,NonPlated,1,2,NPTH
FMAT,2
METRIC
T1C0.500
T2C3.200
%
G90
G05
T1
X149.5Y-67.0
X149.5Y-68.0
X149.5Y-69.0
X149.5Y-70.0
X149.5Y-71.0
X149.5Y-72.0
X149.5Y-73.0
X149.5Y-74.0
X149.5Y-75.0
X149.5Y-95.5
X149.5Y-96.5
X149.5Y-97.5
X149.5Y-98.5
X149.5Y-99.5
X149.5Y-100.5
X149.5Y-101.5
X149.5Y-102.5
X149.5Y-103.5
X176.0Y-67.0
X176.0Y-68.0
X176.0Y-69.0
X176.0Y-70.0
X176.0Y-71.0
X176.0Y-72.0
X176.0Y-73.0
X176.0Y-74.0
X176.0Y-75.0
X176.0Y-95.5
X176.0Y-96.5
X176.0Y-97.5
X176.0Y-98.5
X176.0Y-99.5
X176.0Y-100.5
X176.0Y-101.5
X176.0Y-102.5
X176.0Y-103.5
T2
X146.5Y-71.0
X146.5Y-99.5
X179.0Y-71.0
X179.0Y-99.5
T0
M30
