G04 #@! TF.GenerationSoftware,KiCad,Pcbnew,(5.1.10)-1*
G04 #@! TF.CreationDate,2022-01-20T17:35:43-08:00*
G04 #@! TF.ProjectId,ros_sync_node,726f735f-7379-46e6-935f-6e6f64652e6b,rev?*
G04 #@! TF.SameCoordinates,Original*
G04 #@! TF.FileFunction,Soldermask,Top*
G04 #@! TF.FilePolarity,Negative*
%FSLAX46Y46*%
G04 Gerber Fmt 4.6, Leading zero omitted, Abs format (unit mm)*
G04 Created by KiCad (PCBNEW (5.1.10)-1) date 2022-01-20 17:35:43*
%MOMM*%
%LPD*%
G01*
G04 APERTURE LIST*
%ADD10C,3.200000*%
%ADD11O,1.700000X1.700000*%
%ADD12R,1.700000X1.700000*%
%ADD13C,1.524000*%
G04 APERTURE END LIST*
D10*
X146500000Y-99500000D03*
X146500000Y-71000000D03*
X179000000Y-99500000D03*
X179000000Y-71000000D03*
D11*
X153000000Y-88300000D03*
X153000000Y-85760000D03*
D12*
X153000000Y-83220000D03*
D11*
X153000000Y-75600000D03*
X153000000Y-73060000D03*
D12*
X153000000Y-70520000D03*
D13*
X172920000Y-75460001D03*
X172920000Y-78000001D03*
X172920000Y-80540001D03*
X172920000Y-83080001D03*
X172920000Y-85620001D03*
X172920000Y-88160001D03*
X172920000Y-90700001D03*
X170380000Y-90700001D03*
X172920000Y-70380001D03*
X172920000Y-72920001D03*
X167840000Y-90700001D03*
X165300000Y-90700001D03*
X162760000Y-90700001D03*
X160220000Y-90700001D03*
X157680000Y-90700001D03*
X157680000Y-88160001D03*
X157680000Y-85620001D03*
X157680000Y-83080001D03*
X157680000Y-80540001D03*
X157680000Y-78000001D03*
X157680000Y-75460001D03*
X157680000Y-72920001D03*
X157680000Y-70380001D03*
D11*
X167840000Y-100000000D03*
X167840000Y-97460000D03*
D12*
X167840000Y-94920000D03*
D11*
X162760000Y-100000000D03*
X162760000Y-97460000D03*
D12*
X162760000Y-94920000D03*
D11*
X157680000Y-100000000D03*
X157680000Y-97460000D03*
D12*
X157680000Y-94920000D03*
D11*
X170380000Y-100000000D03*
X170380000Y-97460000D03*
D12*
X170380000Y-94920000D03*
D11*
X160220000Y-100000000D03*
X160220000Y-97460000D03*
D12*
X160220000Y-94920000D03*
D11*
X155140000Y-100000000D03*
X155140000Y-97460000D03*
D12*
X155140000Y-94920000D03*
D11*
X172920000Y-100000000D03*
X172920000Y-97460000D03*
D12*
X172920000Y-94920000D03*
D11*
X165300000Y-100000000D03*
X165300000Y-97460000D03*
D12*
X165300000Y-94920000D03*
D11*
X152600000Y-100000000D03*
X152600000Y-97460000D03*
D12*
X152600000Y-94920000D03*
M02*
