G04 #@! TF.GenerationSoftware,KiCad,Pcbnew,7.0.9-7.0.9~ubuntu20.04.1*
G04 #@! TF.CreationDate,2023-12-21T14:32:47-08:00*
G04 #@! TF.ProjectId,ros_sync_node,726f735f-7379-46e6-935f-6e6f64652e6b,rev?*
G04 #@! TF.SameCoordinates,Original*
G04 #@! TF.FileFunction,Copper,L1,Top*
G04 #@! TF.FilePolarity,Positive*
%FSLAX46Y46*%
G04 Gerber Fmt 4.6, Leading zero omitted, Abs format (unit mm)*
G04 Created by KiCad (PCBNEW 7.0.9-7.0.9~ubuntu20.04.1) date 2023-12-21 14:32:47*
%MOMM*%
%LPD*%
G01*
G04 APERTURE LIST*
G04 #@! TA.AperFunction,ComponentPad*
%ADD10R,1.700000X1.700000*%
G04 #@! TD*
G04 #@! TA.AperFunction,ComponentPad*
%ADD11O,1.700000X1.700000*%
G04 #@! TD*
G04 #@! TA.AperFunction,ComponentPad*
%ADD12C,1.524000*%
G04 #@! TD*
G04 #@! TA.AperFunction,Conductor*
%ADD13C,0.250000*%
G04 #@! TD*
G04 #@! TA.AperFunction,Conductor*
%ADD14C,0.500000*%
G04 #@! TD*
G04 APERTURE END LIST*
D10*
X162760000Y-94920000D03*
D11*
X162760000Y-97460000D03*
X162760000Y-100000000D03*
D10*
X152600000Y-94920000D03*
D11*
X152600000Y-97460000D03*
X152600000Y-100000000D03*
D10*
X157680000Y-94920000D03*
D11*
X157680000Y-97460000D03*
X157680000Y-100000000D03*
D10*
X155140000Y-94920000D03*
D11*
X155140000Y-97460000D03*
X155140000Y-100000000D03*
D10*
X172920000Y-94920000D03*
D11*
X172920000Y-97460000D03*
X172920000Y-100000000D03*
D10*
X160220000Y-94920000D03*
D11*
X160220000Y-97460000D03*
X160220000Y-100000000D03*
D10*
X170380000Y-94920000D03*
D11*
X170380000Y-97460000D03*
X170380000Y-100000000D03*
D10*
X167840000Y-94920000D03*
D11*
X167840000Y-97460000D03*
X167840000Y-100000000D03*
D10*
X165300000Y-94920000D03*
D11*
X165300000Y-97460000D03*
X165300000Y-100000000D03*
D10*
X153000000Y-76920000D03*
D11*
X153000000Y-79460000D03*
X153000000Y-82000000D03*
D12*
X172920000Y-70380001D03*
X172920000Y-72920001D03*
X172920000Y-75460001D03*
X172920000Y-78000001D03*
X172920000Y-80540001D03*
X172920000Y-83080001D03*
X172920000Y-85620001D03*
X172920000Y-88160001D03*
X172920000Y-90700001D03*
X170380000Y-90700001D03*
X167840000Y-90700001D03*
X165300000Y-90700001D03*
X162760000Y-90700001D03*
X160220000Y-90700001D03*
X157680000Y-90700001D03*
X157680000Y-88160001D03*
X157680000Y-85620001D03*
X157680000Y-83080001D03*
X157680000Y-80540001D03*
X157680000Y-78000001D03*
X157680000Y-75460001D03*
X157680000Y-72920001D03*
X157680000Y-70380001D03*
D10*
X153000000Y-68000000D03*
D11*
X153000000Y-70540000D03*
X153000000Y-73080000D03*
D10*
X153000000Y-85920000D03*
D11*
X153000000Y-88460000D03*
X153000000Y-91000000D03*
D13*
X153000000Y-73080000D02*
X153000000Y-76920000D01*
X160220000Y-90700001D02*
X158855001Y-92065000D01*
X152600000Y-97460000D02*
X157680000Y-97460000D01*
X158855001Y-96284999D02*
X157680000Y-97460000D01*
X158855001Y-92065000D02*
X158855001Y-96284999D01*
X166475001Y-91875002D02*
X165300000Y-90700001D01*
X165300000Y-97460000D02*
X166475001Y-96284999D01*
X166475001Y-96284999D02*
X166475001Y-91875002D01*
X160220000Y-97460000D02*
X165300000Y-97460000D01*
X169100000Y-96200000D02*
X169100000Y-91980001D01*
X167840000Y-97460000D02*
X169100000Y-96200000D01*
X172920000Y-97460000D02*
X170380000Y-97460000D01*
X169100000Y-91980001D02*
X170380000Y-90700001D01*
X170360000Y-97460000D02*
X170380000Y-97460000D01*
X169100000Y-96200000D02*
X170360000Y-97460000D01*
X157680000Y-75460001D02*
X153680001Y-79460000D01*
X153680001Y-79460000D02*
X153000000Y-79460000D01*
X157380001Y-85920000D02*
X157680000Y-85620001D01*
X153000000Y-85920000D02*
X157380001Y-85920000D01*
D14*
X153159999Y-70380001D02*
X153000000Y-70540000D01*
X157680000Y-70380001D02*
X153159999Y-70380001D01*
X151700000Y-87160000D02*
X153000000Y-88460000D01*
X151700000Y-71840000D02*
X151700000Y-87160000D01*
X153000000Y-70540000D02*
X151700000Y-71840000D01*
G04 #@! TA.AperFunction,Conductor*
G36*
X151208512Y-100086830D02*
G01*
X151246896Y-100146556D01*
X151251570Y-100171649D01*
X151255932Y-100224292D01*
X151311176Y-100442449D01*
X151311179Y-100442456D01*
X151401580Y-100648548D01*
X151524674Y-100836958D01*
X151677097Y-101002534D01*
X151854698Y-101140767D01*
X151854699Y-101140768D01*
X152052628Y-101247882D01*
X152052630Y-101247883D01*
X152265483Y-101320955D01*
X152265492Y-101320957D01*
X152346000Y-101334391D01*
X152346000Y-100433674D01*
X152457685Y-100484680D01*
X152564237Y-100500000D01*
X152635763Y-100500000D01*
X152742315Y-100484680D01*
X152854000Y-100433674D01*
X152854000Y-101334391D01*
X152934507Y-101320957D01*
X152934516Y-101320955D01*
X153147369Y-101247883D01*
X153147371Y-101247882D01*
X153345300Y-101140768D01*
X153345301Y-101140767D01*
X153522902Y-101002534D01*
X153675327Y-100836955D01*
X153764517Y-100700441D01*
X153818521Y-100654352D01*
X153888868Y-100644777D01*
X153953226Y-100674754D01*
X153975483Y-100700441D01*
X154064672Y-100836955D01*
X154217097Y-101002534D01*
X154394698Y-101140767D01*
X154394699Y-101140768D01*
X154592628Y-101247882D01*
X154592630Y-101247883D01*
X154805483Y-101320955D01*
X154805492Y-101320957D01*
X154886000Y-101334391D01*
X154886000Y-100433674D01*
X154997685Y-100484680D01*
X155104237Y-100500000D01*
X155175763Y-100500000D01*
X155282315Y-100484680D01*
X155394000Y-100433674D01*
X155394000Y-101334390D01*
X155474507Y-101320957D01*
X155474516Y-101320955D01*
X155687369Y-101247883D01*
X155687371Y-101247882D01*
X155885300Y-101140768D01*
X155885301Y-101140767D01*
X156062902Y-101002534D01*
X156215327Y-100836955D01*
X156304517Y-100700441D01*
X156358521Y-100654352D01*
X156428868Y-100644777D01*
X156493226Y-100674754D01*
X156515483Y-100700441D01*
X156604672Y-100836955D01*
X156757097Y-101002534D01*
X156934698Y-101140767D01*
X156934699Y-101140768D01*
X157132628Y-101247882D01*
X157132630Y-101247883D01*
X157345483Y-101320955D01*
X157345492Y-101320957D01*
X157426000Y-101334391D01*
X157426000Y-100433674D01*
X157537685Y-100484680D01*
X157644237Y-100500000D01*
X157715763Y-100500000D01*
X157822315Y-100484680D01*
X157934000Y-100433674D01*
X157934000Y-101334391D01*
X158014507Y-101320957D01*
X158014516Y-101320955D01*
X158227369Y-101247883D01*
X158227371Y-101247882D01*
X158425300Y-101140768D01*
X158425301Y-101140767D01*
X158602902Y-101002534D01*
X158755327Y-100836955D01*
X158844517Y-100700441D01*
X158898521Y-100654352D01*
X158968868Y-100644777D01*
X159033226Y-100674754D01*
X159055483Y-100700441D01*
X159144672Y-100836955D01*
X159297097Y-101002534D01*
X159474698Y-101140767D01*
X159474699Y-101140768D01*
X159672628Y-101247882D01*
X159672630Y-101247883D01*
X159885483Y-101320955D01*
X159885492Y-101320957D01*
X159966000Y-101334391D01*
X159966000Y-100433674D01*
X160077685Y-100484680D01*
X160184237Y-100500000D01*
X160255763Y-100500000D01*
X160362315Y-100484680D01*
X160474000Y-100433674D01*
X160474000Y-101334391D01*
X160554507Y-101320957D01*
X160554516Y-101320955D01*
X160767369Y-101247883D01*
X160767371Y-101247882D01*
X160965300Y-101140768D01*
X160965301Y-101140767D01*
X161142902Y-101002534D01*
X161295327Y-100836955D01*
X161384517Y-100700441D01*
X161438521Y-100654352D01*
X161508868Y-100644777D01*
X161573226Y-100674754D01*
X161595483Y-100700441D01*
X161684672Y-100836955D01*
X161837097Y-101002534D01*
X162014698Y-101140767D01*
X162014699Y-101140768D01*
X162212628Y-101247882D01*
X162212630Y-101247883D01*
X162425483Y-101320955D01*
X162425492Y-101320957D01*
X162506000Y-101334391D01*
X162506000Y-100433674D01*
X162617685Y-100484680D01*
X162724237Y-100500000D01*
X162795763Y-100500000D01*
X162902315Y-100484680D01*
X163014000Y-100433674D01*
X163014000Y-101334391D01*
X163094507Y-101320957D01*
X163094516Y-101320955D01*
X163307369Y-101247883D01*
X163307371Y-101247882D01*
X163505300Y-101140768D01*
X163505301Y-101140767D01*
X163682902Y-101002534D01*
X163835327Y-100836955D01*
X163924517Y-100700441D01*
X163978521Y-100654352D01*
X164048868Y-100644777D01*
X164113226Y-100674754D01*
X164135483Y-100700441D01*
X164224672Y-100836955D01*
X164377097Y-101002534D01*
X164554698Y-101140767D01*
X164554699Y-101140768D01*
X164752628Y-101247882D01*
X164752630Y-101247883D01*
X164965483Y-101320955D01*
X164965492Y-101320957D01*
X165046000Y-101334391D01*
X165046000Y-100433674D01*
X165157685Y-100484680D01*
X165264237Y-100500000D01*
X165335763Y-100500000D01*
X165442315Y-100484680D01*
X165554000Y-100433674D01*
X165554000Y-101334390D01*
X165634507Y-101320957D01*
X165634516Y-101320955D01*
X165847369Y-101247883D01*
X165847371Y-101247882D01*
X166045300Y-101140768D01*
X166045301Y-101140767D01*
X166222902Y-101002534D01*
X166375327Y-100836955D01*
X166464517Y-100700441D01*
X166518521Y-100654352D01*
X166588868Y-100644777D01*
X166653226Y-100674754D01*
X166675483Y-100700441D01*
X166764672Y-100836955D01*
X166917097Y-101002534D01*
X167094698Y-101140767D01*
X167094699Y-101140768D01*
X167292628Y-101247882D01*
X167292630Y-101247883D01*
X167505483Y-101320955D01*
X167505492Y-101320957D01*
X167586000Y-101334391D01*
X167586000Y-100433674D01*
X167697685Y-100484680D01*
X167804237Y-100500000D01*
X167875763Y-100500000D01*
X167982315Y-100484680D01*
X168094000Y-100433674D01*
X168094000Y-101334391D01*
X168174507Y-101320957D01*
X168174516Y-101320955D01*
X168387369Y-101247883D01*
X168387371Y-101247882D01*
X168585300Y-101140768D01*
X168585301Y-101140767D01*
X168762902Y-101002534D01*
X168915327Y-100836955D01*
X169004517Y-100700441D01*
X169058521Y-100654352D01*
X169128868Y-100644777D01*
X169193226Y-100674754D01*
X169215483Y-100700441D01*
X169304672Y-100836955D01*
X169457097Y-101002534D01*
X169634698Y-101140767D01*
X169634699Y-101140768D01*
X169832628Y-101247882D01*
X169832630Y-101247883D01*
X170045483Y-101320955D01*
X170045492Y-101320957D01*
X170126000Y-101334391D01*
X170126000Y-100433674D01*
X170237685Y-100484680D01*
X170344237Y-100500000D01*
X170415763Y-100500000D01*
X170522315Y-100484680D01*
X170634000Y-100433674D01*
X170634000Y-101334391D01*
X170714507Y-101320957D01*
X170714516Y-101320955D01*
X170927369Y-101247883D01*
X170927371Y-101247882D01*
X171125300Y-101140768D01*
X171125301Y-101140767D01*
X171302902Y-101002534D01*
X171455327Y-100836955D01*
X171544517Y-100700441D01*
X171598521Y-100654352D01*
X171668868Y-100644777D01*
X171733226Y-100674754D01*
X171755483Y-100700441D01*
X171844672Y-100836955D01*
X171997097Y-101002534D01*
X172174698Y-101140767D01*
X172174699Y-101140768D01*
X172372628Y-101247882D01*
X172372630Y-101247883D01*
X172585483Y-101320955D01*
X172585492Y-101320957D01*
X172666000Y-101334391D01*
X172666000Y-100433674D01*
X172777685Y-100484680D01*
X172884237Y-100500000D01*
X172955763Y-100500000D01*
X173062315Y-100484680D01*
X173174000Y-100433674D01*
X173174000Y-101334391D01*
X173254507Y-101320957D01*
X173254516Y-101320955D01*
X173467369Y-101247883D01*
X173467371Y-101247882D01*
X173665300Y-101140768D01*
X173665301Y-101140767D01*
X173842902Y-101002534D01*
X173995325Y-100836958D01*
X174118419Y-100648548D01*
X174208819Y-100442458D01*
X174251855Y-100272515D01*
X174287968Y-100211389D01*
X174351395Y-100179490D01*
X174421999Y-100186947D01*
X174477364Y-100231391D01*
X174499911Y-100298712D01*
X174500000Y-100303446D01*
X174500000Y-104298500D01*
X174479998Y-104366621D01*
X174426342Y-104413114D01*
X174374000Y-104424500D01*
X151126000Y-104424500D01*
X151057879Y-104404498D01*
X151011386Y-104350842D01*
X151000000Y-104298500D01*
X151000000Y-100182054D01*
X151020002Y-100113933D01*
X151073658Y-100067440D01*
X151143932Y-100057336D01*
X151208512Y-100086830D01*
G37*
G04 #@! TD.AperFunction*
G04 #@! TA.AperFunction,Conductor*
G36*
X154680507Y-99790156D02*
G01*
X154640000Y-99928111D01*
X154640000Y-100071889D01*
X154680507Y-100209844D01*
X154708884Y-100254000D01*
X153031116Y-100254000D01*
X153059493Y-100209844D01*
X153100000Y-100071889D01*
X153100000Y-99928111D01*
X153059493Y-99790156D01*
X153031116Y-99746000D01*
X154708884Y-99746000D01*
X154680507Y-99790156D01*
G37*
G04 #@! TD.AperFunction*
G04 #@! TA.AperFunction,Conductor*
G36*
X157220507Y-99790156D02*
G01*
X157180000Y-99928111D01*
X157180000Y-100071889D01*
X157220507Y-100209844D01*
X157248884Y-100254000D01*
X155571116Y-100254000D01*
X155599493Y-100209844D01*
X155640000Y-100071889D01*
X155640000Y-99928111D01*
X155599493Y-99790156D01*
X155571116Y-99746000D01*
X157248884Y-99746000D01*
X157220507Y-99790156D01*
G37*
G04 #@! TD.AperFunction*
G04 #@! TA.AperFunction,Conductor*
G36*
X159760507Y-99790156D02*
G01*
X159720000Y-99928111D01*
X159720000Y-100071889D01*
X159760507Y-100209844D01*
X159788884Y-100254000D01*
X158111116Y-100254000D01*
X158139493Y-100209844D01*
X158180000Y-100071889D01*
X158180000Y-99928111D01*
X158139493Y-99790156D01*
X158111116Y-99746000D01*
X159788884Y-99746000D01*
X159760507Y-99790156D01*
G37*
G04 #@! TD.AperFunction*
G04 #@! TA.AperFunction,Conductor*
G36*
X162300507Y-99790156D02*
G01*
X162260000Y-99928111D01*
X162260000Y-100071889D01*
X162300507Y-100209844D01*
X162328884Y-100254000D01*
X160651116Y-100254000D01*
X160679493Y-100209844D01*
X160720000Y-100071889D01*
X160720000Y-99928111D01*
X160679493Y-99790156D01*
X160651116Y-99746000D01*
X162328884Y-99746000D01*
X162300507Y-99790156D01*
G37*
G04 #@! TD.AperFunction*
G04 #@! TA.AperFunction,Conductor*
G36*
X164840507Y-99790156D02*
G01*
X164800000Y-99928111D01*
X164800000Y-100071889D01*
X164840507Y-100209844D01*
X164868884Y-100254000D01*
X163191116Y-100254000D01*
X163219493Y-100209844D01*
X163260000Y-100071889D01*
X163260000Y-99928111D01*
X163219493Y-99790156D01*
X163191116Y-99746000D01*
X164868884Y-99746000D01*
X164840507Y-99790156D01*
G37*
G04 #@! TD.AperFunction*
G04 #@! TA.AperFunction,Conductor*
G36*
X167380507Y-99790156D02*
G01*
X167340000Y-99928111D01*
X167340000Y-100071889D01*
X167380507Y-100209844D01*
X167408884Y-100254000D01*
X165731116Y-100254000D01*
X165759493Y-100209844D01*
X165800000Y-100071889D01*
X165800000Y-99928111D01*
X165759493Y-99790156D01*
X165731116Y-99746000D01*
X167408884Y-99746000D01*
X167380507Y-99790156D01*
G37*
G04 #@! TD.AperFunction*
G04 #@! TA.AperFunction,Conductor*
G36*
X169920507Y-99790156D02*
G01*
X169880000Y-99928111D01*
X169880000Y-100071889D01*
X169920507Y-100209844D01*
X169948884Y-100254000D01*
X168271116Y-100254000D01*
X168299493Y-100209844D01*
X168340000Y-100071889D01*
X168340000Y-99928111D01*
X168299493Y-99790156D01*
X168271116Y-99746000D01*
X169948884Y-99746000D01*
X169920507Y-99790156D01*
G37*
G04 #@! TD.AperFunction*
G04 #@! TA.AperFunction,Conductor*
G36*
X172460507Y-99790156D02*
G01*
X172420000Y-99928111D01*
X172420000Y-100071889D01*
X172460507Y-100209844D01*
X172488884Y-100254000D01*
X170811116Y-100254000D01*
X170839493Y-100209844D01*
X170880000Y-100071889D01*
X170880000Y-99928111D01*
X170839493Y-99790156D01*
X170811116Y-99746000D01*
X172488884Y-99746000D01*
X172460507Y-99790156D01*
G37*
G04 #@! TD.AperFunction*
G04 #@! TA.AperFunction,Conductor*
G36*
X154680507Y-94710156D02*
G01*
X154640000Y-94848111D01*
X154640000Y-94991889D01*
X154680507Y-95129844D01*
X154708884Y-95174000D01*
X153031116Y-95174000D01*
X153059493Y-95129844D01*
X153100000Y-94991889D01*
X153100000Y-94848111D01*
X153059493Y-94710156D01*
X153031116Y-94666000D01*
X154708884Y-94666000D01*
X154680507Y-94710156D01*
G37*
G04 #@! TD.AperFunction*
G04 #@! TA.AperFunction,Conductor*
G36*
X157220507Y-94710156D02*
G01*
X157180000Y-94848111D01*
X157180000Y-94991889D01*
X157220507Y-95129844D01*
X157248884Y-95174000D01*
X155571116Y-95174000D01*
X155599493Y-95129844D01*
X155640000Y-94991889D01*
X155640000Y-94848111D01*
X155599493Y-94710156D01*
X155571116Y-94666000D01*
X157248884Y-94666000D01*
X157220507Y-94710156D01*
G37*
G04 #@! TD.AperFunction*
G04 #@! TA.AperFunction,Conductor*
G36*
X159760507Y-94710156D02*
G01*
X159720000Y-94848111D01*
X159720000Y-94991889D01*
X159760507Y-95129844D01*
X159788884Y-95174000D01*
X159614501Y-95174000D01*
X159546380Y-95153998D01*
X159499887Y-95100342D01*
X159488501Y-95048000D01*
X159488501Y-94792000D01*
X159508503Y-94723879D01*
X159562159Y-94677386D01*
X159614501Y-94666000D01*
X159788884Y-94666000D01*
X159760507Y-94710156D01*
G37*
G04 #@! TD.AperFunction*
G04 #@! TA.AperFunction,Conductor*
G36*
X162300507Y-94710156D02*
G01*
X162260000Y-94848111D01*
X162260000Y-94991889D01*
X162300507Y-95129844D01*
X162328884Y-95174000D01*
X160651116Y-95174000D01*
X160679493Y-95129844D01*
X160720000Y-94991889D01*
X160720000Y-94848111D01*
X160679493Y-94710156D01*
X160651116Y-94666000D01*
X162328884Y-94666000D01*
X162300507Y-94710156D01*
G37*
G04 #@! TD.AperFunction*
G04 #@! TA.AperFunction,Conductor*
G36*
X164840507Y-94710156D02*
G01*
X164800000Y-94848111D01*
X164800000Y-94991889D01*
X164840507Y-95129844D01*
X164868884Y-95174000D01*
X163191116Y-95174000D01*
X163219493Y-95129844D01*
X163260000Y-94991889D01*
X163260000Y-94848111D01*
X163219493Y-94710156D01*
X163191116Y-94666000D01*
X164868884Y-94666000D01*
X164840507Y-94710156D01*
G37*
G04 #@! TD.AperFunction*
G04 #@! TA.AperFunction,Conductor*
G36*
X167380507Y-94710156D02*
G01*
X167340000Y-94848111D01*
X167340000Y-94991889D01*
X167380507Y-95129844D01*
X167408884Y-95174000D01*
X167234501Y-95174000D01*
X167166380Y-95153998D01*
X167119887Y-95100342D01*
X167108501Y-95048000D01*
X167108501Y-94792000D01*
X167128503Y-94723879D01*
X167182159Y-94677386D01*
X167234501Y-94666000D01*
X167408884Y-94666000D01*
X167380507Y-94710156D01*
G37*
G04 #@! TD.AperFunction*
G04 #@! TA.AperFunction,Conductor*
G36*
X168408621Y-94686002D02*
G01*
X168455114Y-94739658D01*
X168466500Y-94792000D01*
X168466500Y-95048000D01*
X168446498Y-95116121D01*
X168392842Y-95162614D01*
X168340500Y-95174000D01*
X168271116Y-95174000D01*
X168299493Y-95129844D01*
X168340000Y-94991889D01*
X168340000Y-94848111D01*
X168299493Y-94710156D01*
X168271116Y-94666000D01*
X168340500Y-94666000D01*
X168408621Y-94686002D01*
G37*
G04 #@! TD.AperFunction*
G04 #@! TA.AperFunction,Conductor*
G36*
X169920507Y-94710156D02*
G01*
X169880000Y-94848111D01*
X169880000Y-94991889D01*
X169920507Y-95129844D01*
X169948884Y-95174000D01*
X169859500Y-95174000D01*
X169791379Y-95153998D01*
X169744886Y-95100342D01*
X169733500Y-95048000D01*
X169733500Y-94792000D01*
X169753502Y-94723879D01*
X169807158Y-94677386D01*
X169859500Y-94666000D01*
X169948884Y-94666000D01*
X169920507Y-94710156D01*
G37*
G04 #@! TD.AperFunction*
G04 #@! TA.AperFunction,Conductor*
G36*
X172460507Y-94710156D02*
G01*
X172420000Y-94848111D01*
X172420000Y-94991889D01*
X172460507Y-95129844D01*
X172488884Y-95174000D01*
X170811116Y-95174000D01*
X170839493Y-95129844D01*
X170880000Y-94991889D01*
X170880000Y-94848111D01*
X170839493Y-94710156D01*
X170811116Y-94666000D01*
X172488884Y-94666000D01*
X172460507Y-94710156D01*
G37*
G04 #@! TD.AperFunction*
G04 #@! TA.AperFunction,Conductor*
G36*
X158163622Y-94686002D02*
G01*
X158210115Y-94739658D01*
X158221501Y-94792000D01*
X158221501Y-95048000D01*
X158201499Y-95116121D01*
X158147843Y-95162614D01*
X158113653Y-95170051D01*
X158139493Y-95129844D01*
X158180000Y-94991889D01*
X158180000Y-94848111D01*
X158139493Y-94710156D01*
X158114747Y-94671651D01*
X158163622Y-94686002D01*
G37*
G04 #@! TD.AperFunction*
G04 #@! TA.AperFunction,Conductor*
G36*
X165783622Y-94686002D02*
G01*
X165830115Y-94739658D01*
X165841501Y-94792000D01*
X165841501Y-95048000D01*
X165821499Y-95116121D01*
X165767843Y-95162614D01*
X165733653Y-95170051D01*
X165759493Y-95129844D01*
X165800000Y-94991889D01*
X165800000Y-94848111D01*
X165759493Y-94710156D01*
X165734747Y-94671651D01*
X165783622Y-94686002D01*
G37*
G04 #@! TD.AperFunction*
G04 #@! TA.AperFunction,Conductor*
G36*
X156832672Y-86573502D02*
G01*
X156853646Y-86590405D01*
X156860219Y-86596978D01*
X156860223Y-86596981D01*
X156860227Y-86596984D01*
X156964124Y-86669733D01*
X157042323Y-86724489D01*
X157152373Y-86775806D01*
X157205658Y-86822723D01*
X157225119Y-86891000D01*
X157204577Y-86958960D01*
X157152373Y-87004196D01*
X157042323Y-87055513D01*
X156860222Y-87183021D01*
X156860216Y-87183026D01*
X156703025Y-87340217D01*
X156703020Y-87340223D01*
X156575512Y-87522324D01*
X156481561Y-87723802D01*
X156481560Y-87723805D01*
X156424022Y-87938538D01*
X156404647Y-88160001D01*
X156424022Y-88381464D01*
X156445066Y-88459999D01*
X156481559Y-88596194D01*
X156481561Y-88596200D01*
X156575511Y-88797676D01*
X156575512Y-88797678D01*
X156703016Y-88979773D01*
X156703020Y-88979778D01*
X156703023Y-88979782D01*
X156860219Y-89136978D01*
X156860223Y-89136981D01*
X156860227Y-89136984D01*
X156964124Y-89209733D01*
X157042323Y-89264489D01*
X157152373Y-89315806D01*
X157205658Y-89362723D01*
X157225119Y-89431000D01*
X157204577Y-89498960D01*
X157152373Y-89544196D01*
X157042323Y-89595513D01*
X156860222Y-89723021D01*
X156860216Y-89723026D01*
X156703025Y-89880217D01*
X156703020Y-89880223D01*
X156575512Y-90062324D01*
X156490273Y-90245120D01*
X156481560Y-90263805D01*
X156424022Y-90478538D01*
X156404647Y-90700001D01*
X156424022Y-90921464D01*
X156453314Y-91030782D01*
X156481559Y-91136194D01*
X156481561Y-91136200D01*
X156575511Y-91337676D01*
X156575512Y-91337678D01*
X156703016Y-91519773D01*
X156703020Y-91519778D01*
X156703023Y-91519782D01*
X156860219Y-91676978D01*
X156860223Y-91676981D01*
X156860227Y-91676984D01*
X156958991Y-91746139D01*
X157042323Y-91804489D01*
X157243804Y-91898441D01*
X157458537Y-91955979D01*
X157680000Y-91975354D01*
X157901463Y-91955979D01*
X158058401Y-91913927D01*
X158129376Y-91915617D01*
X158188172Y-91955411D01*
X158216120Y-92020675D01*
X158216949Y-92039590D01*
X158216780Y-92044942D01*
X158221221Y-92091917D01*
X158221501Y-92097850D01*
X158221501Y-93436000D01*
X158201499Y-93504121D01*
X158147843Y-93550614D01*
X158095501Y-93562000D01*
X157934000Y-93562000D01*
X157934000Y-94486325D01*
X157822315Y-94435320D01*
X157715763Y-94420000D01*
X157644237Y-94420000D01*
X157537685Y-94435320D01*
X157426000Y-94486325D01*
X157426000Y-93562000D01*
X156781402Y-93562000D01*
X156720906Y-93568505D01*
X156584035Y-93619555D01*
X156584034Y-93619555D01*
X156485509Y-93693311D01*
X156418989Y-93718122D01*
X156349614Y-93703030D01*
X156334491Y-93693311D01*
X156235965Y-93619555D01*
X156099093Y-93568505D01*
X156038597Y-93562000D01*
X155394000Y-93562000D01*
X155394000Y-94486325D01*
X155282315Y-94435320D01*
X155175763Y-94420000D01*
X155104237Y-94420000D01*
X154997685Y-94435320D01*
X154886000Y-94486325D01*
X154886000Y-93562000D01*
X154241402Y-93562000D01*
X154180906Y-93568505D01*
X154044035Y-93619555D01*
X154044034Y-93619555D01*
X153945509Y-93693311D01*
X153878989Y-93718122D01*
X153809614Y-93703030D01*
X153794491Y-93693311D01*
X153695965Y-93619555D01*
X153559093Y-93568505D01*
X153498597Y-93562000D01*
X152854000Y-93562000D01*
X152854000Y-94486325D01*
X152742315Y-94435320D01*
X152635763Y-94420000D01*
X152564237Y-94420000D01*
X152457685Y-94435320D01*
X152346000Y-94486325D01*
X152346000Y-93562000D01*
X151701402Y-93562000D01*
X151640906Y-93568505D01*
X151504035Y-93619555D01*
X151504034Y-93619555D01*
X151387095Y-93707095D01*
X151299555Y-93824034D01*
X151299555Y-93824035D01*
X151245751Y-93968291D01*
X151244417Y-93967793D01*
X151213491Y-94022103D01*
X151150582Y-94055011D01*
X151079868Y-94048683D01*
X151023800Y-94005129D01*
X151000181Y-93938176D01*
X151000000Y-93931432D01*
X151000000Y-87836871D01*
X151020002Y-87768750D01*
X151073658Y-87722257D01*
X151143932Y-87712153D01*
X151208512Y-87741647D01*
X151215095Y-87747776D01*
X151617774Y-88150455D01*
X151651800Y-88212767D01*
X151654249Y-88249955D01*
X151636844Y-88459999D01*
X151655437Y-88684375D01*
X151710702Y-88902612D01*
X151710703Y-88902613D01*
X151801141Y-89108793D01*
X151924275Y-89297265D01*
X151924279Y-89297270D01*
X152076762Y-89462908D01*
X152120922Y-89497279D01*
X152254424Y-89601189D01*
X152288205Y-89619470D01*
X152338596Y-89669482D01*
X152353949Y-89738799D01*
X152329389Y-89805412D01*
X152288209Y-89841096D01*
X152254704Y-89859228D01*
X152254698Y-89859232D01*
X152077097Y-89997465D01*
X151924674Y-90163041D01*
X151801580Y-90351451D01*
X151711179Y-90557543D01*
X151711176Y-90557550D01*
X151663455Y-90745999D01*
X151663456Y-90746000D01*
X152568884Y-90746000D01*
X152540507Y-90790156D01*
X152500000Y-90928111D01*
X152500000Y-91071889D01*
X152540507Y-91209844D01*
X152568884Y-91254000D01*
X151663455Y-91254000D01*
X151711176Y-91442449D01*
X151711179Y-91442456D01*
X151801580Y-91648548D01*
X151924674Y-91836958D01*
X152077097Y-92002534D01*
X152254698Y-92140767D01*
X152254699Y-92140768D01*
X152452628Y-92247882D01*
X152452630Y-92247883D01*
X152665483Y-92320955D01*
X152665492Y-92320957D01*
X152746000Y-92334391D01*
X152746000Y-91433674D01*
X152857685Y-91484680D01*
X152964237Y-91500000D01*
X153035763Y-91500000D01*
X153142315Y-91484680D01*
X153254000Y-91433674D01*
X153254000Y-92334390D01*
X153334507Y-92320957D01*
X153334516Y-92320955D01*
X153547369Y-92247883D01*
X153547371Y-92247882D01*
X153745300Y-92140768D01*
X153745301Y-92140767D01*
X153922902Y-92002534D01*
X154075325Y-91836958D01*
X154198419Y-91648548D01*
X154288820Y-91442456D01*
X154288823Y-91442449D01*
X154336544Y-91254000D01*
X153431116Y-91254000D01*
X153459493Y-91209844D01*
X153500000Y-91071889D01*
X153500000Y-90928111D01*
X153459493Y-90790156D01*
X153431116Y-90746000D01*
X154336544Y-90746000D01*
X154336544Y-90745999D01*
X154288823Y-90557550D01*
X154288820Y-90557543D01*
X154198419Y-90351451D01*
X154075325Y-90163041D01*
X153922902Y-89997465D01*
X153745301Y-89859232D01*
X153745300Y-89859231D01*
X153711791Y-89841097D01*
X153661401Y-89791083D01*
X153646050Y-89721766D01*
X153670612Y-89655153D01*
X153711790Y-89619472D01*
X153745576Y-89601189D01*
X153923240Y-89462906D01*
X154075722Y-89297268D01*
X154198860Y-89108791D01*
X154289296Y-88902616D01*
X154344564Y-88684368D01*
X154363156Y-88460000D01*
X154344564Y-88235632D01*
X154289296Y-88017384D01*
X154198860Y-87811209D01*
X154141756Y-87723805D01*
X154075724Y-87622734D01*
X154075719Y-87622729D01*
X154024973Y-87567605D01*
X153932524Y-87467179D01*
X153901103Y-87403514D01*
X153909090Y-87332968D01*
X153953948Y-87277939D01*
X153981183Y-87263789D01*
X154096204Y-87220889D01*
X154213261Y-87133261D01*
X154300889Y-87016204D01*
X154351989Y-86879201D01*
X154352336Y-86875979D01*
X154358499Y-86818649D01*
X154358500Y-86818632D01*
X154358500Y-86679500D01*
X154378502Y-86611379D01*
X154432158Y-86564886D01*
X154484500Y-86553500D01*
X156764551Y-86553500D01*
X156832672Y-86573502D01*
G37*
G04 #@! TD.AperFunction*
G04 #@! TA.AperFunction,Conductor*
G36*
X164098959Y-91175424D02*
G01*
X164144195Y-91227628D01*
X164195511Y-91337676D01*
X164195512Y-91337678D01*
X164323016Y-91519773D01*
X164323020Y-91519778D01*
X164323023Y-91519782D01*
X164480219Y-91676978D01*
X164480223Y-91676981D01*
X164480227Y-91676984D01*
X164578991Y-91746139D01*
X164662323Y-91804489D01*
X164863804Y-91898441D01*
X165078537Y-91955979D01*
X165300000Y-91975354D01*
X165521463Y-91955979D01*
X165560513Y-91945515D01*
X165631486Y-91947202D01*
X165682220Y-91978125D01*
X165804596Y-92100501D01*
X165838622Y-92162813D01*
X165841501Y-92189596D01*
X165841501Y-93436000D01*
X165821499Y-93504121D01*
X165767843Y-93550614D01*
X165715501Y-93562000D01*
X165554000Y-93562000D01*
X165554000Y-94486325D01*
X165442315Y-94435320D01*
X165335763Y-94420000D01*
X165264237Y-94420000D01*
X165157685Y-94435320D01*
X165046000Y-94486325D01*
X165046000Y-93562000D01*
X164401402Y-93562000D01*
X164340906Y-93568505D01*
X164204035Y-93619555D01*
X164204034Y-93619555D01*
X164105509Y-93693311D01*
X164038989Y-93718122D01*
X163969614Y-93703030D01*
X163954491Y-93693311D01*
X163855965Y-93619555D01*
X163719093Y-93568505D01*
X163658597Y-93562000D01*
X163014000Y-93562000D01*
X163014000Y-94486325D01*
X162902315Y-94435320D01*
X162795763Y-94420000D01*
X162724237Y-94420000D01*
X162617685Y-94435320D01*
X162506000Y-94486325D01*
X162506000Y-93562000D01*
X161861402Y-93562000D01*
X161800906Y-93568505D01*
X161664035Y-93619555D01*
X161664034Y-93619555D01*
X161565509Y-93693311D01*
X161498989Y-93718122D01*
X161429614Y-93703030D01*
X161414491Y-93693311D01*
X161315965Y-93619555D01*
X161179093Y-93568505D01*
X161118597Y-93562000D01*
X160474000Y-93562000D01*
X160474000Y-94486325D01*
X160362315Y-94435320D01*
X160255763Y-94420000D01*
X160184237Y-94420000D01*
X160077685Y-94435320D01*
X159966000Y-94486325D01*
X159966000Y-93562000D01*
X159614501Y-93562000D01*
X159546380Y-93541998D01*
X159499887Y-93488342D01*
X159488501Y-93436000D01*
X159488501Y-92379594D01*
X159508503Y-92311473D01*
X159525406Y-92290499D01*
X159837779Y-91978126D01*
X159900091Y-91944100D01*
X159959486Y-91945515D01*
X159998533Y-91955978D01*
X159998534Y-91955978D01*
X159998537Y-91955979D01*
X160220000Y-91975354D01*
X160441463Y-91955979D01*
X160656196Y-91898441D01*
X160857677Y-91804489D01*
X161039781Y-91676978D01*
X161196977Y-91519782D01*
X161324488Y-91337678D01*
X161375805Y-91227627D01*
X161422722Y-91174343D01*
X161490999Y-91154882D01*
X161558959Y-91175424D01*
X161604195Y-91227628D01*
X161655511Y-91337676D01*
X161655512Y-91337678D01*
X161783016Y-91519773D01*
X161783020Y-91519778D01*
X161783023Y-91519782D01*
X161940219Y-91676978D01*
X161940223Y-91676981D01*
X161940227Y-91676984D01*
X162038991Y-91746139D01*
X162122323Y-91804489D01*
X162323804Y-91898441D01*
X162538537Y-91955979D01*
X162760000Y-91975354D01*
X162981463Y-91955979D01*
X163196196Y-91898441D01*
X163397677Y-91804489D01*
X163579781Y-91676978D01*
X163736977Y-91519782D01*
X163864488Y-91337678D01*
X163915805Y-91227627D01*
X163962722Y-91174343D01*
X164030999Y-91154882D01*
X164098959Y-91175424D01*
G37*
G04 #@! TD.AperFunction*
G04 #@! TA.AperFunction,Conductor*
G36*
X167279252Y-91840741D02*
G01*
X167287819Y-91844356D01*
X167403804Y-91898441D01*
X167618537Y-91955979D01*
X167840000Y-91975354D01*
X168061463Y-91955979D01*
X168276196Y-91898441D01*
X168276201Y-91898438D01*
X168276203Y-91898438D01*
X168286492Y-91893640D01*
X168356683Y-91882977D01*
X168421497Y-91911955D01*
X168460355Y-91971374D01*
X168465186Y-91995975D01*
X168466220Y-92006918D01*
X168466500Y-92012851D01*
X168466500Y-93436000D01*
X168446498Y-93504121D01*
X168392842Y-93550614D01*
X168340500Y-93562000D01*
X168094000Y-93562000D01*
X168094000Y-94486325D01*
X167982315Y-94435320D01*
X167875763Y-94420000D01*
X167804237Y-94420000D01*
X167697685Y-94435320D01*
X167586000Y-94486325D01*
X167586000Y-93562000D01*
X167234501Y-93562000D01*
X167166380Y-93541998D01*
X167119887Y-93488342D01*
X167108501Y-93436000D01*
X167108501Y-91958851D01*
X167111530Y-91931388D01*
X167111597Y-91931088D01*
X167145966Y-91868964D01*
X167208466Y-91835284D01*
X167279252Y-91840741D01*
G37*
G04 #@! TD.AperFunction*
G04 #@! TA.AperFunction,Conductor*
G36*
X174442121Y-66095502D02*
G01*
X174488614Y-66149158D01*
X174500000Y-66201500D01*
X174500000Y-93875181D01*
X174479998Y-93943302D01*
X174426342Y-93989795D01*
X174356068Y-93999899D01*
X174291488Y-93970405D01*
X174255944Y-93919214D01*
X174220443Y-93824033D01*
X174132904Y-93707095D01*
X174015965Y-93619555D01*
X173879093Y-93568505D01*
X173818597Y-93562000D01*
X173174000Y-93562000D01*
X173174000Y-94486325D01*
X173062315Y-94435320D01*
X172955763Y-94420000D01*
X172884237Y-94420000D01*
X172777685Y-94435320D01*
X172666000Y-94486325D01*
X172666000Y-93562000D01*
X172021402Y-93562000D01*
X171960906Y-93568505D01*
X171824035Y-93619555D01*
X171824034Y-93619555D01*
X171725509Y-93693311D01*
X171658989Y-93718122D01*
X171589614Y-93703030D01*
X171574491Y-93693311D01*
X171475965Y-93619555D01*
X171339093Y-93568505D01*
X171278597Y-93562000D01*
X170634000Y-93562000D01*
X170634000Y-94486325D01*
X170522315Y-94435320D01*
X170415763Y-94420000D01*
X170344237Y-94420000D01*
X170237685Y-94435320D01*
X170126000Y-94486325D01*
X170126000Y-93562000D01*
X169859500Y-93562000D01*
X169791379Y-93541998D01*
X169744886Y-93488342D01*
X169733500Y-93436000D01*
X169733500Y-92294595D01*
X169753502Y-92226474D01*
X169770405Y-92205500D01*
X169997779Y-91978126D01*
X170060091Y-91944100D01*
X170119486Y-91945515D01*
X170158533Y-91955978D01*
X170158534Y-91955978D01*
X170158537Y-91955979D01*
X170380000Y-91975354D01*
X170601463Y-91955979D01*
X170816196Y-91898441D01*
X171017677Y-91804489D01*
X171199781Y-91676978D01*
X171356977Y-91519782D01*
X171484488Y-91337678D01*
X171535805Y-91227627D01*
X171582722Y-91174343D01*
X171650999Y-91154882D01*
X171718959Y-91175424D01*
X171764195Y-91227628D01*
X171815511Y-91337676D01*
X171815512Y-91337678D01*
X171943016Y-91519773D01*
X171943020Y-91519778D01*
X171943023Y-91519782D01*
X172100219Y-91676978D01*
X172100223Y-91676981D01*
X172100227Y-91676984D01*
X172198991Y-91746139D01*
X172282323Y-91804489D01*
X172483804Y-91898441D01*
X172698537Y-91955979D01*
X172920000Y-91975354D01*
X173141463Y-91955979D01*
X173356196Y-91898441D01*
X173557677Y-91804489D01*
X173739781Y-91676978D01*
X173896977Y-91519782D01*
X174024488Y-91337678D01*
X174118440Y-91136197D01*
X174175978Y-90921464D01*
X174195353Y-90700001D01*
X174175978Y-90478538D01*
X174118440Y-90263805D01*
X174024488Y-90062325D01*
X173896977Y-89880220D01*
X173739781Y-89723024D01*
X173739777Y-89723021D01*
X173739772Y-89723017D01*
X173557677Y-89595513D01*
X173557675Y-89595512D01*
X173447627Y-89544196D01*
X173394342Y-89497279D01*
X173374881Y-89429002D01*
X173395423Y-89361042D01*
X173447627Y-89315806D01*
X173557677Y-89264489D01*
X173739781Y-89136978D01*
X173896977Y-88979782D01*
X174024488Y-88797678D01*
X174118440Y-88596197D01*
X174175978Y-88381464D01*
X174195353Y-88160001D01*
X174175978Y-87938538D01*
X174118440Y-87723805D01*
X174024488Y-87522325D01*
X173896977Y-87340220D01*
X173739781Y-87183024D01*
X173739777Y-87183021D01*
X173739772Y-87183017D01*
X173557677Y-87055513D01*
X173557675Y-87055512D01*
X173447627Y-87004196D01*
X173394342Y-86957279D01*
X173374881Y-86889002D01*
X173395423Y-86821042D01*
X173447627Y-86775806D01*
X173557677Y-86724489D01*
X173739781Y-86596978D01*
X173896977Y-86439782D01*
X174024488Y-86257678D01*
X174118440Y-86056197D01*
X174175978Y-85841464D01*
X174195353Y-85620001D01*
X174175978Y-85398538D01*
X174118440Y-85183805D01*
X174024488Y-84982325D01*
X173896977Y-84800220D01*
X173739781Y-84643024D01*
X173739777Y-84643021D01*
X173739772Y-84643017D01*
X173557677Y-84515513D01*
X173557675Y-84515512D01*
X173447627Y-84464196D01*
X173394342Y-84417279D01*
X173374881Y-84349002D01*
X173395423Y-84281042D01*
X173447627Y-84235806D01*
X173557677Y-84184489D01*
X173739781Y-84056978D01*
X173896977Y-83899782D01*
X174024488Y-83717678D01*
X174118440Y-83516197D01*
X174175978Y-83301464D01*
X174195353Y-83080001D01*
X174175978Y-82858538D01*
X174118440Y-82643805D01*
X174024488Y-82442325D01*
X173896977Y-82260220D01*
X173739781Y-82103024D01*
X173739777Y-82103021D01*
X173739772Y-82103017D01*
X173557677Y-81975513D01*
X173557675Y-81975512D01*
X173447627Y-81924196D01*
X173394342Y-81877279D01*
X173374881Y-81809002D01*
X173395423Y-81741042D01*
X173447627Y-81695806D01*
X173557677Y-81644489D01*
X173739781Y-81516978D01*
X173896977Y-81359782D01*
X174024488Y-81177678D01*
X174118440Y-80976197D01*
X174175978Y-80761464D01*
X174195353Y-80540001D01*
X174175978Y-80318538D01*
X174118440Y-80103805D01*
X174024488Y-79902325D01*
X173896977Y-79720220D01*
X173739781Y-79563024D01*
X173739777Y-79563021D01*
X173739772Y-79563017D01*
X173557677Y-79435513D01*
X173557675Y-79435512D01*
X173447627Y-79384196D01*
X173394342Y-79337279D01*
X173374881Y-79269002D01*
X173395423Y-79201042D01*
X173447627Y-79155806D01*
X173557677Y-79104489D01*
X173739781Y-78976978D01*
X173896977Y-78819782D01*
X174024488Y-78637678D01*
X174118440Y-78436197D01*
X174175978Y-78221464D01*
X174195353Y-78000001D01*
X174175978Y-77778538D01*
X174118440Y-77563805D01*
X174024488Y-77362325D01*
X173896977Y-77180220D01*
X173739781Y-77023024D01*
X173739777Y-77023021D01*
X173739772Y-77023017D01*
X173557677Y-76895513D01*
X173557675Y-76895512D01*
X173447627Y-76844196D01*
X173394342Y-76797279D01*
X173374881Y-76729002D01*
X173395423Y-76661042D01*
X173447627Y-76615806D01*
X173557677Y-76564489D01*
X173739781Y-76436978D01*
X173896977Y-76279782D01*
X174024488Y-76097678D01*
X174118440Y-75896197D01*
X174175978Y-75681464D01*
X174195353Y-75460001D01*
X174175978Y-75238538D01*
X174118440Y-75023805D01*
X174024488Y-74822325D01*
X173896977Y-74640220D01*
X173739781Y-74483024D01*
X173739777Y-74483021D01*
X173739772Y-74483017D01*
X173557677Y-74355513D01*
X173557675Y-74355512D01*
X173447627Y-74304196D01*
X173394342Y-74257279D01*
X173374881Y-74189002D01*
X173395423Y-74121042D01*
X173447627Y-74075806D01*
X173448219Y-74075530D01*
X173557677Y-74024489D01*
X173739781Y-73896978D01*
X173896977Y-73739782D01*
X174024488Y-73557678D01*
X174118440Y-73356197D01*
X174175978Y-73141464D01*
X174195353Y-72920001D01*
X174175978Y-72698538D01*
X174118440Y-72483805D01*
X174024488Y-72282325D01*
X173896977Y-72100220D01*
X173739781Y-71943024D01*
X173739777Y-71943021D01*
X173739772Y-71943017D01*
X173557677Y-71815513D01*
X173557675Y-71815512D01*
X173509006Y-71792817D01*
X173447626Y-71764195D01*
X173394342Y-71717279D01*
X173374881Y-71649002D01*
X173395423Y-71581042D01*
X173447627Y-71535806D01*
X173557677Y-71484489D01*
X173739781Y-71356978D01*
X173896977Y-71199782D01*
X174024488Y-71017678D01*
X174118440Y-70816197D01*
X174175978Y-70601464D01*
X174195353Y-70380001D01*
X174175978Y-70158538D01*
X174118440Y-69943805D01*
X174024488Y-69742325D01*
X173896977Y-69560220D01*
X173739781Y-69403024D01*
X173739777Y-69403021D01*
X173739772Y-69403017D01*
X173557677Y-69275513D01*
X173557675Y-69275512D01*
X173356199Y-69181562D01*
X173356193Y-69181560D01*
X173314074Y-69170274D01*
X173141463Y-69124023D01*
X172920000Y-69104648D01*
X172698537Y-69124023D01*
X172583463Y-69154857D01*
X172483806Y-69181560D01*
X172483801Y-69181562D01*
X172282323Y-69275513D01*
X172100222Y-69403021D01*
X172100216Y-69403026D01*
X171943025Y-69560217D01*
X171943020Y-69560223D01*
X171815512Y-69742324D01*
X171815512Y-69742325D01*
X171721560Y-69943805D01*
X171664022Y-70158538D01*
X171644647Y-70380001D01*
X171664022Y-70601464D01*
X171703834Y-70750043D01*
X171721559Y-70816194D01*
X171721561Y-70816200D01*
X171815511Y-71017676D01*
X171815512Y-71017678D01*
X171943016Y-71199773D01*
X171943020Y-71199778D01*
X171943023Y-71199782D01*
X172100219Y-71356978D01*
X172100222Y-71356980D01*
X172100227Y-71356984D01*
X172190738Y-71420360D01*
X172282323Y-71484489D01*
X172392373Y-71535806D01*
X172445658Y-71582723D01*
X172465119Y-71651000D01*
X172444577Y-71718960D01*
X172392373Y-71764196D01*
X172282323Y-71815513D01*
X172100222Y-71943021D01*
X172100216Y-71943026D01*
X171943025Y-72100217D01*
X171943020Y-72100223D01*
X171815512Y-72282324D01*
X171721561Y-72483802D01*
X171721559Y-72483807D01*
X171706770Y-72539001D01*
X171664022Y-72698538D01*
X171644647Y-72920001D01*
X171664022Y-73141464D01*
X171702574Y-73285340D01*
X171721559Y-73356194D01*
X171721561Y-73356200D01*
X171815511Y-73557676D01*
X171815512Y-73557678D01*
X171943016Y-73739773D01*
X171943020Y-73739778D01*
X171943023Y-73739782D01*
X172100219Y-73896978D01*
X172100223Y-73896981D01*
X172100227Y-73896984D01*
X172128753Y-73916958D01*
X172282323Y-74024489D01*
X172391781Y-74075530D01*
X172392373Y-74075806D01*
X172445658Y-74122723D01*
X172465119Y-74191000D01*
X172444577Y-74258960D01*
X172392373Y-74304196D01*
X172282323Y-74355513D01*
X172100222Y-74483021D01*
X172100216Y-74483026D01*
X171943025Y-74640217D01*
X171943020Y-74640223D01*
X171815512Y-74822324D01*
X171815512Y-74822325D01*
X171721560Y-75023805D01*
X171664022Y-75238538D01*
X171644647Y-75460001D01*
X171664022Y-75681464D01*
X171693314Y-75790782D01*
X171721559Y-75896194D01*
X171721561Y-75896200D01*
X171815511Y-76097676D01*
X171815512Y-76097678D01*
X171943016Y-76279773D01*
X171943020Y-76279778D01*
X171943023Y-76279782D01*
X172100219Y-76436978D01*
X172100223Y-76436981D01*
X172100227Y-76436984D01*
X172183151Y-76495048D01*
X172282323Y-76564489D01*
X172392373Y-76615806D01*
X172445658Y-76662723D01*
X172465119Y-76731000D01*
X172444577Y-76798960D01*
X172392373Y-76844196D01*
X172282323Y-76895513D01*
X172100222Y-77023021D01*
X172100216Y-77023026D01*
X171943025Y-77180217D01*
X171943020Y-77180223D01*
X171815512Y-77362324D01*
X171721561Y-77563802D01*
X171721559Y-77563807D01*
X171696478Y-77657413D01*
X171664022Y-77778538D01*
X171644647Y-78000001D01*
X171664022Y-78221464D01*
X171710273Y-78394075D01*
X171721559Y-78436194D01*
X171721561Y-78436200D01*
X171815511Y-78637676D01*
X171815512Y-78637678D01*
X171943016Y-78819773D01*
X171943020Y-78819778D01*
X171943023Y-78819782D01*
X172100219Y-78976978D01*
X172100223Y-78976981D01*
X172100227Y-78976984D01*
X172204124Y-79049733D01*
X172282323Y-79104489D01*
X172392373Y-79155806D01*
X172445658Y-79202723D01*
X172465119Y-79271000D01*
X172444577Y-79338960D01*
X172392373Y-79384196D01*
X172282323Y-79435513D01*
X172100222Y-79563021D01*
X172100216Y-79563026D01*
X171943025Y-79720217D01*
X171943020Y-79720223D01*
X171815512Y-79902324D01*
X171721561Y-80103802D01*
X171721560Y-80103805D01*
X171664022Y-80318538D01*
X171644647Y-80540001D01*
X171664022Y-80761464D01*
X171679305Y-80818500D01*
X171721559Y-80976194D01*
X171721561Y-80976200D01*
X171815511Y-81177676D01*
X171815512Y-81177678D01*
X171943016Y-81359773D01*
X171943020Y-81359778D01*
X171943023Y-81359782D01*
X172100219Y-81516978D01*
X172100223Y-81516981D01*
X172100227Y-81516984D01*
X172183151Y-81575048D01*
X172282323Y-81644489D01*
X172392373Y-81695806D01*
X172445658Y-81742723D01*
X172465119Y-81811000D01*
X172444577Y-81878960D01*
X172392373Y-81924196D01*
X172282323Y-81975513D01*
X172100222Y-82103021D01*
X172100216Y-82103026D01*
X171943025Y-82260217D01*
X171943020Y-82260223D01*
X171815512Y-82442324D01*
X171721561Y-82643802D01*
X171721560Y-82643805D01*
X171664022Y-82858538D01*
X171644647Y-83080001D01*
X171664022Y-83301464D01*
X171672845Y-83334390D01*
X171721559Y-83516194D01*
X171721561Y-83516200D01*
X171815511Y-83717676D01*
X171815512Y-83717678D01*
X171943016Y-83899773D01*
X171943020Y-83899778D01*
X171943023Y-83899782D01*
X172100219Y-84056978D01*
X172100223Y-84056981D01*
X172100227Y-84056984D01*
X172204124Y-84129733D01*
X172282323Y-84184489D01*
X172392373Y-84235806D01*
X172445658Y-84282723D01*
X172465119Y-84351000D01*
X172444577Y-84418960D01*
X172392373Y-84464196D01*
X172282323Y-84515513D01*
X172100222Y-84643021D01*
X172100216Y-84643026D01*
X171943025Y-84800217D01*
X171943020Y-84800223D01*
X171815512Y-84982324D01*
X171797306Y-85021367D01*
X171721560Y-85183805D01*
X171664022Y-85398538D01*
X171644647Y-85620001D01*
X171664022Y-85841464D01*
X171710273Y-86014075D01*
X171721559Y-86056194D01*
X171721561Y-86056200D01*
X171815511Y-86257676D01*
X171815512Y-86257678D01*
X171943016Y-86439773D01*
X171943020Y-86439778D01*
X171943023Y-86439782D01*
X172100219Y-86596978D01*
X172100223Y-86596981D01*
X172100227Y-86596984D01*
X172204124Y-86669733D01*
X172282323Y-86724489D01*
X172392373Y-86775806D01*
X172445658Y-86822723D01*
X172465119Y-86891000D01*
X172444577Y-86958960D01*
X172392373Y-87004196D01*
X172282323Y-87055513D01*
X172100222Y-87183021D01*
X172100216Y-87183026D01*
X171943025Y-87340217D01*
X171943020Y-87340223D01*
X171815512Y-87522324D01*
X171721561Y-87723802D01*
X171721560Y-87723805D01*
X171664022Y-87938538D01*
X171644647Y-88160001D01*
X171664022Y-88381464D01*
X171685066Y-88459999D01*
X171721559Y-88596194D01*
X171721561Y-88596200D01*
X171815511Y-88797676D01*
X171815512Y-88797678D01*
X171943016Y-88979773D01*
X171943020Y-88979778D01*
X171943023Y-88979782D01*
X172100219Y-89136978D01*
X172100223Y-89136981D01*
X172100227Y-89136984D01*
X172204124Y-89209733D01*
X172282323Y-89264489D01*
X172392373Y-89315806D01*
X172445658Y-89362723D01*
X172465119Y-89431000D01*
X172444577Y-89498960D01*
X172392373Y-89544196D01*
X172282323Y-89595513D01*
X172100222Y-89723021D01*
X172100216Y-89723026D01*
X171943025Y-89880217D01*
X171943020Y-89880223D01*
X171815512Y-90062324D01*
X171764195Y-90172374D01*
X171717277Y-90225659D01*
X171649000Y-90245120D01*
X171581040Y-90224578D01*
X171535805Y-90172374D01*
X171525964Y-90151270D01*
X171484488Y-90062325D01*
X171356977Y-89880220D01*
X171199781Y-89723024D01*
X171199777Y-89723021D01*
X171199772Y-89723017D01*
X171017677Y-89595513D01*
X171017675Y-89595512D01*
X170816199Y-89501562D01*
X170816193Y-89501560D01*
X170774074Y-89490274D01*
X170601463Y-89444023D01*
X170380000Y-89424648D01*
X170158537Y-89444023D01*
X170043463Y-89474857D01*
X169943806Y-89501560D01*
X169943801Y-89501562D01*
X169742323Y-89595513D01*
X169560222Y-89723021D01*
X169560216Y-89723026D01*
X169403025Y-89880217D01*
X169403020Y-89880223D01*
X169275512Y-90062324D01*
X169224195Y-90172374D01*
X169177277Y-90225659D01*
X169109000Y-90245120D01*
X169041040Y-90224578D01*
X168995805Y-90172374D01*
X168985964Y-90151270D01*
X168944488Y-90062325D01*
X168816977Y-89880220D01*
X168659781Y-89723024D01*
X168659777Y-89723021D01*
X168659772Y-89723017D01*
X168477677Y-89595513D01*
X168477675Y-89595512D01*
X168276199Y-89501562D01*
X168276193Y-89501560D01*
X168234074Y-89490274D01*
X168061463Y-89444023D01*
X167840000Y-89424648D01*
X167618537Y-89444023D01*
X167503463Y-89474857D01*
X167403806Y-89501560D01*
X167403801Y-89501562D01*
X167202323Y-89595513D01*
X167020222Y-89723021D01*
X167020216Y-89723026D01*
X166863025Y-89880217D01*
X166863020Y-89880223D01*
X166735512Y-90062324D01*
X166684195Y-90172374D01*
X166637277Y-90225659D01*
X166569000Y-90245120D01*
X166501040Y-90224578D01*
X166455805Y-90172374D01*
X166445964Y-90151270D01*
X166404488Y-90062325D01*
X166276977Y-89880220D01*
X166119781Y-89723024D01*
X166119777Y-89723021D01*
X166119772Y-89723017D01*
X165937677Y-89595513D01*
X165937675Y-89595512D01*
X165736199Y-89501562D01*
X165736193Y-89501560D01*
X165694074Y-89490274D01*
X165521463Y-89444023D01*
X165300000Y-89424648D01*
X165078537Y-89444023D01*
X164963463Y-89474857D01*
X164863806Y-89501560D01*
X164863801Y-89501562D01*
X164662323Y-89595513D01*
X164480222Y-89723021D01*
X164480216Y-89723026D01*
X164323025Y-89880217D01*
X164323020Y-89880223D01*
X164195512Y-90062324D01*
X164144195Y-90172374D01*
X164097277Y-90225659D01*
X164029000Y-90245120D01*
X163961040Y-90224578D01*
X163915805Y-90172374D01*
X163905964Y-90151270D01*
X163864488Y-90062325D01*
X163736977Y-89880220D01*
X163579781Y-89723024D01*
X163579777Y-89723021D01*
X163579772Y-89723017D01*
X163397677Y-89595513D01*
X163397675Y-89595512D01*
X163196199Y-89501562D01*
X163196193Y-89501560D01*
X163154074Y-89490274D01*
X162981463Y-89444023D01*
X162760000Y-89424648D01*
X162538537Y-89444023D01*
X162423463Y-89474857D01*
X162323806Y-89501560D01*
X162323801Y-89501562D01*
X162122323Y-89595513D01*
X161940222Y-89723021D01*
X161940216Y-89723026D01*
X161783025Y-89880217D01*
X161783020Y-89880223D01*
X161655512Y-90062324D01*
X161604195Y-90172374D01*
X161557277Y-90225659D01*
X161489000Y-90245120D01*
X161421040Y-90224578D01*
X161375805Y-90172374D01*
X161365964Y-90151270D01*
X161324488Y-90062325D01*
X161196977Y-89880220D01*
X161039781Y-89723024D01*
X161039777Y-89723021D01*
X161039772Y-89723017D01*
X160857677Y-89595513D01*
X160857675Y-89595512D01*
X160656199Y-89501562D01*
X160656193Y-89501560D01*
X160614074Y-89490274D01*
X160441463Y-89444023D01*
X160220000Y-89424648D01*
X159998537Y-89444023D01*
X159883463Y-89474857D01*
X159783806Y-89501560D01*
X159783801Y-89501562D01*
X159582323Y-89595513D01*
X159400222Y-89723021D01*
X159400216Y-89723026D01*
X159243025Y-89880217D01*
X159243020Y-89880223D01*
X159115512Y-90062324D01*
X159064195Y-90172374D01*
X159017277Y-90225659D01*
X158949000Y-90245120D01*
X158881040Y-90224578D01*
X158835805Y-90172374D01*
X158825964Y-90151270D01*
X158784488Y-90062325D01*
X158656977Y-89880220D01*
X158499781Y-89723024D01*
X158499777Y-89723021D01*
X158499772Y-89723017D01*
X158317677Y-89595513D01*
X158317675Y-89595512D01*
X158207627Y-89544196D01*
X158154342Y-89497279D01*
X158134881Y-89429002D01*
X158155423Y-89361042D01*
X158207627Y-89315806D01*
X158317677Y-89264489D01*
X158499781Y-89136978D01*
X158656977Y-88979782D01*
X158784488Y-88797678D01*
X158878440Y-88596197D01*
X158935978Y-88381464D01*
X158955353Y-88160001D01*
X158935978Y-87938538D01*
X158878440Y-87723805D01*
X158784488Y-87522325D01*
X158656977Y-87340220D01*
X158499781Y-87183024D01*
X158499777Y-87183021D01*
X158499772Y-87183017D01*
X158317677Y-87055513D01*
X158317675Y-87055512D01*
X158207627Y-87004196D01*
X158154342Y-86957279D01*
X158134881Y-86889002D01*
X158155423Y-86821042D01*
X158207627Y-86775806D01*
X158317677Y-86724489D01*
X158499781Y-86596978D01*
X158656977Y-86439782D01*
X158784488Y-86257678D01*
X158878440Y-86056197D01*
X158935978Y-85841464D01*
X158955353Y-85620001D01*
X158935978Y-85398538D01*
X158878440Y-85183805D01*
X158784488Y-84982325D01*
X158656977Y-84800220D01*
X158499781Y-84643024D01*
X158499777Y-84643021D01*
X158499772Y-84643017D01*
X158317677Y-84515513D01*
X158317675Y-84515512D01*
X158207627Y-84464196D01*
X158154342Y-84417279D01*
X158134881Y-84349002D01*
X158155423Y-84281042D01*
X158207627Y-84235806D01*
X158317677Y-84184489D01*
X158499781Y-84056978D01*
X158656977Y-83899782D01*
X158784488Y-83717678D01*
X158878440Y-83516197D01*
X158935978Y-83301464D01*
X158955353Y-83080001D01*
X158935978Y-82858538D01*
X158878440Y-82643805D01*
X158784488Y-82442325D01*
X158656977Y-82260220D01*
X158499781Y-82103024D01*
X158499777Y-82103021D01*
X158499772Y-82103017D01*
X158317677Y-81975513D01*
X158317675Y-81975512D01*
X158207627Y-81924196D01*
X158154342Y-81877279D01*
X158134881Y-81809002D01*
X158155423Y-81741042D01*
X158207627Y-81695806D01*
X158317677Y-81644489D01*
X158499781Y-81516978D01*
X158656977Y-81359782D01*
X158784488Y-81177678D01*
X158878440Y-80976197D01*
X158935978Y-80761464D01*
X158955353Y-80540001D01*
X158935978Y-80318538D01*
X158878440Y-80103805D01*
X158784488Y-79902325D01*
X158656977Y-79720220D01*
X158499781Y-79563024D01*
X158499777Y-79563021D01*
X158499772Y-79563017D01*
X158317677Y-79435513D01*
X158317675Y-79435512D01*
X158207627Y-79384196D01*
X158154342Y-79337279D01*
X158134881Y-79269002D01*
X158155423Y-79201042D01*
X158207627Y-79155806D01*
X158317677Y-79104489D01*
X158499781Y-78976978D01*
X158656977Y-78819782D01*
X158784488Y-78637678D01*
X158878440Y-78436197D01*
X158935978Y-78221464D01*
X158955353Y-78000001D01*
X158935978Y-77778538D01*
X158878440Y-77563805D01*
X158784488Y-77362325D01*
X158656977Y-77180220D01*
X158499781Y-77023024D01*
X158499777Y-77023021D01*
X158499772Y-77023017D01*
X158317677Y-76895513D01*
X158317675Y-76895512D01*
X158207627Y-76844196D01*
X158154342Y-76797279D01*
X158134881Y-76729002D01*
X158155423Y-76661042D01*
X158207627Y-76615806D01*
X158317677Y-76564489D01*
X158499781Y-76436978D01*
X158656977Y-76279782D01*
X158784488Y-76097678D01*
X158878440Y-75896197D01*
X158935978Y-75681464D01*
X158955353Y-75460001D01*
X158935978Y-75238538D01*
X158878440Y-75023805D01*
X158784488Y-74822325D01*
X158656977Y-74640220D01*
X158499781Y-74483024D01*
X158499777Y-74483021D01*
X158499772Y-74483017D01*
X158317677Y-74355513D01*
X158317675Y-74355512D01*
X158207035Y-74303920D01*
X158153750Y-74257003D01*
X158134289Y-74188726D01*
X158154831Y-74120766D01*
X158207035Y-74075530D01*
X158317425Y-74024054D01*
X158317426Y-74024053D01*
X158380603Y-73979815D01*
X158380603Y-73979813D01*
X157701791Y-73301001D01*
X157711569Y-73301001D01*
X157805421Y-73285340D01*
X157917251Y-73224821D01*
X158003371Y-73131270D01*
X158054448Y-73014824D01*
X158060538Y-72941330D01*
X158739812Y-73620604D01*
X158739814Y-73620604D01*
X158784052Y-73557427D01*
X158784053Y-73557426D01*
X158877966Y-73356028D01*
X158877968Y-73356024D01*
X158935482Y-73141375D01*
X158954850Y-72920001D01*
X158935482Y-72698626D01*
X158877968Y-72483977D01*
X158877966Y-72483973D01*
X158784051Y-72282572D01*
X158739815Y-72219396D01*
X158739813Y-72219396D01*
X158064392Y-72894817D01*
X158064949Y-72888103D01*
X158033734Y-72764839D01*
X157964187Y-72658389D01*
X157863843Y-72580288D01*
X157743578Y-72539001D01*
X157701790Y-72539001D01*
X158380603Y-71860186D01*
X158380603Y-71860185D01*
X158317425Y-71815947D01*
X158317420Y-71815944D01*
X158207034Y-71764470D01*
X158153750Y-71717553D01*
X158134289Y-71649276D01*
X158154831Y-71581316D01*
X158207034Y-71536082D01*
X158317677Y-71484489D01*
X158499781Y-71356978D01*
X158656977Y-71199782D01*
X158784488Y-71017678D01*
X158878440Y-70816197D01*
X158935978Y-70601464D01*
X158955353Y-70380001D01*
X158935978Y-70158538D01*
X158878440Y-69943805D01*
X158784488Y-69742325D01*
X158656977Y-69560220D01*
X158499781Y-69403024D01*
X158499777Y-69403021D01*
X158499772Y-69403017D01*
X158317677Y-69275513D01*
X158317675Y-69275512D01*
X158116199Y-69181562D01*
X158116193Y-69181560D01*
X158074074Y-69170274D01*
X157901463Y-69124023D01*
X157680000Y-69104648D01*
X157458537Y-69124023D01*
X157343463Y-69154857D01*
X157243806Y-69181560D01*
X157243801Y-69181562D01*
X157042323Y-69275513D01*
X156860222Y-69403021D01*
X156703023Y-69560219D01*
X156697736Y-69567771D01*
X156642279Y-69612100D01*
X156594522Y-69621501D01*
X154056211Y-69621501D01*
X153988090Y-69601499D01*
X153963512Y-69580841D01*
X153932157Y-69546780D01*
X153900737Y-69483117D01*
X153908724Y-69412571D01*
X153953582Y-69357542D01*
X153980827Y-69343388D01*
X154095965Y-69300444D01*
X154212904Y-69212904D01*
X154300444Y-69095965D01*
X154300444Y-69095964D01*
X154351494Y-68959093D01*
X154357999Y-68898597D01*
X154358000Y-68898585D01*
X154358000Y-68254000D01*
X153431116Y-68254000D01*
X153459493Y-68209844D01*
X153500000Y-68071889D01*
X153500000Y-67928111D01*
X153459493Y-67790156D01*
X153431116Y-67746000D01*
X154358000Y-67746000D01*
X154358000Y-67101414D01*
X154357999Y-67101402D01*
X154351494Y-67040906D01*
X154300444Y-66904035D01*
X154300444Y-66904034D01*
X154212904Y-66787095D01*
X154095965Y-66699555D01*
X153959093Y-66648505D01*
X153898597Y-66642000D01*
X153254000Y-66642000D01*
X153254000Y-67566325D01*
X153142315Y-67515320D01*
X153035763Y-67500000D01*
X152964237Y-67500000D01*
X152857685Y-67515320D01*
X152746000Y-67566325D01*
X152746000Y-66642000D01*
X152101402Y-66642000D01*
X152040906Y-66648505D01*
X151904035Y-66699555D01*
X151904034Y-66699555D01*
X151787095Y-66787095D01*
X151699555Y-66904034D01*
X151699555Y-66904035D01*
X151648505Y-67040906D01*
X151642000Y-67101402D01*
X151642000Y-67746000D01*
X152568884Y-67746000D01*
X152540507Y-67790156D01*
X152500000Y-67928111D01*
X152500000Y-68071889D01*
X152540507Y-68209844D01*
X152568884Y-68254000D01*
X151642000Y-68254000D01*
X151642000Y-68898597D01*
X151648505Y-68959093D01*
X151699555Y-69095964D01*
X151699555Y-69095965D01*
X151787095Y-69212904D01*
X151904034Y-69300444D01*
X152019172Y-69343388D01*
X152076008Y-69385935D01*
X152100819Y-69452455D01*
X152085728Y-69521829D01*
X152067841Y-69546782D01*
X151924280Y-69702729D01*
X151924275Y-69702734D01*
X151801141Y-69891206D01*
X151710703Y-70097386D01*
X151710702Y-70097387D01*
X151655437Y-70315624D01*
X151636844Y-70540000D01*
X151654249Y-70750043D01*
X151639940Y-70819583D01*
X151617775Y-70849543D01*
X151215093Y-71252224D01*
X151152783Y-71286248D01*
X151081968Y-71281184D01*
X151025132Y-71238637D01*
X151000321Y-71172117D01*
X151000000Y-71163128D01*
X151000000Y-66201500D01*
X151020002Y-66133379D01*
X151073658Y-66086886D01*
X151126000Y-66075500D01*
X174374000Y-66075500D01*
X174442121Y-66095502D01*
G37*
G04 #@! TD.AperFunction*
G04 #@! TA.AperFunction,Conductor*
G36*
X156328341Y-77811730D02*
G01*
X156385176Y-77854277D01*
X156409987Y-77920797D01*
X156409829Y-77940766D01*
X156404647Y-78000001D01*
X156424022Y-78221464D01*
X156470273Y-78394075D01*
X156481559Y-78436194D01*
X156481561Y-78436200D01*
X156575511Y-78637676D01*
X156575512Y-78637678D01*
X156703016Y-78819773D01*
X156703020Y-78819778D01*
X156703023Y-78819782D01*
X156860219Y-78976978D01*
X156860223Y-78976981D01*
X156860227Y-78976984D01*
X156964124Y-79049733D01*
X157042323Y-79104489D01*
X157152373Y-79155806D01*
X157205658Y-79202723D01*
X157225119Y-79271000D01*
X157204577Y-79338960D01*
X157152373Y-79384196D01*
X157042323Y-79435513D01*
X156860222Y-79563021D01*
X156860216Y-79563026D01*
X156703025Y-79720217D01*
X156703020Y-79720223D01*
X156575512Y-79902324D01*
X156481561Y-80103802D01*
X156481560Y-80103805D01*
X156424022Y-80318538D01*
X156404647Y-80540001D01*
X156424022Y-80761464D01*
X156439305Y-80818500D01*
X156481559Y-80976194D01*
X156481561Y-80976200D01*
X156575511Y-81177676D01*
X156575512Y-81177678D01*
X156703016Y-81359773D01*
X156703020Y-81359778D01*
X156703023Y-81359782D01*
X156860219Y-81516978D01*
X156860223Y-81516981D01*
X156860227Y-81516984D01*
X156943151Y-81575048D01*
X157042323Y-81644489D01*
X157152373Y-81695806D01*
X157205658Y-81742723D01*
X157225119Y-81811000D01*
X157204577Y-81878960D01*
X157152373Y-81924196D01*
X157042323Y-81975513D01*
X156860222Y-82103021D01*
X156860216Y-82103026D01*
X156703025Y-82260217D01*
X156703020Y-82260223D01*
X156575512Y-82442324D01*
X156481561Y-82643802D01*
X156481560Y-82643805D01*
X156424022Y-82858538D01*
X156404647Y-83080001D01*
X156424022Y-83301464D01*
X156432845Y-83334390D01*
X156481559Y-83516194D01*
X156481561Y-83516200D01*
X156575511Y-83717676D01*
X156575512Y-83717678D01*
X156703016Y-83899773D01*
X156703020Y-83899778D01*
X156703023Y-83899782D01*
X156860219Y-84056978D01*
X156860223Y-84056981D01*
X156860227Y-84056984D01*
X156964124Y-84129733D01*
X157042323Y-84184489D01*
X157152373Y-84235806D01*
X157205658Y-84282723D01*
X157225119Y-84351000D01*
X157204577Y-84418960D01*
X157152373Y-84464196D01*
X157042323Y-84515513D01*
X156860222Y-84643021D01*
X156860216Y-84643026D01*
X156703025Y-84800217D01*
X156703020Y-84800223D01*
X156575512Y-84982324D01*
X156481561Y-85183802D01*
X156481560Y-85183803D01*
X156481559Y-85183807D01*
X156479066Y-85193110D01*
X156442118Y-85253732D01*
X156378258Y-85284755D01*
X156357360Y-85286500D01*
X154484500Y-85286500D01*
X154416379Y-85266498D01*
X154369886Y-85212842D01*
X154358500Y-85160500D01*
X154358500Y-85021367D01*
X154358499Y-85021350D01*
X154351990Y-84960803D01*
X154351988Y-84960795D01*
X154300889Y-84823797D01*
X154300887Y-84823792D01*
X154213261Y-84706738D01*
X154096207Y-84619112D01*
X154096202Y-84619110D01*
X153959204Y-84568011D01*
X153959196Y-84568009D01*
X153898649Y-84561500D01*
X153898638Y-84561500D01*
X152584500Y-84561500D01*
X152516379Y-84541498D01*
X152469886Y-84487842D01*
X152458500Y-84435500D01*
X152458500Y-83426371D01*
X152478502Y-83358250D01*
X152532158Y-83311757D01*
X152602432Y-83301653D01*
X152625414Y-83307199D01*
X152665481Y-83320954D01*
X152665492Y-83320957D01*
X152746000Y-83334391D01*
X152746000Y-82433674D01*
X152857685Y-82484680D01*
X152964237Y-82500000D01*
X153035763Y-82500000D01*
X153142315Y-82484680D01*
X153254000Y-82433674D01*
X153254000Y-83334390D01*
X153334507Y-83320957D01*
X153334516Y-83320955D01*
X153547369Y-83247883D01*
X153547371Y-83247882D01*
X153745300Y-83140768D01*
X153745301Y-83140767D01*
X153922902Y-83002534D01*
X154075325Y-82836958D01*
X154198419Y-82648548D01*
X154288820Y-82442456D01*
X154288823Y-82442449D01*
X154336544Y-82254000D01*
X153431116Y-82254000D01*
X153459493Y-82209844D01*
X153500000Y-82071889D01*
X153500000Y-81928111D01*
X153459493Y-81790156D01*
X153431116Y-81746000D01*
X154336544Y-81746000D01*
X154336544Y-81745999D01*
X154288823Y-81557550D01*
X154288820Y-81557543D01*
X154198419Y-81351451D01*
X154075325Y-81163041D01*
X153922902Y-80997465D01*
X153745301Y-80859232D01*
X153745300Y-80859231D01*
X153711791Y-80841097D01*
X153661401Y-80791083D01*
X153646050Y-80721766D01*
X153670612Y-80655153D01*
X153711790Y-80619472D01*
X153745576Y-80601189D01*
X153923240Y-80462906D01*
X154075722Y-80297268D01*
X154198860Y-80108791D01*
X154289296Y-79902616D01*
X154333683Y-79727332D01*
X154366729Y-79669174D01*
X156195214Y-77840689D01*
X156257525Y-77806665D01*
X156328341Y-77811730D01*
G37*
G04 #@! TD.AperFunction*
G04 #@! TA.AperFunction,Conductor*
G36*
X156662644Y-71158503D02*
G01*
X156697732Y-71192227D01*
X156703023Y-71199782D01*
X156860219Y-71356978D01*
X156860222Y-71356980D01*
X156860227Y-71356984D01*
X156950738Y-71420360D01*
X157042323Y-71484489D01*
X157107310Y-71514793D01*
X157152964Y-71536082D01*
X157206249Y-71582999D01*
X157225710Y-71651277D01*
X157205168Y-71719237D01*
X157152965Y-71764471D01*
X157042577Y-71815946D01*
X156979394Y-71860186D01*
X157658209Y-72539001D01*
X157648431Y-72539001D01*
X157554579Y-72554662D01*
X157442749Y-72615181D01*
X157356629Y-72708732D01*
X157305552Y-72825178D01*
X157299461Y-72898671D01*
X156620185Y-72219395D01*
X156575946Y-72282576D01*
X156482033Y-72483973D01*
X156482031Y-72483977D01*
X156424517Y-72698626D01*
X156405149Y-72920001D01*
X156424517Y-73141375D01*
X156482031Y-73356024D01*
X156482033Y-73356028D01*
X156575946Y-73557426D01*
X156620184Y-73620604D01*
X156620185Y-73620604D01*
X157295607Y-72945182D01*
X157295051Y-72951899D01*
X157326266Y-73075163D01*
X157395813Y-73181613D01*
X157496157Y-73259714D01*
X157616422Y-73301001D01*
X157658210Y-73301001D01*
X156979395Y-73979814D01*
X156979395Y-73979815D01*
X157042575Y-74024054D01*
X157042574Y-74024054D01*
X157152964Y-74075530D01*
X157206249Y-74122448D01*
X157225710Y-74190725D01*
X157205168Y-74258685D01*
X157152964Y-74303920D01*
X157042323Y-74355513D01*
X156860222Y-74483021D01*
X156860216Y-74483026D01*
X156703025Y-74640217D01*
X156703020Y-74640223D01*
X156575512Y-74822324D01*
X156575512Y-74822325D01*
X156481560Y-75023805D01*
X156424022Y-75238538D01*
X156424022Y-75238540D01*
X156404647Y-75460001D01*
X156424022Y-75681464D01*
X156434486Y-75720516D01*
X156432796Y-75791492D01*
X156401874Y-75842221D01*
X154573095Y-77670999D01*
X154510783Y-77705025D01*
X154439967Y-77699960D01*
X154383132Y-77657413D01*
X154358321Y-77590893D01*
X154358000Y-77581904D01*
X154358000Y-77174000D01*
X153431116Y-77174000D01*
X153459493Y-77129844D01*
X153500000Y-76991889D01*
X153500000Y-76848111D01*
X153459493Y-76710156D01*
X153431116Y-76666000D01*
X154358000Y-76666000D01*
X154358000Y-76021414D01*
X154357999Y-76021402D01*
X154351494Y-75960906D01*
X154300444Y-75824035D01*
X154300444Y-75824034D01*
X154212904Y-75707095D01*
X154095965Y-75619555D01*
X153959093Y-75568505D01*
X153898597Y-75562000D01*
X153254000Y-75562000D01*
X153254000Y-76486325D01*
X153142315Y-76435320D01*
X153035763Y-76420000D01*
X152964237Y-76420000D01*
X152857685Y-76435320D01*
X152746000Y-76486325D01*
X152746000Y-75562000D01*
X152584500Y-75562000D01*
X152516379Y-75541998D01*
X152469886Y-75488342D01*
X152458500Y-75436000D01*
X152458500Y-74506371D01*
X152478502Y-74438250D01*
X152532158Y-74391757D01*
X152602432Y-74381653D01*
X152625414Y-74387199D01*
X152665481Y-74400954D01*
X152665492Y-74400957D01*
X152746000Y-74414391D01*
X152746000Y-73513674D01*
X152857685Y-73564680D01*
X152964237Y-73580000D01*
X153035763Y-73580000D01*
X153142315Y-73564680D01*
X153254000Y-73513674D01*
X153254000Y-74414390D01*
X153334507Y-74400957D01*
X153334516Y-74400955D01*
X153547369Y-74327883D01*
X153547371Y-74327882D01*
X153745300Y-74220768D01*
X153745301Y-74220767D01*
X153922902Y-74082534D01*
X154075325Y-73916958D01*
X154198419Y-73728548D01*
X154288820Y-73522456D01*
X154288823Y-73522449D01*
X154336544Y-73334000D01*
X153431116Y-73334000D01*
X153459493Y-73289844D01*
X153500000Y-73151889D01*
X153500000Y-73008111D01*
X153459493Y-72870156D01*
X153431116Y-72826000D01*
X154336544Y-72826000D01*
X154336544Y-72825999D01*
X154288823Y-72637550D01*
X154288820Y-72637543D01*
X154198419Y-72431451D01*
X154075325Y-72243041D01*
X153922902Y-72077465D01*
X153745301Y-71939232D01*
X153745300Y-71939231D01*
X153711791Y-71921097D01*
X153661401Y-71871083D01*
X153646050Y-71801766D01*
X153670612Y-71735153D01*
X153711790Y-71699472D01*
X153745576Y-71681189D01*
X153923240Y-71542906D01*
X154075722Y-71377268D01*
X154138497Y-71281184D01*
X154194421Y-71195586D01*
X154248424Y-71149497D01*
X154299904Y-71138501D01*
X156594523Y-71138501D01*
X156662644Y-71158503D01*
G37*
G04 #@! TD.AperFunction*
M02*
